<svg width="37" height="37" viewBox="0 0 37 37" fill="none" xmlns="http://www.w3.org/2000/svg">
<circle cx="18.5" cy="18.5" r="17.5" fill="#F2F2F2"/>
<g filter="url(#filter0_f_551_244)">
<rect x="5" y="5" width="27" height="27" rx="13.5" fill="#FD6C02"/>
</g>
<rect x="5" y="5" width="27" height="27" rx="13.5" fill="#FD6C02"/>
<g clip-path="url(#clip0_551_244)">
<path d="M16.4286 16.34C16.1157 16.3355 15.8142 16.2221 15.5759 16.0192C15.0785 15.5631 14.7771 14.9319 14.7352 14.2583C14.6039 12.9115 15.3383 12.1177 16.1316 12.0292C16.3227 12.0079 16.5162 12.0253 16.7005 12.0804C16.8847 12.1355 17.056 12.2272 17.204 12.3499C17.425 12.5491 17.6045 12.7899 17.732 13.0587C17.8595 13.3275 17.9326 13.6188 17.9471 13.9159C18.068 15.1704 17.3995 16.34 16.4286 16.34ZM13.5607 19.58C13.2733 19.5734 12.999 19.4589 12.7922 19.2592C12.3351 18.7833 12.0665 18.1575 12.0362 17.4983C11.9174 16.1515 12.5795 15.3577 13.295 15.2692C13.4694 15.2492 13.646 15.2676 13.8126 15.323C13.9792 15.3784 14.1317 15.4695 14.2594 15.5899C14.6702 16.0101 14.9092 16.5686 14.9296 17.1559C15.0381 18.4104 14.3739 19.58 13.5607 19.58ZM20.5715 16.34C19.5941 16.34 18.9331 15.1704 19.0557 13.9143C19.0702 13.6172 19.1433 13.3259 19.2708 13.0571C19.3983 12.7883 19.5777 12.5474 19.7987 12.3483C19.9466 12.2263 20.1175 12.1351 20.3013 12.0803C20.485 12.0255 20.6779 12.0081 20.8685 12.0292C21.6617 12.1177 22.3961 12.9115 22.2649 14.2583C22.2229 14.9321 21.9216 15.5634 21.4241 16.0198C21.1857 16.2223 20.8843 16.3355 20.5715 16.34ZM23.3887 19.58C22.3702 19.58 21.8621 18.4104 21.9766 17.1543C21.9993 16.5633 22.2467 16.0032 22.6683 15.5883C22.8021 15.467 22.9602 15.3756 23.1321 15.3203C23.304 15.265 23.4857 15.247 23.6651 15.2676C24.4039 15.3561 25.088 16.1499 24.966 17.4967C24.9317 18.1605 24.6525 18.7881 24.1825 19.2582C23.9662 19.4591 23.6838 19.5736 23.3887 19.58ZM20.66 24.98C20.1985 24.9891 19.7428 24.8764 19.3387 24.6533C19.0801 24.5171 18.7923 24.4459 18.5 24.4459C18.2078 24.4459 17.92 24.5171 17.6614 24.6533C16.0344 25.5643 14.1379 24.5626 14.18 22.28C14.18 19.7766 16.6138 17.42 18.5 17.42C20.3863 17.42 22.82 19.7766 22.82 22.28C22.82 23.8698 21.9317 24.98 20.66 24.98Z" fill="white"/>
</g>
<defs>
<filter id="filter0_f_551_244" x="0" y="0" width="37" height="37" filterUnits="userSpaceOnUse" color-interpolation-filters="sRGB">
<feFlood flood-opacity="0" result="BackgroundImageFix"/>
<feBlend mode="normal" in="SourceGraphic" in2="BackgroundImageFix" result="shape"/>
<feGaussianBlur stdDeviation="2.5" result="effect1_foregroundBlur_551_244"/>
</filter>
<clipPath id="clip0_551_244">
<rect width="12.96" height="12.96" fill="white" transform="translate(12.02 12.02)"/>
</clipPath>
</defs>
</svg>
