<svg width="40" height="40" viewBox="0 0 40 40" fill="none" xmlns="http://www.w3.org/2000/svg">
<rect width="40" height="40" rx="20" fill="white"/>
<g clip-path="url(#clip0_728_2399)">
<mask id="mask0_728_2399" style="mask-type:luminance" maskUnits="userSpaceOnUse" x="8" y="8" width="24" height="24">
<path d="M32 8H8V32H32V8Z" fill="white"/>
</mask>
<g mask="url(#mask0_728_2399)">
<path d="M20 10C17.38 10 15.25 12.13 15.25 14.75C15.25 17.32 17.26 19.4 19.88 19.49C19.96 19.48 20.04 19.48 20.1 19.49C20.12 19.49 20.13 19.49 20.15 19.49C20.16 19.49 20.16 19.49 20.17 19.49C22.73 19.4 24.74 17.32 24.75 14.75C24.75 12.13 22.62 10 20 10Z" fill="#FD6C02"/>
<path opacity="0.4" d="M25.08 22.1587C22.29 20.2987 17.74 20.2987 14.93 22.1587C13.66 22.9987 12.96 24.1487 12.96 25.3787C12.96 26.6087 13.66 27.7487 14.92 28.5887C16.32 29.5287 18.16 29.9987 20 29.9987C21.84 29.9987 23.68 29.5287 25.08 28.5887C26.34 27.7387 27.04 26.5987 27.04 25.3587C27.03 24.1387 26.34 22.9887 25.08 22.1587Z" fill="#FD6C02"/>
</g>
</g>
<defs>
<clipPath id="clip0_728_2399">
<rect width="24" height="24" fill="white" transform="translate(8 8)"/>
</clipPath>
</defs>
</svg>
