<svg width="40" height="40" viewBox="0 0 40 40" fill="none" xmlns="http://www.w3.org/2000/svg">
<rect width="40" height="40" rx="20" fill="#FD6C02" fill-opacity="0.2"/>
<g clip-path="url(#clip0_765_2165)">
<mask id="mask0_765_2165" style="mask-type:luminance" maskUnits="userSpaceOnUse" x="10" y="10" width="20" height="20">
<path d="M30 10H10V30H30V10Z" fill="white"/>
</mask>
<g mask="url(#mask0_765_2165)">
<path d="M27.1834 17.0423C26.3084 13.1923 22.9501 11.459 20.0001 11.459C20.0001 11.459 20.0001 11.459 19.9917 11.459C17.0501 11.459 13.6834 13.184 12.8084 17.034C11.8334 21.334 14.4667 24.9756 16.8501 27.2673C17.7334 28.1173 18.8667 28.5423 20.0001 28.5423C21.1334 28.5423 22.2667 28.1173 23.1417 27.2673C25.5251 24.9756 28.1584 21.3423 27.1834 17.0423ZM20.0001 21.2173C18.5501 21.2173 17.3751 20.0423 17.3751 18.5923C17.3751 17.1423 18.5501 15.9673 20.0001 15.9673C21.4501 15.9673 22.6251 17.1423 22.6251 18.5923C22.6251 20.0423 21.4501 21.2173 20.0001 21.2173Z" fill="#FD6C02"/>
</g>
</g>
<defs>
<clipPath id="clip0_765_2165">
<rect width="20" height="20" fill="white" transform="translate(10 10)"/>
</clipPath>
</defs>
</svg>
