<svg width="24" height="24" viewBox="0 0 24 24" fill="none" xmlns="http://www.w3.org/2000/svg">
<path d="M8.15973 7.99933C7.58031 7.9911 7.02191 7.78103 6.58073 7.40533C5.65951 6.56062 5.10144 5.39179 5.02373 4.14433C4.78073 1.65033 6.14073 0.180333 7.60973 0.0163329C7.96369 -0.0231408 8.32198 0.00911342 8.6632 0.11117C9.00442 0.213227 9.32157 0.382993 9.59573 0.610333C10.005 0.979096 10.3373 1.42517 10.5734 1.92288C10.8096 2.42059 10.9449 2.96009 10.9717 3.51033C11.1957 5.83333 9.95773 7.99933 8.15973 7.99933ZM2.84873 13.9993C2.31661 13.9872 1.80858 13.7751 1.42573 13.4053C0.579223 12.524 0.0817033 11.3651 0.0257307 10.1443C-0.194269 7.65033 1.03173 6.18033 2.35673 6.01633C2.67972 5.97943 3.00687 6.01347 3.31534 6.11606C3.62381 6.21866 3.90618 6.38734 4.14273 6.61033C4.90351 7.38845 5.34612 8.42275 5.38373 9.51033C5.58473 11.8333 4.35473 13.9993 2.84873 13.9993ZM15.8317 7.99933C14.0217 7.99933 12.7977 5.83333 13.0247 3.50733C13.0515 2.95709 13.1869 2.41759 13.423 1.91988C13.6592 1.42217 13.9915 0.976096 14.4007 0.607333C14.6746 0.381307 14.991 0.212539 15.3313 0.111023C15.6716 0.0095067 16.0288 -0.0226922 16.3817 0.0163329C17.8507 0.180333 19.2107 1.65033 18.9677 4.14433C18.89 5.39207 18.3319 6.56118 17.4107 7.40633C16.9692 7.78138 16.411 7.99104 15.8317 7.99933ZM21.0487 13.9993C19.1627 13.9993 18.2217 11.8333 18.4337 9.50733C18.4758 8.41279 18.934 7.37556 19.7147 6.60733C19.9624 6.38268 20.2553 6.21348 20.5736 6.11104C20.8919 6.00861 21.2285 5.97529 21.5607 6.01333C22.9287 6.17733 24.1957 7.64733 23.9697 10.1413C23.9062 11.3707 23.3892 12.5329 22.5187 13.4033C22.1183 13.7754 21.5952 13.9875 21.0487 13.9993ZM15.9957 23.9993C15.1411 24.0161 14.2971 23.8075 13.5487 23.3943C13.0699 23.1421 12.5369 23.0103 11.9957 23.0103C11.4546 23.0103 10.9215 23.1421 10.4427 23.3943C7.42973 25.0813 3.91773 23.2263 3.99573 18.9993C3.99573 14.3633 8.50273 9.99933 11.9957 9.99933C15.4887 9.99933 19.9957 14.3633 19.9957 18.9993C19.9957 21.9433 18.3507 23.9993 15.9957 23.9993Z" fill="#7A7A7A"/>
</svg>
