<svg width="20" height="23" viewBox="0 0 20 23" fill="none" xmlns="http://www.w3.org/2000/svg">
<path d="M7.20945 7.516C7.11038 7.51615 7.01482 7.47935 6.94145 7.4128C6.88265 7.3596 5.72025 6.284 5.25985 4.4288C5.04143 5.03727 4.97283 5.6894 5.05985 6.33C6.93705 8.548 9.29065 9.4732 11.5058 9.7612C8.93865 7.6384 7.48185 4.3632 7.16785 0C6.74025 0.2236 6.13065 0.7676 5.93625 2.0768C5.8781 2.45679 5.8592 2.84175 5.87985 3.2256C5.87985 3.2272 5.88105 3.2284 5.88105 3.23C6.00785 5.4668 7.46305 6.8056 7.47785 6.8192C7.53799 6.87338 7.58028 6.94453 7.59913 7.02325C7.61798 7.10197 7.61251 7.18456 7.58343 7.26011C7.55434 7.33565 7.50303 7.40059 7.43625 7.44635C7.36948 7.49211 7.29039 7.51654 7.20945 7.5164V7.516Z" fill="#7A7A7A"/>
<path d="M2.39985 7.46964C2.32126 7.46969 2.24443 7.44644 2.17905 7.40284C2.11305 7.35884 0.805049 6.46484 0.0774489 4.69684C-0.0585236 5.3851 -0.014853 6.09678 0.204249 6.76324V6.76565C0.204249 6.76645 0.205049 6.76685 0.205449 6.76765C0.972249 9.15605 3.72185 10.2876 3.74945 10.2988C3.84397 10.341 3.91847 10.4182 3.95734 10.5141C3.99621 10.61 3.99642 10.7173 3.95793 10.8134C3.91943 10.9095 3.84522 10.9869 3.75087 11.0295C3.65652 11.072 3.54935 11.0764 3.45185 11.0416C3.34465 10.9988 1.20425 10.1172 0.00304895 8.19685C0.00304895 8.22164 0.000248962 8.24524 0.000248962 8.27045C0.000248962 9.58565 0.505049 10.6868 1.50065 11.5432H1.50105C2.91545 12.7608 4.84185 13.0716 4.86105 13.0748C4.96238 13.0948 5.05208 13.1532 5.11141 13.2377C5.17073 13.3223 5.19509 13.4265 5.17939 13.5285C5.16369 13.6306 5.10915 13.7227 5.02717 13.7855C4.94519 13.8483 4.8421 13.877 4.73945 13.8656C4.66305 13.854 3.07865 13.6004 1.61945 12.6324C1.93625 15.012 6.35585 15.07 6.40225 15.0704C6.47655 15.0711 6.5492 15.0924 6.6121 15.1319C6.67501 15.1715 6.72567 15.2277 6.75845 15.2944C6.79123 15.3611 6.80483 15.4356 6.79773 15.5095C6.79063 15.5835 6.76312 15.654 6.71825 15.7132C4.74585 18.3008 1.99585 19.3772 0.895449 19.722C2.20065 21.8384 4.32745 22.2008 4.96825 22.2624L5.97305 20.6784C6.27942 20.1849 6.70703 19.7781 7.21515 19.4966C7.72327 19.2151 8.29498 19.0684 8.87585 19.0704H9.55985C10.774 19.0693 11.958 18.6917 12.9485 17.9895C13.9391 17.2874 14.6875 16.2953 15.0906 15.15L15.9502 12.6828C16.1163 12.2121 16.4241 11.8044 16.8313 11.5157C17.2385 11.227 17.7251 11.0714 18.2242 11.0704H19.1395C18.9314 10.4836 18.3022 10.26 18.2719 10.2492C18.1929 10.222 18.1243 10.171 18.0756 10.1031C18.0269 10.0353 18.0004 9.95397 17.9999 9.87045C17.9999 8.76765 17.1026 7.87045 15.9999 7.87045C14.6763 7.87045 13.5998 8.94685 13.5998 10.2704C13.5998 10.3765 13.5577 10.4783 13.4827 10.5533C13.4077 10.6283 13.3059 10.6704 13.1999 10.6704C5.02545 10.6696 2.25385 4.19404 1.31745 0.0356445C0.925449 0.320445 0.400649 0.948845 0.400649 2.26964C0.400649 2.66884 0.439449 3.05564 0.516249 3.41924V3.42044C0.966649 5.60004 2.60665 6.72605 2.62305 6.73725C2.69441 6.78502 2.74851 6.85449 2.77734 6.93538C2.80616 7.01628 2.80819 7.10431 2.78311 7.18644C2.75803 7.26858 2.70719 7.34047 2.6381 7.39147C2.569 7.44247 2.48533 7.46988 2.39945 7.46964H2.39985Z" fill="#7A7A7A"/>
</svg>
