
<svg width="40" height="40" viewBox="0 0 40 40" fill="none" xmlns="http://www.w3.org/2000/svg">
<rect width="40" height="40" rx="20" fill="white"/>
<g clip-path="url(#clip0_726_2221)">
<mask id="mask0_726_2221" style="mask-type:luminance" maskUnits="userSpaceOnUse" x="8" y="8" width="24" height="24">
<path d="M32 8H8V32H32V8Z" fill="white"/>
</mask>
<g mask="url(#mask0_726_2221)">
<path opacity="0.4" d="M10.7498 26.6508C10.3398 26.6508 9.99982 26.3108 9.99982 25.9008V20.2008C9.94982 17.4908 10.9598 14.9308 12.8398 13.0108C14.7198 11.1008 17.2398 10.0508 19.9498 10.0508C25.4898 10.0508 29.9998 14.5608 29.9998 20.1008V25.8008C29.9998 26.2108 29.6598 26.5508 29.2498 26.5508C28.8398 26.5508 28.4998 26.2108 28.4998 25.8008V20.1008C28.4998 15.3908 24.6698 11.5508 19.9498 11.5508C17.6398 11.5508 15.4998 12.4408 13.9098 14.0608C12.3098 15.6908 11.4598 17.8608 11.4998 20.1808V25.8908C11.4998 26.3108 11.1698 26.6508 10.7498 26.6508Z" fill="#FD6C02"/>
<path d="M13.94 20.4492H13.81C11.71 20.4492 10 22.1592 10 24.2592V26.1392C10 28.2392 11.71 29.9492 13.81 29.9492H13.94C16.04 29.9492 17.75 28.2392 17.75 26.1392V24.2592C17.75 22.1592 16.04 20.4492 13.94 20.4492Z" fill="#FD6C02"/>
<path d="M26.19 20.4492H26.06C23.96 20.4492 22.25 22.1592 22.25 24.2592V26.1392C22.25 28.2392 23.96 29.9492 26.06 29.9492H26.19C28.29 29.9492 30 28.2392 30 26.1392V24.2592C30 22.1592 28.29 20.4492 26.19 20.4492Z" fill="#FD6C02"/>
</g>
</g>
<defs>
<clipPath id="clip0_726_2221">
<rect width="24" height="24" fill="white" transform="translate(8 8)"/>
</clipPath>
</defs>
</svg>
