<svg width="15" height="23" viewBox="0 0 15 23" fill="none" xmlns="http://www.w3.org/2000/svg">
<path fill-rule="evenodd" clip-rule="evenodd" d="M13.8724 5.90144C13.7102 6.29032 13.4881 6.65143 13.2143 6.97169C13.181 7.01088 13.1334 7.03522 13.0822 7.03937C13.0309 7.04352 12.9801 7.02713 12.9409 6.99382C12.9017 6.9605 12.8774 6.91298 12.8732 6.86171C12.8691 6.81044 12.8855 6.75963 12.9188 6.72044C13.4363 6.11182 14.0205 5.03669 13.6613 3.49919C13.6573 3.48111 13.6558 3.46256 13.6568 3.44407L13.8128 0.675815V0.67394C13.8128 0.67394 13.8315 0.40019 13.7614 0.179315C13.7337 0.0930653 13.7025 0.00231531 13.6103 6.53117e-05C13.5203 -0.00218469 13.4078 0.0536903 13.2559 0.16919C12.9623 0.39119 12.5697 0.82019 12.039 1.55969C12.0151 1.59302 11.9813 1.61792 11.9423 1.63079C11.9034 1.64366 11.8613 1.64384 11.8223 1.63132C11.8223 1.63132 10.2694 1.12807 9.0124 1.83007C8.97715 1.84997 8.93653 1.85828 8.89629 1.85384C8.85605 1.8494 8.81822 1.83242 8.78815 1.80532L7.1164 0.30644C7.10182 0.30044 7.08614 0.297574 7.07038 0.298026C7.05461 0.298478 7.03912 0.302239 7.02491 0.309065C6.99865 0.32369 6.97803 0.355565 6.96041 0.403565C6.91428 0.526565 6.89965 0.720065 6.93153 1.02194C6.98553 1.53044 7.17491 2.31194 7.60015 3.50707C7.61721 3.55468 7.61478 3.6071 7.59341 3.65294C7.59341 3.65294 6.57716 5.85832 8.57591 7.06319C8.59843 7.07597 8.61817 7.09313 8.63396 7.11367C8.64974 7.1342 8.66125 7.15769 8.66781 7.18274C8.67437 7.2078 8.67583 7.23391 8.67213 7.25955C8.66843 7.28518 8.65963 7.30981 8.64625 7.33199C8.63287 7.35416 8.61518 7.37343 8.59423 7.38866C8.57328 7.40388 8.54949 7.41476 8.52426 7.42064C8.49904 7.42652 8.4729 7.42728 8.44737 7.42289C8.42185 7.4185 8.39746 7.40904 8.37566 7.39507C8.29002 7.34357 8.20657 7.28852 8.12553 7.23007C8.07378 7.72732 7.83415 8.67982 6.78303 9.24644C6.44665 9.42757 5.86691 9.51157 5.17841 9.66269C4.21053 9.87494 3.01466 10.2349 2.02878 11.3037C0.919905 12.5063 0.0862803 14.5936 0.10428 18.3248V18.3316L0.0105303 21.3841C0.0100549 21.3948 0.00880153 21.4054 0.00678022 21.4159C0.00678022 21.4159 -0.0599697 21.7861 0.225405 22.1611C0.54978 22.5871 1.29153 22.9909 2.92803 23.0022C3.77216 23.0078 4.84541 22.9073 6.20965 22.6482C6.27566 22.5477 6.39903 22.3557 6.69228 22.1554C7.15166 21.8427 8.05465 21.4988 9.90603 21.5161L12.927 21.4662C12.9934 21.3372 13.0932 21.0724 12.9878 20.7972C12.9214 20.6254 12.774 20.4552 12.5014 20.3041C11.9584 20.0041 10.9733 19.7967 9.23665 19.8323C9.19845 19.8457 9.15699 19.8468 9.11816 19.8353C8.56101 19.8515 8.00449 19.8849 7.4494 19.9354L7.43741 19.9362C5.68616 19.9827 4.96878 20.5474 4.31816 20.9821C3.60566 21.4568 2.96816 21.7973 1.34703 21.2821C1.30056 21.2646 1.26258 21.2299 1.24092 21.1852C1.21927 21.1405 1.21558 21.0892 1.23064 21.0419C1.24569 20.9945 1.27833 20.9548 1.32183 20.9308C1.36532 20.9069 1.41636 20.9005 1.46441 20.9131C2.90366 21.3698 3.47066 21.0807 4.10291 20.6592C4.79553 20.1972 5.56015 19.5998 7.42091 19.5492C7.91311 19.5048 8.40641 19.4735 8.90028 19.4554C8.17915 17.1739 8.68878 13.2784 8.68878 13.2784C8.69761 13.2294 8.72499 13.1856 8.76524 13.1562C8.80549 13.1268 8.85552 13.114 8.90493 13.1206C8.95435 13.1271 8.99936 13.1524 9.03061 13.1912C9.06187 13.23 9.07697 13.2794 9.07278 13.3291C9.07278 13.3291 8.54778 17.2508 9.30491 19.4446C10.1052 19.4322 10.7505 19.4716 11.2688 19.5458C10.5893 16.8683 11.9453 14.9221 11.9453 14.9221C11.9746 14.8798 12.0195 14.8509 12.0702 14.8418C12.1208 14.8326 12.173 14.844 12.2153 14.8733C12.2575 14.9027 12.2864 14.9476 12.2956 14.9982C12.3047 15.0489 12.2934 15.101 12.264 15.1433C12.264 15.1433 10.9628 17.0281 11.6835 19.5972C11.6858 19.6047 11.6873 19.6118 11.6888 19.6193C11.7754 19.6373 11.8579 19.6568 11.9363 19.6774C12.0285 19.0902 12.4485 17.1053 14.2643 13.0879C14.2738 13.0667 14.2871 13.0473 14.3037 13.0309C14.3037 13.0309 14.583 12.7257 14.6738 11.6839C14.7675 10.6144 14.6539 8.82344 13.8724 5.90144Z" fill="#7A7A7A"/>
</svg>
