<svg width="90" height="90" viewBox="0 0 90 90" fill="none" xmlns="http://www.w3.org/2000/svg">
<rect width="90" height="90" rx="45" fill="#FD6C02" fill-opacity="0.15"/>
<path opacity="0.4" d="M51.75 34.2V55.7775C51.75 63 47.25 67.5 40.05 67.5H34.2225C27.0225 67.5 22.5225 63 22.5225 55.8V34.2C22.5 27 27 22.5 34.2 22.5H40.05C47.25 22.5 51.75 27 51.75 34.2Z" fill="#FD6C02"/>
<path d="M59.4678 36.268L67.0053 43.8054C67.6578 44.4579 67.6578 45.5379 67.0053 46.1904L59.4678 53.7279C58.8153 54.3804 57.7353 54.3804 57.0828 53.7279C56.4303 53.0754 56.4303 51.9954 57.0828 51.3429L61.7403 46.6854H37.6878C36.7653 46.6854 36.0003 45.9204 36.0003 44.9979C36.0003 44.0754 36.7653 43.3104 37.6878 43.3104H61.7403L57.0828 38.653C56.7453 38.3155 56.5878 37.888 56.5878 37.4605C56.5878 37.033 56.7453 36.583 57.0828 36.268C57.7353 35.593 58.7928 35.593 59.4678 36.268Z" fill="#FD6C02"/>
</svg>
