<svg width="17" height="23" viewBox="0 0 17 23" fill="none" xmlns="http://www.w3.org/2000/svg">
<path d="M16.125 3.2625C16.125 3.345 16.11 3.43125 16.08 3.51C15.9375 3.8775 15.405 4.875 13.875 4.875C13.875 4.875 12.75 4.875 12.75 5.625C12.75 6.375 14.25 8.625 14.25 11.25C14.25 11.25 14.25 13.5 12.75 14.625C11.25 15.75 12 21 12 21C12 21 13.5 21 13.5 21.75V22.125H10.875C10.875 22.125 9.75 21 9.75 18.75C9.75 17.2838 9.91125 16.455 10.02 16.0538C10.065 15.93 10.095 15.84 10.11 15.7913C10.0875 15.8363 10.0575 15.9188 10.02 16.0538C9.73125 16.8525 8.81625 19.005 7.2825 19.4288C7.4025 19.0238 7.5 18.5362 7.5 18C7.5 15.75 5.625 15.375 5.625 15.375C5.625 15.375 7.125 16.125 7.125 17.625C7.125 18.375 6.9375 19.0312 6.75 19.5C6.5625 19.9688 6.375 20.25 6.375 20.25C6.375 20.25 6.75 21 7.875 21C9 21 9 21.75 9 21.75V22.125H3C1.5 22.125 0 21.75 0 19.5C0 17.25 0 16.125 1.125 14.625C2.25 13.125 3.75 13.5 6 10.5C7.12248 8.99874 7.94499 7.29515 8.4225 5.4825C8.5425 5.59125 8.7075 5.625 9 5.625C9.75 5.625 12 5.625 10.875 2.625C11.25 4.875 10.125 5.25 9.375 5.25C8.92875 5.25 8.74875 4.98375 8.595 4.69125C8.49375 4.48875 8.4 4.275 8.25 4.125C7.875 3.75 7.5 4.125 7.5 3C7.5 1.875 9 0 11.25 0C13.5 0 13.875 1.875 13.875 1.875C14.3212 2.32125 15.0338 2.50125 15.5363 2.57625C15.8737 2.625 16.125 2.9175 16.125 3.2625Z" fill="#7A7A7A"/>
</svg>
