<svg width="24" height="24" viewBox="0 0 24 24" fill="none" xmlns="http://www.w3.org/2000/svg">
<g clip-path="url(#clip0_572_385)">
<path d="M13.1732 9.84011C13.5369 9.27386 15.9744 8.89136 16.2294 9.25136C16.5444 9.71636 15.7682 12.4426 14.5494 12.7501C13.4207 13.0276 12.5582 10.8001 13.1732 9.84011ZM14.4407 11.6364C14.4698 11.6601 14.5034 11.6778 14.5395 11.6884C14.5756 11.699 14.6134 11.7023 14.6508 11.6981C14.6881 11.6939 14.7243 11.6823 14.7571 11.664C14.7899 11.6457 14.8188 11.621 14.8419 11.5914L15.3219 10.9989C15.3702 10.94 15.3933 10.8645 15.3863 10.7887C15.3793 10.7129 15.3427 10.6429 15.2844 10.5939C15.1569 10.4926 14.9769 10.5114 14.8757 10.6314L14.3957 11.2314C14.2944 11.3514 14.3132 11.5351 14.4407 11.6364ZM14.0057 10.3351C14.0394 10.4701 14.1594 10.5564 14.2907 10.5564C14.3094 10.5564 14.3319 10.5564 14.3582 10.5451L14.9582 10.4026C15.1119 10.3689 15.2057 10.2114 15.1719 10.0576C15.1344 9.90386 14.9769 9.80636 14.8232 9.84761L14.2232 9.99011C14.0657 10.0276 13.9719 10.1814 14.0057 10.3351ZM1.99443 11.8539C3.76068 15.9901 9.99318 16.1439 10.2969 17.3589C10.4057 17.8164 10.6007 18.9751 6.07443 20.0364C6.54693 21.7389 6.80568 23.5876 6.08568 23.9701C5.30943 24.3826 0.524433 20.3664 1.99443 11.8539ZM6.26568 17.3626C6.29943 17.3701 6.32568 17.3776 6.35943 17.3776C6.41967 17.3773 6.47824 17.3578 6.52675 17.3221C6.57526 17.2864 6.61121 17.2363 6.62943 17.1789C6.6535 17.1072 6.64852 17.029 6.61557 16.961C6.58262 16.893 6.52432 16.8406 6.45318 16.8151C5.80068 16.5939 5.18193 16.2864 4.60818 15.9039C4.18818 15.6264 3.79443 15.2964 3.43443 14.9401C3.31818 14.8239 3.13443 14.8239 3.02568 14.9401C2.91318 15.0489 2.91318 15.2326 3.02568 15.3414C3.40973 15.7302 3.83185 16.0794 4.28568 16.3839C4.90096 16.7937 5.56642 17.1227 6.26568 17.3626ZM4.68693 18.7576C4.74654 18.8048 4.82218 18.8269 4.8978 18.8192C4.97342 18.8115 5.04306 18.7746 5.09193 18.7164C5.14044 18.6566 5.16333 18.5801 5.1556 18.5035C5.14787 18.4269 5.11016 18.3565 5.05068 18.3076C4.79193 18.1014 4.54068 17.8726 4.30818 17.6251C3.94068 17.2501 3.61068 16.8451 3.32193 16.4101C3.23568 16.2789 3.05943 16.2451 2.92443 16.3314C2.78943 16.4176 2.75568 16.5939 2.84193 16.7289C3.14944 17.1939 3.50568 17.6326 3.89568 18.0301C4.14318 18.2889 4.41318 18.5326 4.68693 18.7576ZM2.68443 18.4276C2.82693 18.8364 3.00693 19.2376 3.20943 19.6239C3.37068 19.9314 3.54693 20.2314 3.73443 20.5164C3.77829 20.5786 3.84419 20.6217 3.91873 20.637C3.99327 20.6524 4.07085 20.6387 4.13568 20.5989C4.19847 20.5554 4.24182 20.4892 4.25653 20.4142C4.27123 20.3393 4.25613 20.2616 4.21443 20.1976C4.03819 19.9314 3.86943 19.6464 3.71943 19.3576C3.52818 18.9939 3.35943 18.6151 3.22068 18.2326C3.16818 18.0826 2.99943 18.0001 2.85318 18.0564C2.70318 18.1126 2.62818 18.2776 2.68443 18.4276ZM4.86693 5.46761C4.87818 5.47511 4.88568 5.48261 4.89693 5.48636C5.50068 5.91386 6.10818 6.11261 6.67443 6.06761C7.00443 6.04136 7.19568 5.94761 7.36443 5.86511C7.52193 5.79011 7.67193 5.71511 7.97193 5.68511C8.65068 5.62136 9.02568 5.79011 9.42318 5.97761C9.78318 6.13886 10.1807 6.32636 10.7807 6.32636C10.8444 6.32636 10.9119 6.32261 10.9794 6.31886C11.7857 6.27011 12.3369 5.68511 12.7832 5.22011C13.0944 4.88636 13.3869 4.57886 13.6607 4.55636C13.9494 4.53761 14.1032 4.65386 14.3207 4.81511C14.5457 4.98011 14.8232 5.19011 15.2694 5.21261C15.4944 5.22761 15.7044 5.19386 15.9069 5.13761C15.9069 5.14136 15.9032 5.15261 15.9032 5.15636C15.6482 6.26636 15.5844 7.39886 15.7157 8.53886C15.6857 8.53511 15.6594 8.53511 15.6294 8.53511C15.0144 8.53511 13.1769 8.77136 12.6857 9.52886C12.5657 9.71636 12.4869 9.92636 12.4419 10.1514C11.8569 10.1964 11.2419 10.2789 10.6269 10.4026C10.6232 10.3914 10.6232 10.3839 10.6194 10.3726C10.6194 10.3689 10.6194 10.3651 10.6119 10.3576C10.3682 9.72761 10.0119 9.36761 9.56568 9.29261C9.06693 9.21386 8.77443 9.41261 8.54568 9.57761C8.35818 9.70511 8.22318 9.80261 7.97943 9.77261C7.76568 9.75386 7.50693 9.60011 7.24068 9.43886C6.64818 9.08261 5.84193 8.59886 4.90068 9.28886C4.22943 9.78386 3.73068 10.7326 3.56943 11.8276C3.50193 12.2739 3.49443 12.7164 3.54318 13.1439C3.11943 12.7164 2.77068 12.2139 2.51943 11.6251L2.19318 10.8526C2.50068 9.49886 3.25068 7.33886 4.86693 5.46761ZM4.13943 11.9139C4.27818 10.9689 4.69068 10.1589 5.24193 9.75386C5.87568 9.28886 6.37068 9.58511 6.94068 9.93386C7.25193 10.1176 7.58193 10.3126 7.91943 10.3501C8.38068 10.3914 8.65443 10.2001 8.87568 10.0464C9.07443 9.90761 9.20193 9.81761 9.47568 9.85886C9.70068 9.90011 9.89943 10.1251 10.0682 10.5376C8.06568 11.0551 6.14943 12.1651 5.35818 14.4676C4.96818 14.2576 4.59318 14.0251 4.24443 13.7626C4.07943 13.1926 4.04193 12.5589 4.13943 11.9139ZM15.2657 1.84136C15.8169 1.88636 16.4394 2.01386 17.0769 2.21261C16.6719 2.90636 16.3457 3.63011 16.1094 4.38761V4.39511C15.8657 4.54511 15.5919 4.65386 15.3032 4.63886C15.0294 4.62386 14.8569 4.50011 14.6582 4.35011C14.4332 4.18886 14.1594 3.97886 13.7244 3.97886C13.6907 3.97886 13.6532 3.97886 13.6194 3.98636C13.1207 4.02386 12.7532 4.41386 12.3669 4.81886C11.9469 5.25761 11.5194 5.70761 10.9382 5.74511C10.3719 5.77886 10.0457 5.62511 9.66318 5.45261C9.23568 5.25386 8.74068 5.02511 7.91943 5.11511C7.51443 5.15261 7.29318 5.26136 7.11318 5.34761C6.95943 5.41886 6.85068 5.47886 6.62943 5.49386C6.21318 5.53136 5.74818 5.37761 5.26068 5.04011C7.24068 2.98886 10.3682 1.39886 15.2657 1.84136ZM10.7094 0.000112725C11.1369 -0.0336373 11.4519 0.476363 11.6469 1.31636C11.3319 1.35386 11.0319 1.40636 10.7319 1.47011C10.6794 1.34261 10.6232 1.21511 10.5669 1.10636C10.4919 0.960113 10.3157 0.907613 10.1769 0.982613C10.0382 1.05386 9.97818 1.22636 10.0532 1.36511C10.0907 1.43636 10.1282 1.51511 10.1619 1.59386C9.91443 1.65761 9.66693 1.72511 9.42693 1.80011C9.40443 1.74386 9.37818 1.68761 9.35193 1.63511C9.28443 1.48886 9.11193 1.42886 8.96568 1.49261C8.82318 1.56761 8.76693 1.74011 8.83443 1.88261C8.85318 1.91636 8.86818 1.95011 8.87943 1.98761C8.62818 2.08511 8.37693 2.18636 8.13693 2.29511C8.05068 2.23886 7.94193 2.22761 7.84443 2.27636C7.74693 2.32511 7.69068 2.41511 7.68693 2.51636C6.70818 3.01886 5.81943 3.66761 5.03193 4.45136C6.44193 2.29511 8.54568 0.187613 10.7094 0.000112725ZM16.4657 5.28761C16.6907 4.28636 17.0732 3.33761 17.6057 2.44886C17.6169 2.43011 17.6244 2.41136 17.6394 2.39636C20.1369 3.30386 22.6757 5.21261 22.2332 7.72511C22.2107 7.85261 22.1807 7.98011 22.1507 8.09261C21.8207 8.24261 21.3707 8.36636 20.8307 8.33261C20.5397 8.31281 20.2536 8.24699 19.9832 8.13761C19.8332 8.07386 19.6644 8.14511 19.6044 8.29136C19.5444 8.44136 19.6194 8.60636 19.7619 8.67011C20.0919 8.80511 20.4369 8.88761 20.7932 8.91011C20.8719 8.91386 20.9432 8.91386 21.0182 8.91386C21.3257 8.91386 21.6032 8.87261 21.8544 8.80511C21.1757 9.94511 19.6794 10.2189 16.8182 10.1776C16.9007 9.72011 16.9119 9.23261 16.6982 8.92511C16.5969 8.77886 16.4582 8.68886 16.3044 8.63261C16.1619 7.50386 16.2107 6.37886 16.4657 5.28761ZM19.2144 6.47636C19.5407 6.47636 19.8032 6.21386 19.8032 5.88761C19.8032 5.55761 19.5407 5.29511 19.2144 5.29511C18.8882 5.29511 18.6219 5.55761 18.6219 5.88761C18.6219 6.21386 18.8882 6.47636 19.2144 6.47636Z" fill="#7A7A7A"/>
</g>
<defs>
<clipPath id="clip0_572_385">
<rect width="24" height="24" fill="white"/>
</clipPath>
</defs>
</svg>
