<svg width="40" height="40" viewBox="0 0 40 40" fill="none" xmlns="http://www.w3.org/2000/svg">
<rect width="40" height="40" rx="20" fill="white"/>
<g clip-path="url(#clip0_724_2184)">
<mask id="mask0_724_2184" style="mask-type:luminance" maskUnits="userSpaceOnUse" x="8" y="8" width="24" height="24">
<path d="M8 8H32V32H8V8Z" fill="white"/>
</mask>
<g mask="url(#mask0_724_2184)">
<path opacity="0.4" d="M15 26.4297H19L23.45 29.3897C24.11 29.8297 25 29.3597 25 28.5597V26.4297C28 26.4297 30 24.4297 30 21.4297V15.4297C30 12.4297 28 10.4297 25 10.4297H15C12 10.4297 10 12.4297 10 15.4297V21.4297C10 24.4297 12 26.4297 15 26.4297Z" fill="#FD6C02"/>
<path d="M20.0002 20.1094C19.5902 20.1094 19.2502 19.7694 19.2502 19.3594V19.1494C19.2502 17.9894 20.1002 17.4194 20.4202 17.1994C20.7902 16.9494 20.9102 16.7794 20.9102 16.5194C20.9102 16.0194 20.5002 15.6094 20.0002 15.6094C19.5002 15.6094 19.0902 16.0194 19.0902 16.5194C19.0902 16.9294 18.7502 17.2694 18.3402 17.2694C17.9302 17.2694 17.5902 16.9294 17.5902 16.5194C17.5902 15.1894 18.6702 14.1094 20.0002 14.1094C21.3302 14.1094 22.4102 15.1894 22.4102 16.5194C22.4102 17.6594 21.5702 18.2294 21.2602 18.4394C20.8702 18.6994 20.7502 18.8694 20.7502 19.1494V19.3594C20.7502 19.7794 20.4102 20.1094 20.0002 20.1094Z" fill="#FD6C02"/>
<path d="M20.0004 22.5996C19.5804 22.5996 19.2504 22.2596 19.2504 21.8496C19.2504 21.4396 19.5904 21.0996 20.0004 21.0996C20.4104 21.0996 20.7504 21.4396 20.7504 21.8496C20.7504 22.2596 20.4204 22.5996 20.0004 22.5996Z" fill="#FD6C02"/>
</g>
</g>
<defs>
<clipPath id="clip0_724_2184">
<rect width="24" height="24" fill="white" transform="matrix(-1 0 0 1 32 8)"/>
</clipPath>
</defs>
</svg>
