<svg width="56" height="56" viewBox="0 0 56 56" fill="none" xmlns="http://www.w3.org/2000/svg">
<rect width="56" height="56" rx="28" fill="#FD6C02"/>
<g clip-path="url(#clip0_655_2333)">
<mask id="mask0_655_2333" style="mask-type:luminance" maskUnits="userSpaceOnUse" x="14" y="14" width="28" height="28">
<path d="M42 14H14V42H42V14Z" fill="white"/>
</mask>
<g mask="url(#mask0_655_2333)">
<path d="M38.85 22.8433H32.34C31.885 22.8433 31.5233 22.4816 31.5233 22.0266C31.5233 21.5716 31.885 21.21 32.34 21.21H38.85C39.305 21.21 39.6666 21.5716 39.6666 22.0266C39.6666 22.4816 39.305 22.8433 38.85 22.8433Z" fill="white"/>
<path d="M21.49 22.8433H17.15C16.695 22.8433 16.3333 22.4816 16.3333 22.0266C16.3333 21.5716 16.695 21.21 17.15 21.21H21.49C21.945 21.21 22.3066 21.5716 22.3066 22.0266C22.3066 22.4816 21.9333 22.8433 21.49 22.8433Z" fill="white"/>
<path d="M25.8298 26.6346C28.375 26.6346 30.4382 24.5714 30.4382 22.0263C30.4382 19.4812 28.375 17.418 25.8298 17.418C23.2848 17.418 21.2216 19.4812 21.2216 22.0263C21.2216 24.5714 23.2848 26.6346 25.8298 26.6346Z" fill="white"/>
<path d="M38.8498 34.7788H34.5098C34.0548 34.7788 33.6932 34.4172 33.6932 33.9622C33.6932 33.5072 34.0548 33.1455 34.5098 33.1455H38.8498C39.3048 33.1455 39.6665 33.5072 39.6665 33.9622C39.6665 34.4172 39.3048 34.7788 38.8498 34.7788Z" fill="white"/>
<path d="M23.66 34.7788H17.15C16.695 34.7788 16.3333 34.4172 16.3333 33.9622C16.3333 33.5072 16.695 33.1455 17.15 33.1455H23.66C24.115 33.1455 24.4766 33.5072 24.4766 33.9622C24.4766 34.4172 24.1033 34.7788 23.66 34.7788Z" fill="white"/>
<path d="M30.1698 38.5819C32.7149 38.5819 34.7782 36.5187 34.7782 33.9736C34.7782 31.4285 32.7149 29.3652 30.1698 29.3652C27.6248 29.3652 25.5615 31.4285 25.5615 33.9736C25.5615 36.5187 27.6248 38.5819 30.1698 38.5819Z" fill="white"/>
</g>
</g>
<defs>
<clipPath id="clip0_655_2333">
<rect width="28" height="28" fill="white" transform="translate(14 14)"/>
</clipPath>
</defs>
</svg>
