<svg width="184" height="56" viewBox="0 0 184 56" fill="none" xmlns="http://www.w3.org/2000/svg">
<rect width="184" height="56" rx="28" fill="#FD6C02"/>
<path d="M47.056 35.18C46.192 35.18 45.376 35.012 44.608 34.676C43.84 34.34 43.168 33.878 42.592 33.29C42.016 32.69 41.56 32 41.224 31.22C40.9 30.428 40.738 29.582 40.738 28.682C40.738 27.782 40.9 26.942 41.224 26.162C41.56 25.382 42.016 24.698 42.592 24.11C43.18 23.51 43.864 23.048 44.644 22.724C45.436 22.388 46.288 22.22 47.2 22.22C48.196 22.22 49.12 22.412 49.972 22.796C50.824 23.18 51.538 23.726 52.114 24.434L50.71 25.838C50.338 25.31 49.84 24.908 49.216 24.632C48.592 24.344 47.92 24.2 47.2 24.2C46.336 24.2 45.574 24.392 44.914 24.776C44.266 25.148 43.762 25.67 43.402 26.342C43.042 27.014 42.862 27.794 42.862 28.682C42.862 29.57 43.042 30.356 43.402 31.04C43.774 31.712 44.272 32.24 44.896 32.624C45.52 33.008 46.228 33.2 47.02 33.2C47.86 33.2 48.58 33.05 49.18 32.75C49.792 32.438 50.26 31.982 50.584 31.382C50.908 30.77 51.07 30.02 51.07 29.132L52.366 30.068H46.984V28.178H53.212V28.466C53.212 29.966 52.942 31.214 52.402 32.21C51.874 33.206 51.148 33.95 50.224 34.442C49.3 34.934 48.244 35.18 47.056 35.18ZM59.0163 35.18C58.1523 35.18 57.3723 34.988 56.6763 34.604C55.9923 34.208 55.4463 33.668 55.0383 32.984C54.6423 32.3 54.4443 31.532 54.4443 30.68C54.4443 29.828 54.6423 29.066 55.0383 28.394C55.4343 27.71 55.9683 27.17 56.6403 26.774C57.3243 26.378 58.0803 26.18 58.9083 26.18C59.7123 26.18 60.4203 26.366 61.0323 26.738C61.6563 27.11 62.1423 27.62 62.4903 28.268C62.8503 28.916 63.0303 29.654 63.0303 30.482C63.0303 30.626 63.0183 30.776 62.9943 30.932C62.9823 31.076 62.9583 31.238 62.9223 31.418H55.8303V29.798H61.8963L61.1583 30.446C61.1343 29.918 61.0323 29.474 60.8523 29.114C60.6723 28.754 60.4143 28.478 60.0783 28.286C59.7543 28.094 59.3523 27.998 58.8723 27.998C58.3683 27.998 57.9303 28.106 57.5583 28.322C57.1863 28.538 56.8983 28.844 56.6943 29.24C56.4903 29.624 56.3883 30.086 56.3883 30.626C56.3883 31.166 56.4963 31.64 56.7123 32.048C56.9283 32.456 57.2343 32.774 57.6303 33.002C58.0263 33.218 58.4823 33.326 58.9983 33.326C59.4423 33.326 59.8503 33.248 60.2223 33.092C60.6063 32.936 60.9303 32.708 61.1943 32.408L62.4543 33.686C62.0343 34.178 61.5243 34.55 60.9243 34.802C60.3243 35.054 59.6883 35.18 59.0163 35.18ZM65.703 35V22.76H67.683V35H65.703ZM63.633 28.16V26.36H69.753V28.16H63.633ZM78.5753 35.18C77.5793 35.18 76.7333 35 76.0373 34.64C75.3413 34.28 74.7173 33.752 74.1653 33.056L75.5693 31.652C75.9173 32.156 76.3313 32.552 76.8113 32.84C77.2913 33.116 77.9033 33.254 78.6473 33.254C79.3433 33.254 79.8953 33.11 80.3033 32.822C80.7233 32.534 80.9333 32.138 80.9333 31.634C80.9333 31.214 80.8253 30.872 80.6093 30.608C80.3933 30.344 80.1053 30.128 79.7453 29.96C79.3973 29.78 79.0073 29.624 78.5753 29.492C78.1553 29.348 77.7293 29.192 77.2973 29.024C76.8773 28.844 76.4873 28.622 76.1273 28.358C75.7793 28.094 75.4973 27.752 75.2813 27.332C75.0653 26.912 74.9573 26.378 74.9573 25.73C74.9573 24.986 75.1373 24.356 75.4973 23.84C75.8693 23.312 76.3673 22.91 76.9913 22.634C77.6153 22.358 78.3113 22.22 79.0793 22.22C79.9073 22.22 80.6453 22.382 81.2933 22.706C81.9533 23.03 82.4873 23.444 82.8953 23.948L81.4913 25.352C81.1313 24.944 80.7533 24.644 80.3573 24.452C79.9733 24.248 79.5293 24.146 79.0253 24.146C78.4013 24.146 77.9093 24.272 77.5493 24.524C77.2013 24.776 77.0273 25.13 77.0273 25.586C77.0273 25.97 77.1353 26.282 77.3513 26.522C77.5673 26.75 77.8493 26.948 78.1973 27.116C78.5573 27.272 78.9473 27.422 79.3673 27.566C79.7993 27.71 80.2253 27.872 80.6453 28.052C81.0773 28.232 81.4673 28.466 81.8153 28.754C82.1753 29.03 82.4633 29.39 82.6793 29.834C82.8953 30.278 83.0033 30.836 83.0033 31.508C83.0033 32.636 82.6013 33.53 81.7973 34.19C81.0053 34.85 79.9313 35.18 78.5753 35.18ZM86.1112 35V22.76H88.0912V35H86.1112ZM84.0412 28.16V26.36H90.1612V28.16H84.0412ZM94.9719 35.18C94.1919 35.18 93.4839 34.982 92.8479 34.586C92.2239 34.19 91.7259 33.656 91.3539 32.984C90.9939 32.3 90.8139 31.538 90.8139 30.698C90.8139 29.846 90.9939 29.084 91.3539 28.412C91.7259 27.728 92.2239 27.188 92.8479 26.792C93.4839 26.384 94.1919 26.18 94.9719 26.18C95.6319 26.18 96.2139 26.324 96.7179 26.612C97.2339 26.888 97.6419 27.272 97.9419 27.764C98.2419 28.256 98.3919 28.814 98.3919 29.438V31.922C98.3919 32.546 98.2419 33.104 97.9419 33.596C97.6539 34.088 97.2519 34.478 96.7359 34.766C96.2199 35.042 95.6319 35.18 94.9719 35.18ZM95.2959 33.308C96.0279 33.308 96.6159 33.062 97.0599 32.57C97.5159 32.078 97.7439 31.448 97.7439 30.68C97.7439 30.164 97.6419 29.708 97.4379 29.312C97.2339 28.916 96.9459 28.61 96.5739 28.394C96.2139 28.166 95.7879 28.052 95.2959 28.052C94.8159 28.052 94.3899 28.166 94.0179 28.394C93.6579 28.61 93.3699 28.916 93.1539 29.312C92.9499 29.708 92.8479 30.164 92.8479 30.68C92.8479 31.196 92.9499 31.652 93.1539 32.048C93.3699 32.444 93.6579 32.756 94.0179 32.984C94.3899 33.2 94.8159 33.308 95.2959 33.308ZM97.6179 35V32.678L97.9599 30.572L97.6179 28.484V26.36H99.5979V35H97.6179ZM101.795 35V26.36H103.775V35H101.795ZM103.775 30.194L103.091 29.852C103.091 28.76 103.331 27.878 103.811 27.206C104.303 26.522 105.041 26.18 106.025 26.18C106.457 26.18 106.847 26.258 107.195 26.414C107.543 26.57 107.867 26.822 108.167 27.17L106.871 28.502C106.715 28.334 106.541 28.214 106.349 28.142C106.157 28.07 105.935 28.034 105.683 28.034C105.131 28.034 104.675 28.208 104.315 28.556C103.955 28.904 103.775 29.45 103.775 30.194ZM110.457 35V22.76H112.437V35H110.457ZM108.387 28.16V26.36H114.507V28.16H108.387Z" fill="white"/>
<path d="M133.1 35.5C132.803 35.5001 132.513 35.4122 132.266 35.2474C132.02 35.0826 131.827 34.8483 131.714 34.5741C131.6 34.2999 131.57 33.9982 131.628 33.7072C131.686 33.4161 131.829 33.1488 132.039 32.939L136.625 28.354C136.672 28.3076 136.709 28.2524 136.734 28.1916C136.759 28.1309 136.772 28.0658 136.772 28C136.772 27.9342 136.759 27.8691 136.734 27.8084C136.709 27.7476 136.672 27.6925 136.625 27.646L132.043 23.061C131.762 22.7797 131.604 22.3982 131.603 22.0004C131.603 21.6025 131.761 21.2209 132.043 20.9395C132.324 20.6581 132.705 20.5 133.103 20.4999C133.501 20.4998 133.883 20.6577 134.164 20.939L138.75 25.525C139.405 26.182 139.773 27.0721 139.773 28C139.773 28.9279 139.405 29.818 138.75 30.475L134.164 35.061C134.024 35.2006 133.858 35.3113 133.676 35.3866C133.493 35.462 133.298 35.5005 133.1 35.5Z" fill="white"/>
<path d="M126.1 35.5C125.803 35.5001 125.513 35.4122 125.266 35.2474C125.02 35.0826 124.827 34.8483 124.714 34.5741C124.6 34.2999 124.57 33.9982 124.628 33.7072C124.686 33.4161 124.829 33.1488 125.039 32.939L129.982 28L125.043 23.061C124.762 22.7797 124.604 22.3982 124.603 22.0004C124.603 21.6025 124.761 21.2209 125.043 20.9395C125.324 20.6581 125.705 20.5 126.103 20.4999C126.501 20.4998 126.883 20.6577 127.164 20.939L133.164 26.939C133.303 27.0783 133.414 27.2437 133.489 27.4258C133.565 27.6078 133.604 27.8029 133.604 28C133.604 28.1971 133.565 28.3922 133.489 28.5743C133.414 28.7563 133.303 28.9217 133.164 29.061L127.164 35.061C127.024 35.2006 126.858 35.3113 126.676 35.3866C126.493 35.462 126.298 35.5005 126.1 35.5Z" fill="white" fill-opacity="0.5"/>
</svg>
