<svg width="40" height="40" viewBox="0 0 40 40" fill="none" xmlns="http://www.w3.org/2000/svg">
<rect width="40" height="40" rx="20" fill="white"/>
<path opacity="0.4" d="M23 15.2V24.79C23 28 21 30 17.8 30H15.21C12.01 30 10.01 28 10.01 24.8V15.2C10 12 12 10 15.2 10H17.8C21 10 23 12 23 15.2Z" fill="#FD6C02"/>
<path d="M26.43 16.1195L29.78 19.4695C30.07 19.7595 30.07 20.2395 29.78 20.5295L26.43 23.8795C26.14 24.1695 25.66 24.1695 25.37 23.8795C25.08 23.5895 25.08 23.1095 25.37 22.8195L27.44 20.7495H16.75C16.34 20.7495 16 20.4095 16 19.9995C16 19.5895 16.34 19.2495 16.75 19.2495H27.44L25.37 17.1795C25.22 17.0295 25.15 16.8395 25.15 16.6495C25.15 16.4595 25.22 16.2595 25.37 16.1195C25.66 15.8195 26.13 15.8195 26.43 16.1195Z" fill="#FD6C02"/>
</svg>
