<svg width="400" height="234" viewBox="0 0 400 234" fill="none" xmlns="http://www.w3.org/2000/svg">
<rect x="0.75" y="0.75" width="398.5" height="232.5" rx="13.25" fill="#F5F5F5"/>
<rect x="0.75" y="0.75" width="398.5" height="232.5" rx="13.25" stroke="#FD6C02" stroke-width="1.5" stroke-dasharray="4 4"/>
<rect x="160" y="30" width="80" height="80" rx="40" fill="#FFEADC"/>
<g clip-path="url(#clip0_315_539)">
<mask id="mask0_315_539" style="mask-type:luminance" maskUnits="userSpaceOnUse" x="182" y="52" width="36" height="36">
<path d="M218 52H182V88H218V52Z" fill="white"/>
</mask>
<g mask="url(#mask0_315_539)">
<path d="M195.5 68.125C193.22 68.125 191.375 66.28 191.375 64C191.375 61.72 193.22 59.875 195.5 59.875C197.78 59.875 199.625 61.72 199.625 64C199.625 66.28 197.78 68.125 195.5 68.125ZM195.5 62.125C194.465 62.125 193.625 62.965 193.625 64C193.625 65.035 194.465 65.875 195.5 65.875C196.535 65.875 197.375 65.035 197.375 64C197.375 62.965 196.535 62.125 195.5 62.125Z" fill="#FD6C02"/>
<path d="M204.5 86.125H195.5C187.355 86.125 183.875 82.645 183.875 74.5V65.5C183.875 57.355 187.355 53.875 195.5 53.875H201.5C202.115 53.875 202.625 54.385 202.625 55C202.625 55.615 202.115 56.125 201.5 56.125H195.5C188.585 56.125 186.125 58.585 186.125 65.5V74.5C186.125 81.415 188.585 83.875 195.5 83.875H204.5C211.415 83.875 213.875 81.415 213.875 74.5V67C213.875 66.385 214.385 65.875 215 65.875C215.615 65.875 216.125 66.385 216.125 67V74.5C216.125 82.645 212.645 86.125 204.5 86.125Z" fill="#FD6C02"/>
<path d="M213.875 60.625H205.625C205.01 60.625 204.5 60.115 204.5 59.5C204.5 58.885 205.01 58.375 205.625 58.375H213.875C214.49 58.375 215 58.885 215 59.5C215 60.115 214.49 60.625 213.875 60.625Z" fill="#FD6C02"/>
<path d="M209.75 64.75C209.135 64.75 208.625 64.24 208.625 63.625V55.375C208.625 54.76 209.135 54.25 209.75 54.25C210.365 54.25 210.875 54.76 210.875 55.375V63.625C210.875 64.24 210.365 64.75 209.75 64.75Z" fill="#FD6C02"/>
<path d="M186.005 81.5494C185.645 81.5494 185.285 81.3694 185.075 81.0544C184.73 80.5444 184.865 79.8394 185.375 79.4944L192.77 74.5294C194.39 73.4494 196.625 73.5694 198.095 74.8144L198.59 75.2494C199.34 75.8944 200.615 75.8944 201.35 75.2494L207.59 69.8944C209.195 68.5294 211.685 68.5294 213.29 69.8944L215.735 71.9944C216.2 72.3994 216.26 73.1044 215.855 73.5844C215.45 74.0494 214.745 74.1094 214.265 73.7044L211.82 71.6044C211.07 70.9594 209.795 70.9594 209.06 71.6044L202.82 76.9594C201.23 78.3244 198.725 78.3244 197.12 76.9594L196.625 76.5244C195.935 75.9394 194.795 75.8794 194.03 76.4044L186.65 81.3694C186.44 81.4894 186.215 81.5494 186.005 81.5494Z" fill="#FD6C02"/>
</g>
</g>
<path d="M127.386 135.14C126.611 135.14 125.921 134.972 125.314 134.636C124.717 134.291 124.245 133.819 123.9 133.222C123.555 132.625 123.382 131.948 123.382 131.192V125.158H125.286V131.248C125.286 131.687 125.375 132.065 125.552 132.382C125.739 132.699 125.991 132.947 126.308 133.124C126.635 133.292 126.994 133.376 127.386 133.376C127.787 133.376 128.142 133.292 128.45 133.124C128.758 132.947 129.001 132.699 129.178 132.382C129.365 132.065 129.458 131.691 129.458 131.262V125.158H131.376V131.206C131.376 131.962 131.203 132.639 130.858 133.236C130.513 133.824 130.041 134.291 129.444 134.636C128.856 134.972 128.17 135.14 127.386 135.14ZM136.812 135.14C136.327 135.14 135.888 135.042 135.496 134.846C135.104 134.641 134.791 134.365 134.558 134.02C134.325 133.675 134.199 133.278 134.18 132.83V130.436C134.199 129.988 134.325 129.591 134.558 129.246C134.801 128.891 135.113 128.611 135.496 128.406C135.888 128.201 136.327 128.098 136.812 128.098C137.437 128.098 137.997 128.252 138.492 128.56C138.987 128.868 139.374 129.288 139.654 129.82C139.943 130.352 140.088 130.954 140.088 131.626C140.088 132.289 139.943 132.886 139.654 133.418C139.374 133.95 138.987 134.37 138.492 134.678C137.997 134.986 137.437 135.14 136.812 135.14ZM133.06 137.828V128.238H134.894V130.016L134.586 131.654L134.88 133.292V137.828H133.06ZM136.49 133.446C136.826 133.446 137.125 133.371 137.386 133.222C137.647 133.063 137.848 132.849 137.988 132.578C138.137 132.298 138.212 131.976 138.212 131.612C138.212 131.257 138.137 130.945 137.988 130.674C137.848 130.394 137.647 130.179 137.386 130.03C137.125 129.871 136.826 129.792 136.49 129.792C136.163 129.792 135.869 129.871 135.608 130.03C135.347 130.179 135.141 130.394 134.992 130.674C134.852 130.945 134.782 131.257 134.782 131.612C134.782 131.976 134.852 132.298 134.992 132.578C135.141 132.849 135.342 133.063 135.594 133.222C135.855 133.371 136.154 133.446 136.49 133.446ZM141.291 135V124.878H143.125V135H141.291ZM147.928 135.14C147.246 135.14 146.63 134.986 146.08 134.678C145.538 134.361 145.104 133.936 144.778 133.404C144.46 132.863 144.302 132.261 144.302 131.598C144.302 130.935 144.46 130.343 144.778 129.82C145.095 129.288 145.529 128.868 146.08 128.56C146.63 128.243 147.242 128.084 147.914 128.084C148.604 128.084 149.22 128.243 149.762 128.56C150.312 128.868 150.746 129.288 151.064 129.82C151.381 130.343 151.54 130.935 151.54 131.598C151.54 132.261 151.381 132.863 151.064 133.404C150.746 133.936 150.312 134.361 149.762 134.678C149.22 134.986 148.609 135.14 147.928 135.14ZM147.914 133.432C148.259 133.432 148.562 133.357 148.824 133.208C149.094 133.049 149.3 132.835 149.44 132.564C149.589 132.284 149.664 131.967 149.664 131.612C149.664 131.257 149.589 130.945 149.44 130.674C149.29 130.403 149.085 130.193 148.824 130.044C148.562 129.885 148.259 129.806 147.914 129.806C147.578 129.806 147.279 129.885 147.018 130.044C146.756 130.193 146.551 130.403 146.402 130.674C146.252 130.945 146.178 131.257 146.178 131.612C146.178 131.967 146.252 132.284 146.402 132.564C146.551 132.835 146.756 133.049 147.018 133.208C147.279 133.357 147.578 133.432 147.914 133.432ZM155.548 135.14C154.932 135.14 154.377 134.986 153.882 134.678C153.388 134.37 153 133.95 152.72 133.418C152.44 132.886 152.3 132.289 152.3 131.626C152.3 130.954 152.44 130.352 152.72 129.82C153 129.288 153.388 128.868 153.882 128.56C154.377 128.252 154.932 128.098 155.548 128.098C156.034 128.098 156.468 128.196 156.85 128.392C157.233 128.588 157.536 128.863 157.76 129.218C157.994 129.563 158.12 129.955 158.138 130.394V132.83C158.12 133.278 157.994 133.675 157.76 134.02C157.536 134.365 157.233 134.641 156.85 134.846C156.468 135.042 156.034 135.14 155.548 135.14ZM155.884 133.446C156.398 133.446 156.813 133.278 157.13 132.942C157.448 132.597 157.606 132.153 157.606 131.612C157.606 131.257 157.532 130.945 157.382 130.674C157.242 130.394 157.042 130.179 156.78 130.03C156.528 129.871 156.23 129.792 155.884 129.792C155.548 129.792 155.25 129.871 154.988 130.03C154.736 130.179 154.536 130.394 154.386 130.674C154.246 130.945 154.176 131.257 154.176 131.612C154.176 131.976 154.246 132.298 154.386 132.578C154.536 132.849 154.736 133.063 154.988 133.222C155.25 133.371 155.548 133.446 155.884 133.446ZM157.508 135V133.18L157.802 131.528L157.508 129.904V128.238H159.328V135H157.508ZM163.807 135.14C163.181 135.14 162.621 134.986 162.127 134.678C161.632 134.37 161.24 133.95 160.951 133.418C160.671 132.886 160.531 132.289 160.531 131.626C160.531 130.954 160.671 130.352 160.951 129.82C161.24 129.288 161.627 128.868 162.113 128.56C162.607 128.252 163.172 128.098 163.807 128.098C164.292 128.098 164.726 128.196 165.109 128.392C165.501 128.588 165.813 128.863 166.047 129.218C166.289 129.563 166.42 129.955 166.439 130.394V132.802C166.42 133.241 166.294 133.637 166.061 133.992C165.827 134.347 165.515 134.627 165.123 134.832C164.731 135.037 164.292 135.14 163.807 135.14ZM164.115 133.446C164.46 133.446 164.759 133.371 165.011 133.222C165.272 133.063 165.473 132.849 165.613 132.578C165.762 132.298 165.837 131.976 165.837 131.612C165.837 131.257 165.762 130.945 165.613 130.674C165.473 130.394 165.272 130.179 165.011 130.03C164.759 129.871 164.465 129.792 164.129 129.792C163.783 129.792 163.48 129.871 163.219 130.03C162.967 130.189 162.766 130.403 162.617 130.674C162.477 130.945 162.407 131.257 162.407 131.612C162.407 131.976 162.477 132.298 162.617 132.578C162.766 132.849 162.971 133.063 163.233 133.222C163.494 133.371 163.788 133.446 164.115 133.446ZM167.559 135H165.739V133.18L166.033 131.528L165.725 129.904V124.878H167.559V135ZM172.112 135V125.158H173.456L177.446 131.542H176.676L180.652 125.158H181.996V135H180.106V128.42L180.47 128.532L177.698 132.984H176.41L173.638 128.532L174.016 128.42V135H172.112ZM186.638 135.14C186.022 135.14 185.467 134.986 184.972 134.678C184.477 134.37 184.09 133.95 183.81 133.418C183.53 132.886 183.39 132.289 183.39 131.626C183.39 130.954 183.53 130.352 183.81 129.82C184.09 129.288 184.477 128.868 184.972 128.56C185.467 128.252 186.022 128.098 186.638 128.098C187.123 128.098 187.557 128.196 187.94 128.392C188.323 128.588 188.626 128.863 188.85 129.218C189.083 129.563 189.209 129.955 189.228 130.394V132.83C189.209 133.278 189.083 133.675 188.85 134.02C188.626 134.365 188.323 134.641 187.94 134.846C187.557 135.042 187.123 135.14 186.638 135.14ZM186.974 133.446C187.487 133.446 187.903 133.278 188.22 132.942C188.537 132.597 188.696 132.153 188.696 131.612C188.696 131.257 188.621 130.945 188.472 130.674C188.332 130.394 188.131 130.179 187.87 130.03C187.618 129.871 187.319 129.792 186.974 129.792C186.638 129.792 186.339 129.871 186.078 130.03C185.826 130.179 185.625 130.394 185.476 130.674C185.336 130.945 185.266 131.257 185.266 131.612C185.266 131.976 185.336 132.298 185.476 132.578C185.625 132.849 185.826 133.063 186.078 133.222C186.339 133.371 186.638 133.446 186.974 133.446ZM188.598 135V133.18L188.892 131.528L188.598 129.904V128.238H190.418V135H188.598ZM192.041 135V128.238H193.889V135H192.041ZM192.965 127.146C192.666 127.146 192.419 127.048 192.223 126.852C192.027 126.647 191.929 126.395 191.929 126.096C191.929 125.807 192.027 125.559 192.223 125.354C192.419 125.149 192.666 125.046 192.965 125.046C193.273 125.046 193.52 125.149 193.707 125.354C193.903 125.559 194.001 125.807 194.001 126.096C194.001 126.395 193.903 126.647 193.707 126.852C193.52 127.048 193.273 127.146 192.965 127.146ZM200.063 135V131.122C200.063 130.721 199.937 130.394 199.685 130.142C199.433 129.89 199.107 129.764 198.705 129.764C198.444 129.764 198.211 129.82 198.005 129.932C197.8 130.044 197.637 130.203 197.515 130.408C197.403 130.613 197.347 130.851 197.347 131.122L196.633 130.758C196.633 130.226 196.745 129.764 196.969 129.372C197.203 128.971 197.52 128.658 197.921 128.434C198.332 128.21 198.794 128.098 199.307 128.098C199.802 128.098 200.245 128.224 200.637 128.476C201.029 128.719 201.337 129.041 201.561 129.442C201.785 129.834 201.897 130.259 201.897 130.716V135H200.063ZM195.513 135V128.238H197.347V135H195.513ZM206.305 135V125.158H208.209V135H206.305ZM210.033 135V128.238H211.867V135H210.033ZM214.443 135V131.01C214.443 130.618 214.317 130.315 214.065 130.1C213.822 129.876 213.519 129.764 213.155 129.764C212.912 129.764 212.693 129.815 212.497 129.918C212.301 130.011 212.147 130.151 212.035 130.338C211.923 130.525 211.867 130.749 211.867 131.01L211.153 130.66C211.153 130.137 211.265 129.685 211.489 129.302C211.722 128.919 212.035 128.625 212.427 128.42C212.819 128.205 213.262 128.098 213.757 128.098C214.223 128.098 214.648 128.205 215.031 128.42C215.413 128.625 215.717 128.919 215.941 129.302C216.165 129.675 216.277 130.128 216.277 130.66V135H214.443ZM218.853 135V131.01C218.853 130.618 218.727 130.315 218.475 130.1C218.232 129.876 217.929 129.764 217.565 129.764C217.331 129.764 217.112 129.815 216.907 129.918C216.711 130.011 216.557 130.151 216.445 130.338C216.333 130.525 216.277 130.749 216.277 131.01L215.227 130.758C215.264 130.217 215.409 129.75 215.661 129.358C215.913 128.957 216.244 128.649 216.655 128.434C217.065 128.21 217.523 128.098 218.027 128.098C218.531 128.098 218.983 128.205 219.385 128.42C219.786 128.625 220.103 128.924 220.337 129.316C220.57 129.708 220.687 130.175 220.687 130.716V135H218.853ZM225.001 135.14C224.385 135.14 223.83 134.986 223.335 134.678C222.841 134.37 222.453 133.95 222.173 133.418C221.893 132.886 221.753 132.289 221.753 131.626C221.753 130.954 221.893 130.352 222.173 129.82C222.453 129.288 222.841 128.868 223.335 128.56C223.83 128.252 224.385 128.098 225.001 128.098C225.487 128.098 225.921 128.196 226.303 128.392C226.686 128.588 226.989 128.863 227.213 129.218C227.447 129.563 227.573 129.955 227.591 130.394V132.83C227.573 133.278 227.447 133.675 227.213 134.02C226.989 134.365 226.686 134.641 226.303 134.846C225.921 135.042 225.487 135.14 225.001 135.14ZM225.337 133.446C225.851 133.446 226.266 133.278 226.583 132.942C226.901 132.597 227.059 132.153 227.059 131.612C227.059 131.257 226.985 130.945 226.835 130.674C226.695 130.394 226.495 130.179 226.233 130.03C225.981 129.871 225.683 129.792 225.337 129.792C225.001 129.792 224.703 129.871 224.441 130.03C224.189 130.179 223.989 130.394 223.839 130.674C223.699 130.945 223.629 131.257 223.629 131.612C223.629 131.976 223.699 132.298 223.839 132.578C223.989 132.849 224.189 133.063 224.441 133.222C224.703 133.371 225.001 133.446 225.337 133.446ZM226.961 135V133.18L227.255 131.528L226.961 129.904V128.238H228.781V135H226.961ZM233.232 137.996C232.513 137.996 231.878 137.865 231.328 137.604C230.777 137.352 230.338 136.993 230.012 136.526L231.174 135.364C231.435 135.672 231.724 135.905 232.042 136.064C232.368 136.232 232.76 136.316 233.218 136.316C233.787 136.316 234.235 136.171 234.562 135.882C234.898 135.593 235.066 135.191 235.066 134.678V132.984L235.374 131.5L235.08 130.016V128.238H236.9V134.65C236.9 135.322 236.741 135.905 236.424 136.4C236.116 136.904 235.686 137.296 235.136 137.576C234.585 137.856 233.95 137.996 233.232 137.996ZM233.148 134.818C232.541 134.818 231.995 134.673 231.51 134.384C231.024 134.085 230.642 133.679 230.362 133.166C230.091 132.653 229.956 132.079 229.956 131.444C229.956 130.809 230.091 130.24 230.362 129.736C230.642 129.232 231.024 128.835 231.51 128.546C231.995 128.247 232.541 128.098 233.148 128.098C233.652 128.098 234.095 128.196 234.478 128.392C234.87 128.588 235.178 128.859 235.402 129.204C235.626 129.54 235.747 129.937 235.766 130.394V132.522C235.747 132.97 235.621 133.371 235.388 133.726C235.164 134.071 234.856 134.342 234.464 134.538C234.081 134.725 233.642 134.818 233.148 134.818ZM233.512 133.152C233.848 133.152 234.137 133.082 234.38 132.942C234.632 132.793 234.828 132.592 234.968 132.34C235.108 132.079 235.178 131.785 235.178 131.458C235.178 131.122 235.108 130.828 234.968 130.576C234.828 130.324 234.632 130.128 234.38 129.988C234.137 129.839 233.848 129.764 233.512 129.764C233.176 129.764 232.882 129.839 232.63 129.988C232.378 130.128 232.182 130.329 232.042 130.59C231.902 130.842 231.832 131.131 231.832 131.458C231.832 131.775 231.902 132.065 232.042 132.326C232.182 132.578 232.378 132.779 232.63 132.928C232.882 133.077 233.176 133.152 233.512 133.152ZM241.745 135.14C241.036 135.14 240.406 134.991 239.855 134.692C239.305 134.384 238.866 133.964 238.539 133.432C238.222 132.9 238.063 132.293 238.063 131.612C238.063 130.94 238.217 130.343 238.525 129.82C238.843 129.288 239.272 128.868 239.813 128.56C240.355 128.243 240.957 128.084 241.619 128.084C242.273 128.084 242.847 128.233 243.341 128.532C243.845 128.821 244.237 129.223 244.517 129.736C244.807 130.24 244.951 130.814 244.951 131.458C244.951 131.579 244.942 131.705 244.923 131.836C244.914 131.957 244.891 132.097 244.853 132.256L239.169 132.27V130.898L243.999 130.884L243.257 131.458C243.239 131.057 243.164 130.721 243.033 130.45C242.912 130.179 242.73 129.974 242.487 129.834C242.254 129.685 241.965 129.61 241.619 129.61C241.255 129.61 240.938 129.694 240.667 129.862C240.397 130.021 240.187 130.249 240.037 130.548C239.897 130.837 239.827 131.183 239.827 131.584C239.827 131.995 239.902 132.354 240.051 132.662C240.21 132.961 240.434 133.194 240.723 133.362C241.013 133.521 241.349 133.6 241.731 133.6C242.077 133.6 242.389 133.544 242.669 133.432C242.949 133.311 243.192 133.133 243.397 132.9L244.475 133.978C244.149 134.361 243.747 134.65 243.271 134.846C242.805 135.042 242.296 135.14 241.745 135.14ZM253.37 135V131.122C253.37 130.721 253.244 130.394 252.992 130.142C252.74 129.89 252.413 129.764 252.012 129.764C251.75 129.764 251.517 129.82 251.312 129.932C251.106 130.044 250.943 130.203 250.822 130.408C250.71 130.613 250.654 130.851 250.654 131.122L249.94 130.758C249.94 130.226 250.052 129.764 250.276 129.372C250.5 128.971 250.808 128.658 251.2 128.434C251.601 128.21 252.058 128.098 252.572 128.098C253.085 128.098 253.538 128.21 253.93 128.434C254.331 128.658 254.644 128.966 254.868 129.358C255.092 129.75 255.204 130.203 255.204 130.716V135H253.37ZM248.82 135V124.878H250.654V135H248.82ZM259.915 135.14C259.206 135.14 258.576 134.991 258.025 134.692C257.474 134.384 257.036 133.964 256.709 133.432C256.392 132.9 256.233 132.293 256.233 131.612C256.233 130.94 256.387 130.343 256.695 129.82C257.012 129.288 257.442 128.868 257.983 128.56C258.524 128.243 259.126 128.084 259.789 128.084C260.442 128.084 261.016 128.233 261.511 128.532C262.015 128.821 262.407 129.223 262.687 129.736C262.976 130.24 263.121 130.814 263.121 131.458C263.121 131.579 263.112 131.705 263.093 131.836C263.084 131.957 263.06 132.097 263.023 132.256L257.339 132.27V130.898L262.169 130.884L261.427 131.458C261.408 131.057 261.334 130.721 261.203 130.45C261.082 130.179 260.9 129.974 260.657 129.834C260.424 129.685 260.134 129.61 259.789 129.61C259.425 129.61 259.108 129.694 258.837 129.862C258.566 130.021 258.356 130.249 258.207 130.548C258.067 130.837 257.997 131.183 257.997 131.584C257.997 131.995 258.072 132.354 258.221 132.662C258.38 132.961 258.604 133.194 258.893 133.362C259.182 133.521 259.518 133.6 259.901 133.6C260.246 133.6 260.559 133.544 260.839 133.432C261.119 133.311 261.362 133.133 261.567 132.9L262.645 133.978C262.318 134.361 261.917 134.65 261.441 134.846C260.974 135.042 260.466 135.14 259.915 135.14ZM264.255 135V128.238H266.089V135H264.255ZM266.089 131.262L265.375 130.786C265.459 129.955 265.702 129.302 266.103 128.826C266.505 128.341 267.083 128.098 267.839 128.098C268.166 128.098 268.46 128.154 268.721 128.266C268.983 128.369 269.221 128.541 269.435 128.784L268.287 130.1C268.185 129.988 268.059 129.904 267.909 129.848C267.769 129.792 267.606 129.764 267.419 129.764C267.027 129.764 266.705 129.89 266.453 130.142C266.211 130.385 266.089 130.758 266.089 131.262ZM273.122 135.14C272.413 135.14 271.783 134.991 271.232 134.692C270.682 134.384 270.243 133.964 269.916 133.432C269.599 132.9 269.44 132.293 269.44 131.612C269.44 130.94 269.594 130.343 269.902 129.82C270.22 129.288 270.649 128.868 271.19 128.56C271.732 128.243 272.334 128.084 272.996 128.084C273.65 128.084 274.224 128.233 274.718 128.532C275.222 128.821 275.614 129.223 275.894 129.736C276.184 130.24 276.328 130.814 276.328 131.458C276.328 131.579 276.319 131.705 276.3 131.836C276.291 131.957 276.268 132.097 276.23 132.256L270.546 132.27V130.898L275.376 130.884L274.634 131.458C274.616 131.057 274.541 130.721 274.41 130.45C274.289 130.179 274.107 129.974 273.864 129.834C273.631 129.685 273.342 129.61 272.996 129.61C272.632 129.61 272.315 129.694 272.044 129.862C271.774 130.021 271.564 130.249 271.414 130.548C271.274 130.837 271.204 131.183 271.204 131.584C271.204 131.995 271.279 132.354 271.428 132.662C271.587 132.961 271.811 133.194 272.1 133.362C272.39 133.521 272.726 133.6 273.108 133.6C273.454 133.6 273.766 133.544 274.046 133.432C274.326 133.311 274.569 133.133 274.774 132.9L275.852 133.978C275.526 134.361 275.124 134.65 274.648 134.846C274.182 135.042 273.673 135.14 273.122 135.14Z" fill="#120B06"/>
<path d="M109.072 155.14C108.372 155.14 107.719 155.009 107.112 154.748C106.505 154.487 105.973 154.127 105.516 153.67C105.059 153.203 104.699 152.667 104.438 152.06C104.186 151.444 104.06 150.786 104.06 150.086C104.06 149.386 104.186 148.733 104.438 148.126C104.699 147.519 105.054 146.987 105.502 146.53C105.959 146.063 106.487 145.704 107.084 145.452C107.691 145.191 108.344 145.06 109.044 145.06C109.744 145.06 110.393 145.191 110.99 145.452C111.597 145.704 112.129 146.063 112.586 146.53C113.043 146.987 113.398 147.524 113.65 148.14C113.911 148.747 114.042 149.4 114.042 150.1C114.042 150.8 113.911 151.458 113.65 152.074C113.398 152.681 113.043 153.213 112.586 153.67C112.138 154.127 111.611 154.487 111.004 154.748C110.407 155.009 109.763 155.14 109.072 155.14ZM109.044 153.6C109.707 153.6 110.285 153.451 110.78 153.152C111.284 152.853 111.676 152.443 111.956 151.92C112.245 151.388 112.39 150.777 112.39 150.086C112.39 149.573 112.306 149.106 112.138 148.686C111.979 148.257 111.751 147.888 111.452 147.58C111.153 147.263 110.799 147.02 110.388 146.852C109.987 146.684 109.539 146.6 109.044 146.6C108.391 146.6 107.812 146.749 107.308 147.048C106.813 147.337 106.421 147.743 106.132 148.266C105.852 148.789 105.712 149.395 105.712 150.086C105.712 150.599 105.791 151.075 105.95 151.514C106.118 151.943 106.347 152.312 106.636 152.62C106.935 152.928 107.289 153.171 107.7 153.348C108.111 153.516 108.559 153.6 109.044 153.6ZM120.075 155V151.122C120.075 150.674 119.931 150.305 119.641 150.016C119.361 149.727 118.997 149.582 118.549 149.582C118.251 149.582 117.985 149.647 117.751 149.778C117.518 149.909 117.336 150.091 117.205 150.324C117.075 150.557 117.009 150.823 117.009 151.122L116.407 150.786C116.407 150.273 116.519 149.82 116.743 149.428C116.967 149.027 117.275 148.714 117.667 148.49C118.069 148.257 118.517 148.14 119.011 148.14C119.515 148.14 119.963 148.271 120.355 148.532C120.747 148.784 121.055 149.115 121.279 149.526C121.503 149.927 121.615 150.347 121.615 150.786V155H120.075ZM115.469 155V148.28H117.009V155H115.469ZM123.18 155V144.92H124.72V155H123.18ZM128.604 155.07L125.734 148.28H127.428L129.388 153.264H128.898L130.97 148.28H132.678L129.556 155.07H128.604ZM126.602 157.8L128.688 153.502L129.556 155.07L128.31 157.8H126.602ZM138.681 155.14C138.308 155.14 137.948 155.093 137.603 155C137.258 154.897 136.94 154.757 136.651 154.58C136.362 154.393 136.11 154.169 135.895 153.908L136.875 152.928C137.108 153.199 137.374 153.404 137.673 153.544C137.981 153.675 138.326 153.74 138.709 153.74C139.054 153.74 139.316 153.689 139.493 153.586C139.67 153.483 139.759 153.334 139.759 153.138C139.759 152.933 139.675 152.774 139.507 152.662C139.339 152.55 139.12 152.457 138.849 152.382C138.588 152.298 138.308 152.214 138.009 152.13C137.72 152.046 137.44 151.934 137.169 151.794C136.908 151.645 136.693 151.444 136.525 151.192C136.357 150.94 136.273 150.613 136.273 150.212C136.273 149.783 136.371 149.414 136.567 149.106C136.772 148.798 137.057 148.56 137.421 148.392C137.794 148.224 138.238 148.14 138.751 148.14C139.292 148.14 139.768 148.238 140.179 148.434C140.599 148.621 140.949 148.905 141.229 149.288L140.249 150.268C140.053 150.025 139.829 149.843 139.577 149.722C139.325 149.601 139.036 149.54 138.709 149.54C138.401 149.54 138.163 149.587 137.995 149.68C137.827 149.773 137.743 149.909 137.743 150.086C137.743 150.273 137.827 150.417 137.995 150.52C138.163 150.623 138.378 150.711 138.639 150.786C138.91 150.861 139.19 150.945 139.479 151.038C139.778 151.122 140.058 151.243 140.319 151.402C140.59 151.551 140.809 151.757 140.977 152.018C141.145 152.27 141.229 152.601 141.229 153.012C141.229 153.665 141 154.183 140.543 154.566C140.086 154.949 139.465 155.14 138.681 155.14ZM145.257 155.14C144.687 155.14 144.179 155.014 143.731 154.762C143.292 154.51 142.947 154.165 142.695 153.726C142.452 153.278 142.331 152.765 142.331 152.186V148.28H143.871V152.116C143.871 152.443 143.922 152.723 144.025 152.956C144.137 153.18 144.295 153.353 144.501 153.474C144.715 153.595 144.967 153.656 145.257 153.656C145.705 153.656 146.045 153.525 146.279 153.264C146.521 152.993 146.643 152.611 146.643 152.116V148.28H148.183V152.186C148.183 152.774 148.057 153.292 147.805 153.74C147.562 154.179 147.221 154.524 146.783 154.776C146.344 155.019 145.835 155.14 145.257 155.14ZM153.329 155.14C152.816 155.14 152.358 155.033 151.957 154.818C151.556 154.594 151.238 154.291 151.005 153.908C150.781 153.525 150.669 153.091 150.669 152.606V150.674C150.669 150.189 150.786 149.755 151.019 149.372C151.252 148.989 151.57 148.691 151.971 148.476C152.372 148.252 152.825 148.14 153.329 148.14C153.936 148.14 154.482 148.299 154.967 148.616C155.462 148.924 155.849 149.344 156.129 149.876C156.418 150.399 156.563 150.991 156.563 151.654C156.563 152.307 156.418 152.9 156.129 153.432C155.849 153.955 155.462 154.37 154.967 154.678C154.482 154.986 153.936 155.14 153.329 155.14ZM149.731 157.8V148.28H151.271V150.086L151.005 151.724L151.271 153.348V157.8H149.731ZM153.077 153.684C153.45 153.684 153.777 153.6 154.057 153.432C154.346 153.255 154.57 153.012 154.729 152.704C154.897 152.396 154.981 152.041 154.981 151.64C154.981 151.239 154.897 150.884 154.729 150.576C154.57 150.268 154.346 150.03 154.057 149.862C153.777 149.685 153.45 149.596 153.077 149.596C152.704 149.596 152.372 149.685 152.083 149.862C151.794 150.03 151.57 150.268 151.411 150.576C151.252 150.884 151.173 151.239 151.173 151.64C151.173 152.041 151.252 152.396 151.411 152.704C151.57 153.012 151.794 153.255 152.083 153.432C152.372 153.6 152.704 153.684 153.077 153.684ZM161.45 155.14C160.937 155.14 160.479 155.033 160.078 154.818C159.677 154.594 159.359 154.291 159.126 153.908C158.902 153.525 158.79 153.091 158.79 152.606V150.674C158.79 150.189 158.907 149.755 159.14 149.372C159.373 148.989 159.691 148.691 160.092 148.476C160.493 148.252 160.946 148.14 161.45 148.14C162.057 148.14 162.603 148.299 163.088 148.616C163.583 148.924 163.97 149.344 164.25 149.876C164.539 150.399 164.684 150.991 164.684 151.654C164.684 152.307 164.539 152.9 164.25 153.432C163.97 153.955 163.583 154.37 163.088 154.678C162.603 154.986 162.057 155.14 161.45 155.14ZM157.852 157.8V148.28H159.392V150.086L159.126 151.724L159.392 153.348V157.8H157.852ZM161.198 153.684C161.571 153.684 161.898 153.6 162.178 153.432C162.467 153.255 162.691 153.012 162.85 152.704C163.018 152.396 163.102 152.041 163.102 151.64C163.102 151.239 163.018 150.884 162.85 150.576C162.691 150.268 162.467 150.03 162.178 149.862C161.898 149.685 161.571 149.596 161.198 149.596C160.825 149.596 160.493 149.685 160.204 149.862C159.915 150.03 159.691 150.268 159.532 150.576C159.373 150.884 159.294 151.239 159.294 151.64C159.294 152.041 159.373 152.396 159.532 152.704C159.691 153.012 159.915 153.255 160.204 153.432C160.493 153.6 160.825 153.684 161.198 153.684ZM169.053 155.14C168.4 155.14 167.807 154.986 167.275 154.678C166.743 154.361 166.318 153.936 166.001 153.404C165.693 152.872 165.539 152.279 165.539 151.626C165.539 150.973 165.693 150.385 166.001 149.862C166.318 149.339 166.743 148.924 167.275 148.616C167.807 148.299 168.4 148.14 169.053 148.14C169.716 148.14 170.313 148.294 170.845 148.602C171.377 148.91 171.797 149.33 172.105 149.862C172.422 150.385 172.581 150.973 172.581 151.626C172.581 152.279 172.422 152.872 172.105 153.404C171.797 153.936 171.377 154.361 170.845 154.678C170.313 154.986 169.716 155.14 169.053 155.14ZM169.053 153.656C169.436 153.656 169.772 153.572 170.061 153.404C170.36 153.227 170.588 152.984 170.747 152.676C170.915 152.368 170.999 152.018 170.999 151.626C170.999 151.234 170.915 150.889 170.747 150.59C170.579 150.291 170.35 150.058 170.061 149.89C169.772 149.713 169.436 149.624 169.053 149.624C168.68 149.624 168.344 149.713 168.045 149.89C167.756 150.058 167.527 150.291 167.359 150.59C167.2 150.889 167.121 151.234 167.121 151.626C167.121 152.018 167.2 152.368 167.359 152.676C167.527 152.984 167.756 153.227 168.045 153.404C168.344 153.572 168.68 153.656 169.053 153.656ZM173.862 155V148.28H175.402V155H173.862ZM175.402 151.262L174.87 150.996C174.87 150.147 175.056 149.461 175.43 148.938C175.812 148.406 176.386 148.14 177.152 148.14C177.488 148.14 177.791 148.201 178.062 148.322C178.332 148.443 178.584 148.639 178.818 148.91L177.81 149.946C177.688 149.815 177.553 149.722 177.404 149.666C177.254 149.61 177.082 149.582 176.886 149.582C176.456 149.582 176.102 149.717 175.822 149.988C175.542 150.259 175.402 150.683 175.402 151.262ZM180.599 155V145.48H182.139V155H180.599ZM178.989 149.68V148.28H183.749V149.68H178.989ZM188.846 155.14C188.548 155.14 188.3 155.042 188.104 154.846C187.918 154.641 187.824 154.393 187.824 154.104C187.824 153.805 187.918 153.558 188.104 153.362C188.3 153.166 188.548 153.068 188.846 153.068C189.145 153.068 189.388 153.166 189.574 153.362C189.77 153.558 189.868 153.805 189.868 154.104C189.868 154.393 189.77 154.641 189.574 154.846C189.388 155.042 189.145 155.14 188.846 155.14ZM191.565 157.94C191.089 157.94 190.701 157.865 190.403 157.716C190.095 157.567 189.815 157.347 189.563 157.058L190.557 156.064C190.669 156.213 190.795 156.321 190.935 156.386C191.075 156.461 191.247 156.498 191.453 156.498C191.705 156.498 191.919 156.419 192.097 156.26C192.283 156.111 192.377 155.887 192.377 155.588V148.28H193.917V155.574C193.917 156.087 193.805 156.517 193.581 156.862C193.366 157.217 193.081 157.483 192.727 157.66C192.372 157.847 191.985 157.94 191.565 157.94ZM193.175 147.048C192.913 147.048 192.694 146.959 192.517 146.782C192.349 146.605 192.265 146.385 192.265 146.124C192.265 145.863 192.349 145.643 192.517 145.466C192.694 145.289 192.913 145.2 193.175 145.2C193.445 145.2 193.665 145.289 193.833 145.466C194.001 145.643 194.085 145.863 194.085 146.124C194.085 146.385 194.001 146.605 193.833 146.782C193.665 146.959 193.445 147.048 193.175 147.048ZM199.225 155.14C198.712 155.14 198.255 155.033 197.853 154.818C197.452 154.594 197.135 154.291 196.901 153.908C196.677 153.525 196.565 153.091 196.565 152.606V150.674C196.565 150.189 196.682 149.755 196.915 149.372C197.149 148.989 197.466 148.691 197.867 148.476C198.269 148.252 198.721 148.14 199.225 148.14C199.832 148.14 200.378 148.299 200.863 148.616C201.358 148.924 201.745 149.344 202.025 149.876C202.315 150.399 202.459 150.991 202.459 151.654C202.459 152.307 202.315 152.9 202.025 153.432C201.745 153.955 201.358 154.37 200.863 154.678C200.378 154.986 199.832 155.14 199.225 155.14ZM195.627 157.8V148.28H197.167V150.086L196.901 151.724L197.167 153.348V157.8H195.627ZM198.973 153.684C199.347 153.684 199.673 153.6 199.953 153.432C200.243 153.255 200.467 153.012 200.625 152.704C200.793 152.396 200.877 152.041 200.877 151.64C200.877 151.239 200.793 150.884 200.625 150.576C200.467 150.268 200.243 150.03 199.953 149.862C199.673 149.685 199.347 149.596 198.973 149.596C198.6 149.596 198.269 149.685 197.979 149.862C197.69 150.03 197.466 150.268 197.307 150.576C197.149 150.884 197.069 151.239 197.069 151.64C197.069 152.041 197.149 152.396 197.307 152.704C197.466 153.012 197.69 153.255 197.979 153.432C198.269 153.6 198.6 153.684 198.973 153.684ZM206.549 157.94C205.839 157.94 205.219 157.809 204.687 157.548C204.155 157.296 203.725 156.937 203.399 156.47L204.407 155.462C204.677 155.798 204.985 156.05 205.331 156.218C205.676 156.386 206.091 156.47 206.577 156.47C207.183 156.47 207.664 156.311 208.019 155.994C208.373 155.686 208.551 155.261 208.551 154.72V153.068L208.817 151.584L208.551 150.086V148.28H210.091V154.72C210.091 155.364 209.941 155.924 209.643 156.4C209.344 156.885 208.929 157.263 208.397 157.534C207.865 157.805 207.249 157.94 206.549 157.94ZM206.479 154.86C205.881 154.86 205.34 154.715 204.855 154.426C204.379 154.127 204.001 153.721 203.721 153.208C203.45 152.695 203.315 152.121 203.315 151.486C203.315 150.851 203.45 150.282 203.721 149.778C204.001 149.274 204.379 148.877 204.855 148.588C205.34 148.289 205.881 148.14 206.479 148.14C207.011 148.14 207.477 148.247 207.879 148.462C208.28 148.677 208.593 148.975 208.817 149.358C209.041 149.731 209.153 150.17 209.153 150.674V152.326C209.153 152.821 209.036 153.259 208.803 153.642C208.579 154.025 208.266 154.323 207.865 154.538C207.463 154.753 207.001 154.86 206.479 154.86ZM206.787 153.404C207.16 153.404 207.487 153.325 207.767 153.166C208.047 153.007 208.261 152.788 208.411 152.508C208.569 152.219 208.649 151.883 208.649 151.5C208.649 151.117 208.569 150.786 208.411 150.506C208.261 150.217 208.047 149.993 207.767 149.834C207.487 149.675 207.16 149.596 206.787 149.596C206.413 149.596 206.082 149.675 205.793 149.834C205.513 149.993 205.293 150.217 205.135 150.506C204.976 150.786 204.897 151.117 204.897 151.5C204.897 151.873 204.976 152.205 205.135 152.494C205.293 152.783 205.513 153.007 205.793 153.166C206.082 153.325 206.413 153.404 206.787 153.404ZM211.801 156.638L212.753 154.86L213.271 154.72C213.215 154.832 213.15 154.925 213.075 155C213.001 155.075 212.912 155.112 212.809 155.112C212.595 155.112 212.394 155.023 212.207 154.846C212.03 154.659 211.941 154.426 211.941 154.146C211.941 153.847 212.039 153.595 212.235 153.39C212.441 153.175 212.693 153.068 212.991 153.068C213.271 153.068 213.514 153.175 213.719 153.39C213.934 153.595 214.041 153.847 214.041 154.146C214.041 154.267 214.013 154.412 213.957 154.58C213.911 154.739 213.822 154.944 213.691 155.196L212.655 157.1L211.801 156.638ZM219.649 155.14C219.35 155.14 219.103 155.042 218.907 154.846C218.72 154.641 218.627 154.393 218.627 154.104C218.627 153.805 218.72 153.558 218.907 153.362C219.103 153.166 219.35 153.068 219.649 153.068C219.948 153.068 220.19 153.166 220.377 153.362C220.573 153.558 220.671 153.805 220.671 154.104C220.671 154.393 220.573 154.641 220.377 154.846C220.19 155.042 219.948 155.14 219.649 155.14ZM222.368 157.94C221.892 157.94 221.504 157.865 221.206 157.716C220.898 157.567 220.618 157.347 220.366 157.058L221.36 156.064C221.472 156.213 221.598 156.321 221.738 156.386C221.878 156.461 222.05 156.498 222.256 156.498C222.508 156.498 222.722 156.419 222.9 156.26C223.086 156.111 223.18 155.887 223.18 155.588V148.28H224.72V155.574C224.72 156.087 224.608 156.517 224.384 156.862C224.169 157.217 223.884 157.483 223.53 157.66C223.175 157.847 222.788 157.94 222.368 157.94ZM223.978 147.048C223.716 147.048 223.497 146.959 223.32 146.782C223.152 146.605 223.068 146.385 223.068 146.124C223.068 145.863 223.152 145.643 223.32 145.466C223.497 145.289 223.716 145.2 223.978 145.2C224.248 145.2 224.468 145.289 224.636 145.466C224.804 145.643 224.888 145.863 224.888 146.124C224.888 146.385 224.804 146.605 224.636 146.782C224.468 146.959 224.248 147.048 223.978 147.048ZM230.028 155.14C229.515 155.14 229.058 155.033 228.656 154.818C228.255 154.594 227.938 154.291 227.704 153.908C227.48 153.525 227.368 153.091 227.368 152.606V150.674C227.368 150.189 227.485 149.755 227.718 149.372C227.952 148.989 228.269 148.691 228.67 148.476C229.072 148.252 229.524 148.14 230.028 148.14C230.635 148.14 231.181 148.299 231.666 148.616C232.161 148.924 232.548 149.344 232.828 149.876C233.118 150.399 233.262 150.991 233.262 151.654C233.262 152.307 233.118 152.9 232.828 153.432C232.548 153.955 232.161 154.37 231.666 154.678C231.181 154.986 230.635 155.14 230.028 155.14ZM226.43 157.8V148.28H227.97V150.086L227.704 151.724L227.97 153.348V157.8H226.43ZM229.776 153.684C230.15 153.684 230.476 153.6 230.756 153.432C231.046 153.255 231.27 153.012 231.428 152.704C231.596 152.396 231.68 152.041 231.68 151.64C231.68 151.239 231.596 150.884 231.428 150.576C231.27 150.268 231.046 150.03 230.756 149.862C230.476 149.685 230.15 149.596 229.776 149.596C229.403 149.596 229.072 149.685 228.782 149.862C228.493 150.03 228.269 150.268 228.11 150.576C227.952 150.884 227.872 151.239 227.872 151.64C227.872 152.041 227.952 152.396 228.11 152.704C228.269 153.012 228.493 153.255 228.782 153.432C229.072 153.6 229.403 153.684 229.776 153.684ZM237.673 155.14C237.001 155.14 236.395 154.991 235.853 154.692C235.321 154.384 234.897 153.964 234.579 153.432C234.271 152.9 234.117 152.303 234.117 151.64C234.117 150.977 234.271 150.385 234.579 149.862C234.887 149.33 235.303 148.91 235.825 148.602C236.357 148.294 236.945 148.14 237.589 148.14C238.215 148.14 238.765 148.285 239.241 148.574C239.727 148.863 240.105 149.26 240.375 149.764C240.655 150.268 240.795 150.842 240.795 151.486C240.795 151.598 240.786 151.715 240.767 151.836C240.758 151.948 240.739 152.074 240.711 152.214H235.195V150.954H239.913L239.339 151.458C239.321 151.047 239.241 150.702 239.101 150.422C238.961 150.142 238.761 149.927 238.499 149.778C238.247 149.629 237.935 149.554 237.561 149.554C237.169 149.554 236.829 149.638 236.539 149.806C236.25 149.974 236.026 150.212 235.867 150.52C235.709 150.819 235.629 151.178 235.629 151.598C235.629 152.018 235.713 152.387 235.881 152.704C236.049 153.021 236.287 153.269 236.595 153.446C236.903 153.614 237.258 153.698 237.659 153.698C238.005 153.698 238.322 153.637 238.611 153.516C238.91 153.395 239.162 153.217 239.367 152.984L240.347 153.978C240.021 154.361 239.624 154.65 239.157 154.846C238.691 155.042 238.196 155.14 237.673 155.14ZM244.83 157.94C244.12 157.94 243.5 157.809 242.968 157.548C242.436 157.296 242.006 156.937 241.68 156.47L242.688 155.462C242.958 155.798 243.266 156.05 243.612 156.218C243.957 156.386 244.372 156.47 244.858 156.47C245.464 156.47 245.945 156.311 246.3 155.994C246.654 155.686 246.832 155.261 246.832 154.72V153.068L247.098 151.584L246.832 150.086V148.28H248.372V154.72C248.372 155.364 248.222 155.924 247.924 156.4C247.625 156.885 247.21 157.263 246.678 157.534C246.146 157.805 245.53 157.94 244.83 157.94ZM244.76 154.86C244.162 154.86 243.621 154.715 243.136 154.426C242.66 154.127 242.282 153.721 242.002 153.208C241.731 152.695 241.596 152.121 241.596 151.486C241.596 150.851 241.731 150.282 242.002 149.778C242.282 149.274 242.66 148.877 243.136 148.588C243.621 148.289 244.162 148.14 244.76 148.14C245.292 148.14 245.758 148.247 246.16 148.462C246.561 148.677 246.874 148.975 247.098 149.358C247.322 149.731 247.434 150.17 247.434 150.674V152.326C247.434 152.821 247.317 153.259 247.084 153.642C246.86 154.025 246.547 154.323 246.146 154.538C245.744 154.753 245.282 154.86 244.76 154.86ZM245.068 153.404C245.441 153.404 245.768 153.325 246.048 153.166C246.328 153.007 246.542 152.788 246.692 152.508C246.85 152.219 246.93 151.883 246.93 151.5C246.93 151.117 246.85 150.786 246.692 150.506C246.542 150.217 246.328 149.993 246.048 149.834C245.768 149.675 245.441 149.596 245.068 149.596C244.694 149.596 244.363 149.675 244.074 149.834C243.794 149.993 243.574 150.217 243.416 150.506C243.257 150.786 243.178 151.117 243.178 151.5C243.178 151.873 243.257 152.205 243.416 152.494C243.574 152.783 243.794 153.007 244.074 153.166C244.363 153.325 244.694 153.404 245.068 153.404ZM253.809 155V147.398C253.809 146.885 253.921 146.432 254.145 146.04C254.379 145.648 254.696 145.34 255.097 145.116C255.508 144.892 255.979 144.78 256.511 144.78C256.922 144.78 257.272 144.85 257.561 144.99C257.851 145.13 258.121 145.331 258.373 145.592L257.379 146.586C257.267 146.474 257.146 146.385 257.015 146.32C256.885 146.255 256.717 146.222 256.511 146.222C256.138 146.222 255.849 146.325 255.643 146.53C255.447 146.726 255.349 147.011 255.349 147.384V155H253.809ZM252.199 149.68V148.28H257.379V149.68H252.199ZM261.27 155.14C260.617 155.14 260.024 154.986 259.492 154.678C258.96 154.361 258.535 153.936 258.218 153.404C257.91 152.872 257.756 152.279 257.756 151.626C257.756 150.973 257.91 150.385 258.218 149.862C258.535 149.339 258.96 148.924 259.492 148.616C260.024 148.299 260.617 148.14 261.27 148.14C261.933 148.14 262.53 148.294 263.062 148.602C263.594 148.91 264.014 149.33 264.322 149.862C264.639 150.385 264.798 150.973 264.798 151.626C264.798 152.279 264.639 152.872 264.322 153.404C264.014 153.936 263.594 154.361 263.062 154.678C262.53 154.986 261.933 155.14 261.27 155.14ZM261.27 153.656C261.653 153.656 261.989 153.572 262.278 153.404C262.577 153.227 262.805 152.984 262.964 152.676C263.132 152.368 263.216 152.018 263.216 151.626C263.216 151.234 263.132 150.889 262.964 150.59C262.796 150.291 262.567 150.058 262.278 149.89C261.989 149.713 261.653 149.624 261.27 149.624C260.897 149.624 260.561 149.713 260.262 149.89C259.973 150.058 259.744 150.291 259.576 150.59C259.417 150.889 259.338 151.234 259.338 151.626C259.338 152.018 259.417 152.368 259.576 152.676C259.744 152.984 259.973 153.227 260.262 153.404C260.561 153.572 260.897 153.656 261.27 153.656ZM266.079 155V148.28H267.619V155H266.079ZM267.619 151.262L267.087 150.996C267.087 150.147 267.273 149.461 267.647 148.938C268.029 148.406 268.603 148.14 269.369 148.14C269.705 148.14 270.008 148.201 270.279 148.322C270.549 148.443 270.801 148.639 271.035 148.91L270.027 149.946C269.905 149.815 269.77 149.722 269.621 149.666C269.471 149.61 269.299 149.582 269.103 149.582C268.673 149.582 268.319 149.717 268.039 149.988C267.759 150.259 267.619 150.683 267.619 151.262ZM271.78 155V148.28H273.32V155H271.78ZM276.246 155V150.996C276.246 150.548 276.106 150.203 275.826 149.96C275.546 149.708 275.2 149.582 274.79 149.582C274.51 149.582 274.258 149.638 274.034 149.75C273.819 149.862 273.646 150.025 273.516 150.24C273.385 150.445 273.32 150.697 273.32 150.996L272.718 150.66C272.718 150.147 272.83 149.703 273.054 149.33C273.278 148.957 273.581 148.667 273.964 148.462C274.346 148.247 274.776 148.14 275.252 148.14C275.728 148.14 276.157 148.243 276.54 148.448C276.922 148.653 277.226 148.943 277.45 149.316C277.674 149.689 277.786 150.137 277.786 150.66V155H276.246ZM280.712 155V150.996C280.712 150.548 280.572 150.203 280.292 149.96C280.012 149.708 279.666 149.582 279.256 149.582C278.985 149.582 278.738 149.638 278.514 149.75C278.29 149.862 278.112 150.025 277.982 150.24C277.851 150.445 277.786 150.697 277.786 150.996L276.918 150.66C276.964 150.147 277.114 149.703 277.366 149.33C277.618 148.957 277.94 148.667 278.332 148.462C278.733 148.247 279.172 148.14 279.648 148.14C280.133 148.14 280.572 148.243 280.964 148.448C281.356 148.653 281.668 148.943 281.902 149.316C282.135 149.689 282.252 150.137 282.252 150.66V155H280.712ZM286.652 155.14C286.046 155.14 285.495 154.986 285 154.678C284.515 154.37 284.128 153.955 283.838 153.432C283.558 152.9 283.418 152.307 283.418 151.654C283.418 150.991 283.558 150.399 283.838 149.876C284.128 149.344 284.515 148.924 285 148.616C285.495 148.299 286.046 148.14 286.652 148.14C287.166 148.14 287.618 148.252 288.01 148.476C288.412 148.691 288.729 148.989 288.962 149.372C289.196 149.755 289.312 150.189 289.312 150.674V152.606C289.312 153.091 289.196 153.525 288.962 153.908C288.738 154.291 288.426 154.594 288.024 154.818C287.623 155.033 287.166 155.14 286.652 155.14ZM286.904 153.684C287.474 153.684 287.931 153.493 288.276 153.11C288.631 152.727 288.808 152.237 288.808 151.64C288.808 151.239 288.729 150.884 288.57 150.576C288.412 150.268 288.188 150.03 287.898 149.862C287.618 149.685 287.287 149.596 286.904 149.596C286.531 149.596 286.2 149.685 285.91 149.862C285.63 150.03 285.406 150.268 285.238 150.576C285.08 150.884 285 151.239 285 151.64C285 152.041 285.08 152.396 285.238 152.704C285.406 153.012 285.63 153.255 285.91 153.432C286.2 153.6 286.531 153.684 286.904 153.684ZM288.71 155V153.194L288.976 151.556L288.71 149.932V148.28H290.25V155H288.71ZM292.981 155V145.48H294.521V155H292.981ZM291.371 149.68V148.28H296.131V149.68H291.371Z" fill="#7A7A7A"/>
<path d="M157.752 198V196.224H160.68C161.203 196.224 161.608 196.064 161.896 195.744C162.195 195.424 162.344 195.045 162.344 194.608C162.344 194.309 162.28 194.037 162.152 193.792C162.024 193.547 161.832 193.355 161.576 193.216C161.331 193.067 161.032 192.992 160.68 192.992H157.752V191.232H160.44C160.888 191.232 161.245 191.12 161.512 190.896C161.789 190.672 161.928 190.336 161.928 189.888C161.928 189.429 161.789 189.088 161.512 188.864C161.245 188.64 160.888 188.528 160.44 188.528H157.752V186.752H160.696C161.443 186.752 162.067 186.891 162.568 187.168C163.08 187.435 163.464 187.792 163.72 188.24C163.976 188.677 164.104 189.157 164.104 189.68C164.104 190.32 163.907 190.875 163.512 191.344C163.128 191.803 162.563 192.144 161.816 192.368L161.912 191.664C162.744 191.899 163.384 192.288 163.832 192.832C164.291 193.365 164.52 194.011 164.52 194.768C164.52 195.365 164.371 195.909 164.072 196.4C163.784 196.88 163.357 197.269 162.792 197.568C162.237 197.856 161.56 198 160.76 198H157.752ZM156.152 198V186.752H158.312V198H156.152ZM166.022 198V190.272H168.118V198H166.022ZM168.118 193.728L167.302 193.184C167.398 192.235 167.675 191.488 168.134 190.944C168.592 190.389 169.254 190.112 170.118 190.112C170.491 190.112 170.827 190.176 171.126 190.304C171.424 190.421 171.696 190.619 171.942 190.896L170.63 192.4C170.512 192.272 170.368 192.176 170.198 192.112C170.038 192.048 169.851 192.016 169.638 192.016C169.19 192.016 168.822 192.16 168.534 192.448C168.256 192.725 168.118 193.152 168.118 193.728ZM176.091 198.16C175.313 198.16 174.609 197.984 173.979 197.632C173.361 197.269 172.865 196.784 172.491 196.176C172.129 195.557 171.947 194.869 171.947 194.112C171.947 193.355 172.129 192.677 172.491 192.08C172.854 191.472 173.35 190.992 173.979 190.64C174.609 190.277 175.307 190.096 176.075 190.096C176.865 190.096 177.569 190.277 178.187 190.64C178.817 190.992 179.313 191.472 179.675 192.08C180.038 192.677 180.219 193.355 180.219 194.112C180.219 194.869 180.038 195.557 179.675 196.176C179.313 196.784 178.817 197.269 178.187 197.632C177.569 197.984 176.87 198.16 176.091 198.16ZM176.075 196.208C176.47 196.208 176.817 196.123 177.115 195.952C177.425 195.771 177.659 195.525 177.819 195.216C177.99 194.896 178.075 194.533 178.075 194.128C178.075 193.723 177.99 193.365 177.819 193.056C177.649 192.747 177.414 192.507 177.115 192.336C176.817 192.155 176.47 192.064 176.075 192.064C175.691 192.064 175.35 192.155 175.051 192.336C174.753 192.507 174.518 192.747 174.347 193.056C174.177 193.365 174.091 193.723 174.091 194.128C174.091 194.533 174.177 194.896 174.347 195.216C174.518 195.525 174.753 195.771 175.051 195.952C175.35 196.123 175.691 196.208 176.075 196.208ZM183.461 198L180.565 190.272H182.677L184.565 195.888L183.925 195.904L185.861 190.272H187.381L189.317 195.904L188.677 195.888L190.565 190.272H192.677L189.797 198H188.277L186.325 192.656H186.917L184.965 198H183.461ZM196.162 198.176C195.725 198.176 195.293 198.117 194.866 198C194.45 197.883 194.066 197.723 193.714 197.52C193.362 197.307 193.058 197.051 192.802 196.752L194.05 195.488C194.317 195.787 194.626 196.011 194.978 196.16C195.33 196.309 195.719 196.384 196.146 196.384C196.487 196.384 196.743 196.336 196.914 196.24C197.095 196.144 197.186 196 197.186 195.808C197.186 195.595 197.09 195.429 196.898 195.312C196.717 195.195 196.477 195.099 196.178 195.024C195.879 194.939 195.565 194.848 195.234 194.752C194.914 194.645 194.605 194.512 194.306 194.352C194.007 194.181 193.762 193.952 193.57 193.664C193.389 193.365 193.298 192.981 193.298 192.512C193.298 192.021 193.415 191.595 193.65 191.232C193.895 190.869 194.242 190.587 194.69 190.384C195.138 190.181 195.666 190.08 196.274 190.08C196.914 190.08 197.49 190.192 198.002 190.416C198.525 190.64 198.957 190.976 199.298 191.424L198.034 192.688C197.799 192.4 197.533 192.192 197.234 192.064C196.946 191.936 196.631 191.872 196.29 191.872C195.981 191.872 195.741 191.92 195.57 192.016C195.41 192.112 195.33 192.245 195.33 192.416C195.33 192.608 195.421 192.757 195.602 192.864C195.794 192.971 196.039 193.067 196.338 193.152C196.637 193.227 196.946 193.317 197.266 193.424C197.597 193.52 197.906 193.659 198.194 193.84C198.493 194.021 198.733 194.261 198.914 194.56C199.106 194.859 199.202 195.243 199.202 195.712C199.202 196.469 198.93 197.072 198.386 197.52C197.842 197.957 197.101 198.176 196.162 198.176ZM204.312 198.16C203.501 198.16 202.781 197.989 202.152 197.648C201.522 197.296 201.021 196.816 200.648 196.208C200.285 195.6 200.104 194.907 200.104 194.128C200.104 193.36 200.28 192.677 200.632 192.08C200.994 191.472 201.485 190.992 202.104 190.64C202.722 190.277 203.41 190.096 204.168 190.096C204.914 190.096 205.57 190.267 206.136 190.608C206.712 190.939 207.16 191.397 207.48 191.984C207.81 192.56 207.976 193.216 207.976 193.952C207.976 194.091 207.965 194.235 207.944 194.384C207.933 194.523 207.906 194.683 207.864 194.864L201.368 194.88V193.312L206.888 193.296L206.04 193.952C206.018 193.493 205.933 193.109 205.784 192.8C205.645 192.491 205.437 192.256 205.16 192.096C204.893 191.925 204.562 191.84 204.168 191.84C203.752 191.84 203.389 191.936 203.08 192.128C202.77 192.309 202.53 192.571 202.36 192.912C202.2 193.243 202.12 193.637 202.12 194.096C202.12 194.565 202.205 194.976 202.376 195.328C202.557 195.669 202.813 195.936 203.144 196.128C203.474 196.309 203.858 196.4 204.296 196.4C204.69 196.4 205.048 196.336 205.368 196.208C205.688 196.069 205.965 195.867 206.2 195.6L207.432 196.832C207.058 197.269 206.6 197.6 206.056 197.824C205.522 198.048 204.941 198.16 204.312 198.16ZM212.621 198V186.752H214.797V198H212.621ZM214.221 193.392V191.456H219.885V193.392H214.221ZM214.221 188.672V186.752H220.157V188.672H214.221ZM221.647 198V190.272H223.759V198H221.647ZM222.703 189.024C222.361 189.024 222.079 188.912 221.855 188.688C221.631 188.453 221.519 188.165 221.519 187.824C221.519 187.493 221.631 187.211 221.855 186.976C222.079 186.741 222.361 186.624 222.703 186.624C223.055 186.624 223.337 186.741 223.551 186.976C223.775 187.211 223.887 187.493 223.887 187.824C223.887 188.165 223.775 188.453 223.551 188.688C223.337 188.912 223.055 189.024 222.703 189.024ZM225.616 198V186.432H227.712V198H225.616ZM233.265 198.16C232.454 198.16 231.734 197.989 231.105 197.648C230.475 197.296 229.974 196.816 229.601 196.208C229.238 195.6 229.057 194.907 229.057 194.128C229.057 193.36 229.233 192.677 229.585 192.08C229.947 191.472 230.438 190.992 231.057 190.64C231.675 190.277 232.363 190.096 233.121 190.096C233.867 190.096 234.523 190.267 235.089 190.608C235.665 190.939 236.113 191.397 236.433 191.984C236.763 192.56 236.929 193.216 236.929 193.952C236.929 194.091 236.918 194.235 236.897 194.384C236.886 194.523 236.859 194.683 236.817 194.864L230.321 194.88V193.312L235.841 193.296L234.993 193.952C234.971 193.493 234.886 193.109 234.737 192.8C234.598 192.491 234.39 192.256 234.113 192.096C233.846 191.925 233.515 191.84 233.121 191.84C232.705 191.84 232.342 191.936 232.033 192.128C231.723 192.309 231.483 192.571 231.313 192.912C231.153 193.243 231.073 193.637 231.073 194.096C231.073 194.565 231.158 194.976 231.329 195.328C231.51 195.669 231.766 195.936 232.097 196.128C232.427 196.309 232.811 196.4 233.249 196.4C233.643 196.4 234.001 196.336 234.321 196.208C234.641 196.069 234.918 195.867 235.153 195.6L236.385 196.832C236.011 197.269 235.553 197.6 235.009 197.824C234.475 198.048 233.894 198.16 233.265 198.16ZM240.881 198.176C240.444 198.176 240.012 198.117 239.585 198C239.169 197.883 238.785 197.723 238.433 197.52C238.081 197.307 237.777 197.051 237.521 196.752L238.769 195.488C239.036 195.787 239.345 196.011 239.697 196.16C240.049 196.309 240.438 196.384 240.865 196.384C241.206 196.384 241.462 196.336 241.633 196.24C241.814 196.144 241.905 196 241.905 195.808C241.905 195.595 241.809 195.429 241.617 195.312C241.436 195.195 241.196 195.099 240.897 195.024C240.598 194.939 240.284 194.848 239.953 194.752C239.633 194.645 239.324 194.512 239.025 194.352C238.726 194.181 238.481 193.952 238.289 193.664C238.108 193.365 238.017 192.981 238.017 192.512C238.017 192.021 238.134 191.595 238.369 191.232C238.614 190.869 238.961 190.587 239.409 190.384C239.857 190.181 240.385 190.08 240.993 190.08C241.633 190.08 242.209 190.192 242.721 190.416C243.244 190.64 243.676 190.976 244.017 191.424L242.753 192.688C242.518 192.4 242.252 192.192 241.953 192.064C241.665 191.936 241.35 191.872 241.009 191.872C240.7 191.872 240.46 191.92 240.289 192.016C240.129 192.112 240.049 192.245 240.049 192.416C240.049 192.608 240.14 192.757 240.321 192.864C240.513 192.971 240.758 193.067 241.057 193.152C241.356 193.227 241.665 193.317 241.985 193.424C242.316 193.52 242.625 193.659 242.913 193.84C243.212 194.021 243.452 194.261 243.633 194.56C243.825 194.859 243.921 195.243 243.921 195.712C243.921 196.469 243.649 197.072 243.105 197.52C242.561 197.957 241.82 198.176 240.881 198.176Z" fill="#FD6C02"/>
<path d="M155 200H244.401V200.8H155V200Z" fill="#FD6C02"/>
<defs>
<clipPath id="clip0_315_539">
<rect width="36" height="36" fill="white" transform="translate(182 52)"/>
</clipPath>
</defs>
</svg>
