<svg width="40" height="40" viewBox="0 0 40 40" fill="none" xmlns="http://www.w3.org/2000/svg">
<rect width="40" height="40" rx="20" fill="white"/>
<g clip-path="url(#clip0_728_2403)">
<mask id="mask0_728_2403" style="mask-type:luminance" maskUnits="userSpaceOnUse" x="8" y="8" width="24" height="24">
<path d="M32 8H8V32H32V8Z" fill="white"/>
</mask>
<g mask="url(#mask0_728_2403)">
<path opacity="0.4" d="M27.0798 23.7203C26.4898 20.1903 23.0998 17.3203 19.5198 17.3203C15.6298 17.3203 12.2098 20.4703 11.8798 24.3503C11.7498 25.8503 12.2298 27.2703 13.2198 28.3403C14.1998 29.4103 15.5798 30.0003 17.0798 30.0003H21.7598C23.4498 30.0003 24.9298 29.3403 25.9398 28.1503C26.9498 26.9603 27.3498 25.3803 27.0798 23.7203Z" fill="#FD6C02"/>
<path d="M18.2801 15.86C19.8983 15.86 21.2101 14.5482 21.2101 12.93C21.2101 11.3118 19.8983 10 18.2801 10C16.6619 10 15.3501 11.3118 15.3501 12.93C15.3501 14.5482 16.6619 15.86 18.2801 15.86Z" fill="#FD6C02"/>
<path d="M24.94 17.0304C26.2876 17.0304 27.38 15.938 27.38 14.5904C27.38 13.2428 26.2876 12.1504 24.94 12.1504C23.5924 12.1504 22.5 13.2428 22.5 14.5904C22.5 15.938 23.5924 17.0304 24.94 17.0304Z" fill="#FD6C02"/>
<path d="M28.5501 20.9293C29.6271 20.9293 30.5001 20.0563 30.5001 18.9793C30.5001 17.9023 29.6271 17.0293 28.5501 17.0293C27.4731 17.0293 26.6001 17.9023 26.6001 18.9793C26.6001 20.0563 27.4731 20.9293 28.5501 20.9293Z" fill="#FD6C02"/>
<path d="M11.94 18.9796C13.2876 18.9796 14.38 17.8872 14.38 16.5396C14.38 15.192 13.2876 14.0996 11.94 14.0996C10.5924 14.0996 9.5 15.192 9.5 16.5396C9.5 17.8872 10.5924 18.9796 11.94 18.9796Z" fill="#FD6C02"/>
</g>
</g>
<defs>
<clipPath id="clip0_728_2403">
<rect width="24" height="24" fill="white" transform="translate(8 8)"/>
</clipPath>
</defs>
</svg>
