<svg width="40" height="40" viewBox="0 0 40 40" fill="none" xmlns="http://www.w3.org/2000/svg">
<rect width="40" height="40" rx="20" fill="white"/>
<g clip-path="url(#clip0_728_2407)">
<mask id="mask0_728_2407" style="mask-type:luminance" maskUnits="userSpaceOnUse" x="8" y="8" width="24" height="24">
<path d="M32 8H8V32H32V8Z" fill="white"/>
</mask>
<g mask="url(#mask0_728_2407)">
<path opacity="0.4" d="M24.1899 16.8604C23.7999 16.8604 23.4899 16.5504 23.4899 16.1604V14.8804C23.4899 13.9004 23.0699 12.9604 22.3499 12.3004C21.6099 11.6304 20.6599 11.3204 19.6599 11.4104C17.9799 11.5704 16.5099 13.2804 16.5099 15.0604V15.9604C16.5099 16.3504 16.1999 16.6604 15.8099 16.6604C15.4199 16.6604 15.1099 16.3504 15.1099 15.9604V15.0604C15.1099 12.5604 17.1299 10.2504 19.5199 10.0204C20.9099 9.89039 22.2499 10.3304 23.2799 11.2704C24.2999 12.1904 24.8799 13.5104 24.8799 14.8804V16.1604C24.8799 16.5504 24.5699 16.8604 24.1899 16.8604Z" fill="#FD6C02"/>
<path d="M27.9602 16.9601C27.1202 16.0301 25.7402 15.5801 23.7202 15.5801H16.2802C14.2602 15.5801 12.8802 16.0301 12.0402 16.9601C11.0702 18.0401 11.1002 19.4801 11.2102 20.4801L11.9102 26.0501C12.1202 28.0001 12.9102 30.0001 17.2102 30.0001H22.7902C27.0902 30.0001 27.8802 28.0001 28.0902 26.0601L28.7902 20.4701C28.9002 19.4801 28.9202 18.0401 27.9602 16.9601ZM16.4202 21.1501H16.4102C15.8602 21.1501 15.4102 20.7001 15.4102 20.1501C15.4102 19.6001 15.8602 19.1501 16.4102 19.1501C16.9702 19.1501 17.4202 19.6001 17.4202 20.1501C17.4202 20.7001 16.9702 21.1501 16.4202 21.1501ZM23.4202 21.1501H23.4102C22.8602 21.1501 22.4102 20.7001 22.4102 20.1501C22.4102 19.6001 22.8602 19.1501 23.4102 19.1501C23.9702 19.1501 24.4202 19.6001 24.4202 20.1501C24.4202 20.7001 23.9702 21.1501 23.4202 21.1501Z" fill="#FD6C02"/>
</g>
</g>
<defs>
<clipPath id="clip0_728_2407">
<rect width="24" height="24" fill="white" transform="translate(8 8)"/>
</clipPath>
</defs>
</svg>
