<svg width="48" height="48" viewBox="0 0 48 48" fill="none" xmlns="http://www.w3.org/2000/svg">
<rect width="48" height="48" rx="24" fill="#FD6C02"/>
<path d="M35.065 19.65C34.33 19.305 33.46 19.38 32.62 19.86C31.84 20.31 31.165 21.075 30.72 22.005C30.28 22.94 30.115 23.945 30.26 24.835C30.42 25.79 30.91 26.51 31.645 26.86C31.955 27.005 32.28 27.075 32.62 27.075C33.1 27.075 33.6 26.935 34.095 26.65C34.875 26.2 35.55 25.44 35.99 24.505C36.435 23.575 36.6 22.57 36.45 21.68C36.295 20.72 35.8 20 35.065 19.65ZM27.005 21.08C27.2 21.135 27.405 21.16 27.605 21.16C28.26 21.16 28.93 20.89 29.53 20.37C30.27 19.74 30.83 18.795 31.11 17.72C31.39 16.645 31.36 15.55 31.025 14.635C30.67 13.66 30.01 13 29.165 12.78C27.505 12.35 25.66 13.855 25.06 16.145C24.455 18.47 25.31 20.64 27.005 21.08ZM17.975 34.87C19.23 35.455 20.675 35.43 21.94 34.805C23.255 34.155 24.755 34.155 26.065 34.805C26.72 35.13 27.425 35.29 28.13 35.29C28.78 35.29 29.43 35.15 30.035 34.87C30.67 34.5747 31.2243 34.1305 31.6508 33.5752C32.0774 33.0198 32.3635 32.3697 32.485 31.68C32.6648 30.7034 32.5117 29.6947 32.0503 28.8154C31.5889 27.9361 30.8458 27.237 29.94 26.83C29.13 26.47 28.485 25.8 28.13 24.95C27.585 23.64 26.43 22.09 24.05 22.09H24C22.235 22.105 20.85 23.085 19.99 24.92C19.585 25.795 18.92 26.465 18.12 26.81C16.225 27.63 15.155 29.63 15.52 31.68C15.77 33.085 16.69 34.275 17.975 34.87ZM17.745 24.835C17.89 23.945 17.73 22.94 17.285 22.005C16.325 19.985 14.42 18.95 12.94 19.65C11.465 20.355 11.055 22.485 12.015 24.505C12.46 25.44 13.13 26.2 13.915 26.65C14.405 26.935 14.91 27.075 15.385 27.075C15.725 27.075 16.055 27.005 16.36 26.86C17.095 26.51 17.59 25.79 17.745 24.835ZM20.42 21.155C20.615 21.155 20.81 21.135 21.005 21.08C22.67 20.65 23.54 18.435 22.945 16.145C22.35 13.855 20.51 12.35 18.84 12.78C17.53 13.12 16.71 14.565 16.71 16.275C16.71 16.745 16.77 17.23 16.9 17.72C17.425 19.745 18.925 21.155 20.42 21.155Z" fill="white"/>
</svg>
