<svg width="90" height="90" viewBox="0 0 90 90" fill="none" xmlns="http://www.w3.org/2000/svg">
<rect x="0.75" y="0.75" width="88.5" height="88.5" rx="13.25" stroke="#FD6C02" stroke-width="1.5" stroke-dasharray="4 4"/>
<g clip-path="url(#clip0_315_686)">
<path d="M55.5 43.5H46.5V34.5C46.5 33.6716 45.8284 33 45 33C44.1716 33 43.5 33.6716 43.5 34.5V43.5H34.5C33.6716 43.5 33 44.1716 33 45C33 45.8284 33.6716 46.5 34.5 46.5H43.5V55.5C43.5 56.3284 44.1716 57 45 57C45.8284 57 46.5 56.3284 46.5 55.5V46.5H55.5C56.3284 46.5 57 45.8284 57 45C57 44.1716 56.3284 43.5 55.5 43.5Z" fill="#FD6C02"/>
</g>
<defs>
<clipPath id="clip0_315_686">
<rect width="24" height="24" fill="white" transform="translate(33 33)"/>
</clipPath>
</defs>
</svg>
