<svg width="400" height="234" viewBox="0 0 400 234" fill="none" xmlns="http://www.w3.org/2000/svg">
<rect x="0.75" y="0.75" width="398.5" height="232.5" rx="13.25" fill="#F5F5F5"/>
<rect x="0.75" y="0.75" width="398.5" height="232.5" rx="13.25" stroke="#FD6C02" stroke-width="1.5" stroke-dasharray="4 4"/>
<rect x="160" y="30" width="80" height="80" rx="40" fill="#FFEADC"/>
<path d="M209.6 63.0686C209.329 62.9912 209.081 62.8472 208.88 62.6496C208.678 62.4521 208.529 62.2073 208.447 61.9376C207.987 60.3806 207.217 58.9331 206.182 57.6825C205.147 56.4319 203.869 55.4043 202.425 54.6619C200.982 53.9195 199.403 53.4776 197.784 53.3631C196.164 53.2486 194.539 53.4639 193.005 53.9958C191.471 54.5277 190.062 55.3652 188.861 56.4577C187.66 57.5502 186.694 58.8749 186.02 60.3517C185.346 61.8285 184.979 63.4267 184.94 65.0495C184.902 66.6723 185.193 68.2861 185.797 69.7931C185.935 70.1102 185.965 70.4643 185.881 70.8002C185.798 71.136 185.606 71.4348 185.335 71.6501C184.14 72.5366 183.208 73.7295 182.636 75.1026C182.064 76.4756 181.874 77.9778 182.086 79.4501C182.416 81.4404 183.45 83.2462 184.998 84.5397C186.546 85.8333 188.507 86.5288 190.525 86.5001H198.5C198.898 86.5001 199.279 86.342 199.561 86.0607C199.842 85.7794 200 85.3979 200 85.0001C200 84.6023 199.842 84.2207 199.561 83.9394C199.279 83.6581 198.898 83.5001 198.5 83.5001H190.525C189.229 83.5315 187.965 83.0978 186.962 82.2775C185.958 81.4572 185.282 80.3046 185.056 79.0286C184.912 78.0907 185.028 77.1313 185.392 76.255C185.756 75.3788 186.354 74.6192 187.12 74.0591C187.924 73.4578 188.506 72.6063 188.774 71.6384C189.042 70.6705 188.981 69.641 188.6 68.7116C187.847 66.7236 187.809 64.5359 188.491 62.5226C189.035 60.9454 190.011 59.5524 191.307 58.5012C192.603 57.4501 194.167 56.7828 195.823 56.5751C196.207 56.5256 196.593 56.5006 196.981 56.5001C198.92 56.4937 200.81 57.1157 202.366 58.2731C203.923 59.4304 205.062 61.0608 205.615 62.9201C205.83 63.6286 206.219 64.2724 206.745 64.7935C207.271 65.3146 207.919 65.6966 208.63 65.9051C210.369 66.4195 211.909 67.4529 213.045 68.867C214.181 70.2811 214.857 72.0084 214.984 73.8177C215.111 75.627 214.683 77.4318 213.755 78.9907C212.828 80.5495 211.447 81.7879 209.797 82.5401C209.552 82.6651 209.348 82.8563 209.207 83.0918C209.067 83.3274 208.995 83.5977 209 83.8721C208.997 84.1203 209.057 84.3653 209.173 84.5845C209.289 84.8037 209.459 84.9902 209.666 85.1268C209.874 85.2635 210.112 85.3458 210.359 85.3664C210.607 85.387 210.855 85.3451 211.082 85.2446C217.283 82.2641 220.652 74.4236 215.402 66.8486C213.957 64.963 211.909 63.629 209.6 63.0686Z" fill="#FD6C02"/>
<path d="M210.061 77.0605C210.342 76.7792 210.5 76.3977 210.5 76C210.5 75.6022 210.342 75.2208 210.061 74.9395L207.682 72.5605C206.838 71.7168 205.693 71.2429 204.5 71.2429C203.307 71.2429 202.162 71.7168 201.319 72.5605L198.94 74.9395C198.666 75.2224 198.515 75.6013 198.519 75.9946C198.522 76.3879 198.68 76.7641 198.958 77.0422C199.236 77.3203 199.612 77.4781 200.006 77.4815C200.399 77.4849 200.778 77.3337 201.061 77.0605L203 75.121V86.5C203 86.8978 203.158 87.2793 203.439 87.5606C203.721 87.8419 204.102 88 204.5 88C204.898 88 205.279 87.8419 205.561 87.5606C205.842 87.2793 206 86.8978 206 86.5V75.121L207.94 77.0605C208.221 77.3417 208.602 77.4996 209 77.4996C209.398 77.4996 209.779 77.3417 210.061 77.0605Z" fill="#FD6C02"/>
<path d="M117.386 135.14C116.611 135.14 115.921 134.972 115.314 134.636C114.717 134.291 114.245 133.819 113.9 133.222C113.555 132.625 113.382 131.948 113.382 131.192V125.158H115.286V131.248C115.286 131.687 115.375 132.065 115.552 132.382C115.739 132.699 115.991 132.947 116.308 133.124C116.635 133.292 116.994 133.376 117.386 133.376C117.787 133.376 118.142 133.292 118.45 133.124C118.758 132.947 119.001 132.699 119.178 132.382C119.365 132.065 119.458 131.691 119.458 131.262V125.158H121.376V131.206C121.376 131.962 121.203 132.639 120.858 133.236C120.513 133.824 120.041 134.291 119.444 134.636C118.856 134.972 118.17 135.14 117.386 135.14ZM126.812 135.14C126.327 135.14 125.888 135.042 125.496 134.846C125.104 134.641 124.791 134.365 124.558 134.02C124.325 133.675 124.199 133.278 124.18 132.83V130.436C124.199 129.988 124.325 129.591 124.558 129.246C124.801 128.891 125.113 128.611 125.496 128.406C125.888 128.201 126.327 128.098 126.812 128.098C127.437 128.098 127.997 128.252 128.492 128.56C128.987 128.868 129.374 129.288 129.654 129.82C129.943 130.352 130.088 130.954 130.088 131.626C130.088 132.289 129.943 132.886 129.654 133.418C129.374 133.95 128.987 134.37 128.492 134.678C127.997 134.986 127.437 135.14 126.812 135.14ZM123.06 137.828V128.238H124.894V130.016L124.586 131.654L124.88 133.292V137.828H123.06ZM126.49 133.446C126.826 133.446 127.125 133.371 127.386 133.222C127.647 133.063 127.848 132.849 127.988 132.578C128.137 132.298 128.212 131.976 128.212 131.612C128.212 131.257 128.137 130.945 127.988 130.674C127.848 130.394 127.647 130.179 127.386 130.03C127.125 129.871 126.826 129.792 126.49 129.792C126.163 129.792 125.869 129.871 125.608 130.03C125.347 130.179 125.141 130.394 124.992 130.674C124.852 130.945 124.782 131.257 124.782 131.612C124.782 131.976 124.852 132.298 124.992 132.578C125.141 132.849 125.342 133.063 125.594 133.222C125.855 133.371 126.154 133.446 126.49 133.446ZM131.291 135V124.878H133.125V135H131.291ZM137.928 135.14C137.246 135.14 136.63 134.986 136.08 134.678C135.538 134.361 135.104 133.936 134.778 133.404C134.46 132.863 134.302 132.261 134.302 131.598C134.302 130.935 134.46 130.343 134.778 129.82C135.095 129.288 135.529 128.868 136.08 128.56C136.63 128.243 137.242 128.084 137.914 128.084C138.604 128.084 139.22 128.243 139.762 128.56C140.312 128.868 140.746 129.288 141.064 129.82C141.381 130.343 141.54 130.935 141.54 131.598C141.54 132.261 141.381 132.863 141.064 133.404C140.746 133.936 140.312 134.361 139.762 134.678C139.22 134.986 138.609 135.14 137.928 135.14ZM137.914 133.432C138.259 133.432 138.562 133.357 138.824 133.208C139.094 133.049 139.3 132.835 139.44 132.564C139.589 132.284 139.664 131.967 139.664 131.612C139.664 131.257 139.589 130.945 139.44 130.674C139.29 130.403 139.085 130.193 138.824 130.044C138.562 129.885 138.259 129.806 137.914 129.806C137.578 129.806 137.279 129.885 137.018 130.044C136.756 130.193 136.551 130.403 136.402 130.674C136.252 130.945 136.178 131.257 136.178 131.612C136.178 131.967 136.252 132.284 136.402 132.564C136.551 132.835 136.756 133.049 137.018 133.208C137.279 133.357 137.578 133.432 137.914 133.432ZM145.548 135.14C144.932 135.14 144.377 134.986 143.882 134.678C143.388 134.37 143 133.95 142.72 133.418C142.44 132.886 142.3 132.289 142.3 131.626C142.3 130.954 142.44 130.352 142.72 129.82C143 129.288 143.388 128.868 143.882 128.56C144.377 128.252 144.932 128.098 145.548 128.098C146.034 128.098 146.468 128.196 146.85 128.392C147.233 128.588 147.536 128.863 147.76 129.218C147.994 129.563 148.12 129.955 148.138 130.394V132.83C148.12 133.278 147.994 133.675 147.76 134.02C147.536 134.365 147.233 134.641 146.85 134.846C146.468 135.042 146.034 135.14 145.548 135.14ZM145.884 133.446C146.398 133.446 146.813 133.278 147.13 132.942C147.448 132.597 147.606 132.153 147.606 131.612C147.606 131.257 147.532 130.945 147.382 130.674C147.242 130.394 147.042 130.179 146.78 130.03C146.528 129.871 146.23 129.792 145.884 129.792C145.548 129.792 145.25 129.871 144.988 130.03C144.736 130.179 144.536 130.394 144.386 130.674C144.246 130.945 144.176 131.257 144.176 131.612C144.176 131.976 144.246 132.298 144.386 132.578C144.536 132.849 144.736 133.063 144.988 133.222C145.25 133.371 145.548 133.446 145.884 133.446ZM147.508 135V133.18L147.802 131.528L147.508 129.904V128.238H149.328V135H147.508ZM153.807 135.14C153.181 135.14 152.621 134.986 152.127 134.678C151.632 134.37 151.24 133.95 150.951 133.418C150.671 132.886 150.531 132.289 150.531 131.626C150.531 130.954 150.671 130.352 150.951 129.82C151.24 129.288 151.627 128.868 152.113 128.56C152.607 128.252 153.172 128.098 153.807 128.098C154.292 128.098 154.726 128.196 155.109 128.392C155.501 128.588 155.813 128.863 156.047 129.218C156.289 129.563 156.42 129.955 156.439 130.394V132.802C156.42 133.241 156.294 133.637 156.061 133.992C155.827 134.347 155.515 134.627 155.123 134.832C154.731 135.037 154.292 135.14 153.807 135.14ZM154.115 133.446C154.46 133.446 154.759 133.371 155.011 133.222C155.272 133.063 155.473 132.849 155.613 132.578C155.762 132.298 155.837 131.976 155.837 131.612C155.837 131.257 155.762 130.945 155.613 130.674C155.473 130.394 155.272 130.179 155.011 130.03C154.759 129.871 154.465 129.792 154.129 129.792C153.783 129.792 153.48 129.871 153.219 130.03C152.967 130.189 152.766 130.403 152.617 130.674C152.477 130.945 152.407 131.257 152.407 131.612C152.407 131.976 152.477 132.298 152.617 132.578C152.766 132.849 152.971 133.063 153.233 133.222C153.494 133.371 153.788 133.446 154.115 133.446ZM157.559 135H155.739V133.18L156.033 131.528L155.725 129.904V124.878H157.559V135ZM164.044 135.056L161.216 128.238H163.204L165.08 133.446H164.408L166.354 128.238H168.356L165.346 135.056H164.044ZM162.168 137.828L164.226 133.474L165.346 135.056L164.114 137.828H162.168ZM172.162 135.14C171.481 135.14 170.865 134.986 170.314 134.678C169.773 134.361 169.339 133.936 169.012 133.404C168.695 132.863 168.536 132.261 168.536 131.598C168.536 130.935 168.695 130.343 169.012 129.82C169.329 129.288 169.763 128.868 170.314 128.56C170.865 128.243 171.476 128.084 172.148 128.084C172.839 128.084 173.455 128.243 173.996 128.56C174.547 128.868 174.981 129.288 175.298 129.82C175.615 130.343 175.774 130.935 175.774 131.598C175.774 132.261 175.615 132.863 175.298 133.404C174.981 133.936 174.547 134.361 173.996 134.678C173.455 134.986 172.843 135.14 172.162 135.14ZM172.148 133.432C172.493 133.432 172.797 133.357 173.058 133.208C173.329 133.049 173.534 132.835 173.674 132.564C173.823 132.284 173.898 131.967 173.898 131.612C173.898 131.257 173.823 130.945 173.674 130.674C173.525 130.403 173.319 130.193 173.058 130.044C172.797 129.885 172.493 129.806 172.148 129.806C171.812 129.806 171.513 129.885 171.252 130.044C170.991 130.193 170.785 130.403 170.636 130.674C170.487 130.945 170.412 131.257 170.412 131.612C170.412 131.967 170.487 132.284 170.636 132.564C170.785 132.835 170.991 133.049 171.252 133.208C171.513 133.357 171.812 133.432 172.148 133.432ZM179.839 135.14C179.241 135.14 178.709 135.014 178.243 134.762C177.785 134.51 177.426 134.16 177.165 133.712C176.903 133.264 176.773 132.746 176.773 132.158V128.238H178.621V132.116C178.621 132.396 178.667 132.639 178.761 132.844C178.854 133.04 178.994 133.189 179.181 133.292C179.367 133.395 179.587 133.446 179.839 133.446C180.221 133.446 180.52 133.329 180.735 133.096C180.949 132.863 181.057 132.536 181.057 132.116V128.238H182.891V132.158C182.891 132.755 182.76 133.278 182.499 133.726C182.247 134.174 181.887 134.524 181.421 134.776C180.963 135.019 180.436 135.14 179.839 135.14ZM184.351 135V128.238H186.185V135H184.351ZM186.185 131.262L185.471 130.786C185.555 129.955 185.798 129.302 186.199 128.826C186.6 128.341 187.179 128.098 187.935 128.098C188.262 128.098 188.556 128.154 188.817 128.266C189.078 128.369 189.316 128.541 189.531 128.784L188.383 130.1C188.28 129.988 188.154 129.904 188.005 129.848C187.865 129.792 187.702 129.764 187.515 129.764C187.123 129.764 186.801 129.89 186.549 130.142C186.306 130.385 186.185 130.758 186.185 131.262ZM196.012 135.14C195.386 135.14 194.826 134.986 194.332 134.678C193.837 134.37 193.445 133.95 193.156 133.418C192.876 132.886 192.736 132.289 192.736 131.626C192.736 130.954 192.876 130.352 193.156 129.82C193.445 129.288 193.832 128.868 194.318 128.56C194.812 128.252 195.377 128.098 196.012 128.098C196.497 128.098 196.931 128.196 197.314 128.392C197.706 128.588 198.018 128.863 198.252 129.218C198.494 129.563 198.625 129.955 198.644 130.394V132.802C198.625 133.241 198.499 133.637 198.266 133.992C198.032 134.347 197.72 134.627 197.328 134.832C196.936 135.037 196.497 135.14 196.012 135.14ZM196.32 133.446C196.665 133.446 196.964 133.371 197.216 133.222C197.477 133.063 197.678 132.849 197.818 132.578C197.967 132.298 198.042 131.976 198.042 131.612C198.042 131.257 197.967 130.945 197.818 130.674C197.678 130.394 197.477 130.179 197.216 130.03C196.964 129.871 196.67 129.792 196.334 129.792C195.988 129.792 195.685 129.871 195.424 130.03C195.172 130.189 194.971 130.403 194.822 130.674C194.682 130.945 194.612 131.257 194.612 131.612C194.612 131.976 194.682 132.298 194.822 132.578C194.971 132.849 195.176 133.063 195.438 133.222C195.699 133.371 195.993 133.446 196.32 133.446ZM199.764 135H197.944V133.18L198.238 131.528L197.93 129.904V124.878H199.764V135ZM204.564 135.14C203.883 135.14 203.267 134.986 202.716 134.678C202.175 134.361 201.741 133.936 201.414 133.404C201.097 132.863 200.938 132.261 200.938 131.598C200.938 130.935 201.097 130.343 201.414 129.82C201.732 129.288 202.166 128.868 202.716 128.56C203.267 128.243 203.878 128.084 204.55 128.084C205.241 128.084 205.857 128.243 206.398 128.56C206.949 128.868 207.383 129.288 207.7 129.82C208.018 130.343 208.176 130.935 208.176 131.598C208.176 132.261 208.018 132.863 207.7 133.404C207.383 133.936 206.949 134.361 206.398 134.678C205.857 134.986 205.246 135.14 204.564 135.14ZM204.55 133.432C204.896 133.432 205.199 133.357 205.46 133.208C205.731 133.049 205.936 132.835 206.076 132.564C206.226 132.284 206.3 131.967 206.3 131.612C206.3 131.257 206.226 130.945 206.076 130.674C205.927 130.403 205.722 130.193 205.46 130.044C205.199 129.885 204.896 129.806 204.55 129.806C204.214 129.806 203.916 129.885 203.654 130.044C203.393 130.193 203.188 130.403 203.038 130.674C202.889 130.945 202.814 131.257 202.814 131.612C202.814 131.967 202.889 132.284 203.038 132.564C203.188 132.835 203.393 133.049 203.654 133.208C203.916 133.357 204.214 133.432 204.55 133.432ZM212.549 135.14C211.858 135.14 211.238 134.986 210.687 134.678C210.136 134.37 209.702 133.95 209.385 133.418C209.068 132.886 208.909 132.289 208.909 131.626C208.909 130.954 209.068 130.352 209.385 129.82C209.702 129.288 210.136 128.868 210.687 128.56C211.247 128.243 211.868 128.084 212.549 128.084C213.081 128.084 213.571 128.182 214.019 128.378C214.467 128.574 214.854 128.854 215.181 129.218L214.005 130.408C213.828 130.212 213.613 130.063 213.361 129.96C213.118 129.857 212.848 129.806 212.549 129.806C212.213 129.806 211.91 129.885 211.639 130.044C211.378 130.193 211.168 130.403 211.009 130.674C210.86 130.935 210.785 131.248 210.785 131.612C210.785 131.967 210.86 132.284 211.009 132.564C211.168 132.835 211.378 133.049 211.639 133.208C211.91 133.357 212.213 133.432 212.549 133.432C212.857 133.432 213.132 133.381 213.375 133.278C213.627 133.166 213.842 133.007 214.019 132.802L215.209 133.992C214.864 134.365 214.467 134.65 214.019 134.846C213.571 135.042 213.081 135.14 212.549 135.14ZM219.132 135.14C218.534 135.14 218.002 135.014 217.536 134.762C217.078 134.51 216.719 134.16 216.458 133.712C216.196 133.264 216.066 132.746 216.066 132.158V128.238H217.914V132.116C217.914 132.396 217.96 132.639 218.054 132.844C218.147 133.04 218.287 133.189 218.474 133.292C218.66 133.395 218.88 133.446 219.132 133.446C219.514 133.446 219.813 133.329 220.028 133.096C220.242 132.863 220.35 132.536 220.35 132.116V128.238H222.184V132.158C222.184 132.755 222.053 133.278 221.792 133.726C221.54 134.174 221.18 134.524 220.714 134.776C220.256 135.019 219.729 135.14 219.132 135.14ZM223.644 135V128.238H225.478V135H223.644ZM228.054 135V131.01C228.054 130.618 227.928 130.315 227.676 130.1C227.433 129.876 227.13 129.764 226.766 129.764C226.523 129.764 226.304 129.815 226.108 129.918C225.912 130.011 225.758 130.151 225.646 130.338C225.534 130.525 225.478 130.749 225.478 131.01L224.764 130.66C224.764 130.137 224.876 129.685 225.1 129.302C225.333 128.919 225.646 128.625 226.038 128.42C226.43 128.205 226.873 128.098 227.368 128.098C227.835 128.098 228.259 128.205 228.642 128.42C229.025 128.625 229.328 128.919 229.552 129.302C229.776 129.675 229.888 130.128 229.888 130.66V135H228.054ZM232.464 135V131.01C232.464 130.618 232.338 130.315 232.086 130.1C231.843 129.876 231.54 129.764 231.176 129.764C230.943 129.764 230.723 129.815 230.518 129.918C230.322 130.011 230.168 130.151 230.056 130.338C229.944 130.525 229.888 130.749 229.888 131.01L228.838 130.758C228.875 130.217 229.02 129.75 229.272 129.358C229.524 128.957 229.855 128.649 230.266 128.434C230.677 128.21 231.134 128.098 231.638 128.098C232.142 128.098 232.595 128.205 232.996 128.42C233.397 128.625 233.715 128.924 233.948 129.316C234.181 129.708 234.298 130.175 234.298 130.716V135H232.464ZM239.019 135.14C238.309 135.14 237.679 134.991 237.129 134.692C236.578 134.384 236.139 133.964 235.813 133.432C235.495 132.9 235.337 132.293 235.337 131.612C235.337 130.94 235.491 130.343 235.799 129.82C236.116 129.288 236.545 128.868 237.087 128.56C237.628 128.243 238.23 128.084 238.893 128.084C239.546 128.084 240.12 128.233 240.615 128.532C241.119 128.821 241.511 129.223 241.791 129.736C242.08 130.24 242.225 130.814 242.225 131.458C242.225 131.579 242.215 131.705 242.197 131.836C242.187 131.957 242.164 132.097 242.127 132.256L236.443 132.27V130.898L241.273 130.884L240.531 131.458C240.512 131.057 240.437 130.721 240.307 130.45C240.185 130.179 240.003 129.974 239.761 129.834C239.527 129.685 239.238 129.61 238.893 129.61C238.529 129.61 238.211 129.694 237.941 129.862C237.67 130.021 237.46 130.249 237.311 130.548C237.171 130.837 237.101 131.183 237.101 131.584C237.101 131.995 237.175 132.354 237.325 132.662C237.483 132.961 237.707 133.194 237.997 133.362C238.286 133.521 238.622 133.6 239.005 133.6C239.35 133.6 239.663 133.544 239.943 133.432C240.223 133.311 240.465 133.133 240.671 132.9L241.749 133.978C241.422 134.361 241.021 134.65 240.545 134.846C240.078 135.042 239.569 135.14 239.019 135.14ZM247.909 135V131.122C247.909 130.721 247.783 130.394 247.531 130.142C247.279 129.89 246.952 129.764 246.551 129.764C246.29 129.764 246.056 129.82 245.851 129.932C245.646 130.044 245.482 130.203 245.361 130.408C245.249 130.613 245.193 130.851 245.193 131.122L244.479 130.758C244.479 130.226 244.591 129.764 244.815 129.372C245.048 128.971 245.366 128.658 245.767 128.434C246.178 128.21 246.64 128.098 247.153 128.098C247.648 128.098 248.091 128.224 248.483 128.476C248.875 128.719 249.183 129.041 249.407 129.442C249.631 129.834 249.743 130.259 249.743 130.716V135H247.909ZM243.359 135V128.238H245.193V135H243.359ZM252.132 135V125.424H253.966V135H252.132ZM250.55 129.848V128.238H255.548V129.848H250.55ZM263.864 135V131.122C263.864 130.721 263.738 130.394 263.486 130.142C263.234 129.89 262.907 129.764 262.506 129.764C262.245 129.764 262.011 129.82 261.806 129.932C261.601 130.044 261.437 130.203 261.316 130.408C261.204 130.613 261.148 130.851 261.148 131.122L260.434 130.758C260.434 130.226 260.546 129.764 260.77 129.372C260.994 128.971 261.302 128.658 261.694 128.434C262.095 128.21 262.553 128.098 263.066 128.098C263.579 128.098 264.032 128.21 264.424 128.434C264.825 128.658 265.138 128.966 265.362 129.358C265.586 129.75 265.698 130.203 265.698 130.716V135H263.864ZM259.314 135V124.878H261.148V135H259.314ZM270.409 135.14C269.7 135.14 269.07 134.991 268.519 134.692C267.969 134.384 267.53 133.964 267.203 133.432C266.886 132.9 266.727 132.293 266.727 131.612C266.727 130.94 266.881 130.343 267.189 129.82C267.507 129.288 267.936 128.868 268.477 128.56C269.019 128.243 269.621 128.084 270.283 128.084C270.937 128.084 271.511 128.233 272.005 128.532C272.509 128.821 272.901 129.223 273.181 129.736C273.471 130.24 273.615 130.814 273.615 131.458C273.615 131.579 273.606 131.705 273.587 131.836C273.578 131.957 273.555 132.097 273.517 132.256L267.833 132.27V130.898L272.663 130.884L271.921 131.458C271.903 131.057 271.828 130.721 271.697 130.45C271.576 130.179 271.394 129.974 271.151 129.834C270.918 129.685 270.629 129.61 270.283 129.61C269.919 129.61 269.602 129.694 269.331 129.862C269.061 130.021 268.851 130.249 268.701 130.548C268.561 130.837 268.491 131.183 268.491 131.584C268.491 131.995 268.566 132.354 268.715 132.662C268.874 132.961 269.098 133.194 269.387 133.362C269.677 133.521 270.013 133.6 270.395 133.6C270.741 133.6 271.053 133.544 271.333 133.432C271.613 133.311 271.856 133.133 272.061 132.9L273.139 133.978C272.813 134.361 272.411 134.65 271.935 134.846C271.469 135.042 270.96 135.14 270.409 135.14ZM274.75 135V128.238H276.584V135H274.75ZM276.584 131.262L275.87 130.786C275.954 129.955 276.196 129.302 276.598 128.826C276.999 128.341 277.578 128.098 278.334 128.098C278.66 128.098 278.954 128.154 279.216 128.266C279.477 128.369 279.715 128.541 279.93 128.784L278.782 130.1C278.679 129.988 278.553 129.904 278.404 129.848C278.264 129.792 278.1 129.764 277.914 129.764C277.522 129.764 277.2 129.89 276.948 130.142C276.705 130.385 276.584 130.758 276.584 131.262ZM283.616 135.14C282.907 135.14 282.277 134.991 281.726 134.692C281.176 134.384 280.737 133.964 280.41 133.432C280.093 132.9 279.934 132.293 279.934 131.612C279.934 130.94 280.088 130.343 280.396 129.82C280.714 129.288 281.143 128.868 281.684 128.56C282.226 128.243 282.828 128.084 283.49 128.084C284.144 128.084 284.718 128.233 285.212 128.532C285.716 128.821 286.108 129.223 286.388 129.736C286.678 130.24 286.822 130.814 286.822 131.458C286.822 131.579 286.813 131.705 286.794 131.836C286.785 131.957 286.762 132.097 286.724 132.256L281.04 132.27V130.898L285.87 130.884L285.128 131.458C285.11 131.057 285.035 130.721 284.904 130.45C284.783 130.179 284.601 129.974 284.358 129.834C284.125 129.685 283.836 129.61 283.49 129.61C283.126 129.61 282.809 129.694 282.538 129.862C282.268 130.021 282.058 130.249 281.908 130.548C281.768 130.837 281.698 131.183 281.698 131.584C281.698 131.995 281.773 132.354 281.922 132.662C282.081 132.961 282.305 133.194 282.594 133.362C282.884 133.521 283.22 133.6 283.602 133.6C283.948 133.6 284.26 133.544 284.54 133.432C284.82 133.311 285.063 133.133 285.268 132.9L286.346 133.978C286.02 134.361 285.618 134.65 285.142 134.846C284.676 135.042 284.167 135.14 283.616 135.14Z" fill="#120B06"/>
<path d="M109.072 155.14C108.372 155.14 107.719 155.009 107.112 154.748C106.505 154.487 105.973 154.127 105.516 153.67C105.059 153.203 104.699 152.667 104.438 152.06C104.186 151.444 104.06 150.786 104.06 150.086C104.06 149.386 104.186 148.733 104.438 148.126C104.699 147.519 105.054 146.987 105.502 146.53C105.959 146.063 106.487 145.704 107.084 145.452C107.691 145.191 108.344 145.06 109.044 145.06C109.744 145.06 110.393 145.191 110.99 145.452C111.597 145.704 112.129 146.063 112.586 146.53C113.043 146.987 113.398 147.524 113.65 148.14C113.911 148.747 114.042 149.4 114.042 150.1C114.042 150.8 113.911 151.458 113.65 152.074C113.398 152.681 113.043 153.213 112.586 153.67C112.138 154.127 111.611 154.487 111.004 154.748C110.407 155.009 109.763 155.14 109.072 155.14ZM109.044 153.6C109.707 153.6 110.285 153.451 110.78 153.152C111.284 152.853 111.676 152.443 111.956 151.92C112.245 151.388 112.39 150.777 112.39 150.086C112.39 149.573 112.306 149.106 112.138 148.686C111.979 148.257 111.751 147.888 111.452 147.58C111.153 147.263 110.799 147.02 110.388 146.852C109.987 146.684 109.539 146.6 109.044 146.6C108.391 146.6 107.812 146.749 107.308 147.048C106.813 147.337 106.421 147.743 106.132 148.266C105.852 148.789 105.712 149.395 105.712 150.086C105.712 150.599 105.791 151.075 105.95 151.514C106.118 151.943 106.347 152.312 106.636 152.62C106.935 152.928 107.289 153.171 107.7 153.348C108.111 153.516 108.559 153.6 109.044 153.6ZM120.075 155V151.122C120.075 150.674 119.931 150.305 119.641 150.016C119.361 149.727 118.997 149.582 118.549 149.582C118.251 149.582 117.985 149.647 117.751 149.778C117.518 149.909 117.336 150.091 117.205 150.324C117.075 150.557 117.009 150.823 117.009 151.122L116.407 150.786C116.407 150.273 116.519 149.82 116.743 149.428C116.967 149.027 117.275 148.714 117.667 148.49C118.069 148.257 118.517 148.14 119.011 148.14C119.515 148.14 119.963 148.271 120.355 148.532C120.747 148.784 121.055 149.115 121.279 149.526C121.503 149.927 121.615 150.347 121.615 150.786V155H120.075ZM115.469 155V148.28H117.009V155H115.469ZM123.18 155V144.92H124.72V155H123.18ZM128.604 155.07L125.734 148.28H127.428L129.388 153.264H128.898L130.97 148.28H132.678L129.556 155.07H128.604ZM126.602 157.8L128.688 153.502L129.556 155.07L128.31 157.8H126.602ZM138.681 155.14C138.308 155.14 137.948 155.093 137.603 155C137.258 154.897 136.94 154.757 136.651 154.58C136.362 154.393 136.11 154.169 135.895 153.908L136.875 152.928C137.108 153.199 137.374 153.404 137.673 153.544C137.981 153.675 138.326 153.74 138.709 153.74C139.054 153.74 139.316 153.689 139.493 153.586C139.67 153.483 139.759 153.334 139.759 153.138C139.759 152.933 139.675 152.774 139.507 152.662C139.339 152.55 139.12 152.457 138.849 152.382C138.588 152.298 138.308 152.214 138.009 152.13C137.72 152.046 137.44 151.934 137.169 151.794C136.908 151.645 136.693 151.444 136.525 151.192C136.357 150.94 136.273 150.613 136.273 150.212C136.273 149.783 136.371 149.414 136.567 149.106C136.772 148.798 137.057 148.56 137.421 148.392C137.794 148.224 138.238 148.14 138.751 148.14C139.292 148.14 139.768 148.238 140.179 148.434C140.599 148.621 140.949 148.905 141.229 149.288L140.249 150.268C140.053 150.025 139.829 149.843 139.577 149.722C139.325 149.601 139.036 149.54 138.709 149.54C138.401 149.54 138.163 149.587 137.995 149.68C137.827 149.773 137.743 149.909 137.743 150.086C137.743 150.273 137.827 150.417 137.995 150.52C138.163 150.623 138.378 150.711 138.639 150.786C138.91 150.861 139.19 150.945 139.479 151.038C139.778 151.122 140.058 151.243 140.319 151.402C140.59 151.551 140.809 151.757 140.977 152.018C141.145 152.27 141.229 152.601 141.229 153.012C141.229 153.665 141 154.183 140.543 154.566C140.086 154.949 139.465 155.14 138.681 155.14ZM145.257 155.14C144.687 155.14 144.179 155.014 143.731 154.762C143.292 154.51 142.947 154.165 142.695 153.726C142.452 153.278 142.331 152.765 142.331 152.186V148.28H143.871V152.116C143.871 152.443 143.922 152.723 144.025 152.956C144.137 153.18 144.295 153.353 144.501 153.474C144.715 153.595 144.967 153.656 145.257 153.656C145.705 153.656 146.045 153.525 146.279 153.264C146.521 152.993 146.643 152.611 146.643 152.116V148.28H148.183V152.186C148.183 152.774 148.057 153.292 147.805 153.74C147.562 154.179 147.221 154.524 146.783 154.776C146.344 155.019 145.835 155.14 145.257 155.14ZM153.329 155.14C152.816 155.14 152.358 155.033 151.957 154.818C151.556 154.594 151.238 154.291 151.005 153.908C150.781 153.525 150.669 153.091 150.669 152.606V150.674C150.669 150.189 150.786 149.755 151.019 149.372C151.252 148.989 151.57 148.691 151.971 148.476C152.372 148.252 152.825 148.14 153.329 148.14C153.936 148.14 154.482 148.299 154.967 148.616C155.462 148.924 155.849 149.344 156.129 149.876C156.418 150.399 156.563 150.991 156.563 151.654C156.563 152.307 156.418 152.9 156.129 153.432C155.849 153.955 155.462 154.37 154.967 154.678C154.482 154.986 153.936 155.14 153.329 155.14ZM149.731 157.8V148.28H151.271V150.086L151.005 151.724L151.271 153.348V157.8H149.731ZM153.077 153.684C153.45 153.684 153.777 153.6 154.057 153.432C154.346 153.255 154.57 153.012 154.729 152.704C154.897 152.396 154.981 152.041 154.981 151.64C154.981 151.239 154.897 150.884 154.729 150.576C154.57 150.268 154.346 150.03 154.057 149.862C153.777 149.685 153.45 149.596 153.077 149.596C152.704 149.596 152.372 149.685 152.083 149.862C151.794 150.03 151.57 150.268 151.411 150.576C151.252 150.884 151.173 151.239 151.173 151.64C151.173 152.041 151.252 152.396 151.411 152.704C151.57 153.012 151.794 153.255 152.083 153.432C152.372 153.6 152.704 153.684 153.077 153.684ZM161.45 155.14C160.937 155.14 160.479 155.033 160.078 154.818C159.677 154.594 159.359 154.291 159.126 153.908C158.902 153.525 158.79 153.091 158.79 152.606V150.674C158.79 150.189 158.907 149.755 159.14 149.372C159.373 148.989 159.691 148.691 160.092 148.476C160.493 148.252 160.946 148.14 161.45 148.14C162.057 148.14 162.603 148.299 163.088 148.616C163.583 148.924 163.97 149.344 164.25 149.876C164.539 150.399 164.684 150.991 164.684 151.654C164.684 152.307 164.539 152.9 164.25 153.432C163.97 153.955 163.583 154.37 163.088 154.678C162.603 154.986 162.057 155.14 161.45 155.14ZM157.852 157.8V148.28H159.392V150.086L159.126 151.724L159.392 153.348V157.8H157.852ZM161.198 153.684C161.571 153.684 161.898 153.6 162.178 153.432C162.467 153.255 162.691 153.012 162.85 152.704C163.018 152.396 163.102 152.041 163.102 151.64C163.102 151.239 163.018 150.884 162.85 150.576C162.691 150.268 162.467 150.03 162.178 149.862C161.898 149.685 161.571 149.596 161.198 149.596C160.825 149.596 160.493 149.685 160.204 149.862C159.915 150.03 159.691 150.268 159.532 150.576C159.373 150.884 159.294 151.239 159.294 151.64C159.294 152.041 159.373 152.396 159.532 152.704C159.691 153.012 159.915 153.255 160.204 153.432C160.493 153.6 160.825 153.684 161.198 153.684ZM169.053 155.14C168.4 155.14 167.807 154.986 167.275 154.678C166.743 154.361 166.318 153.936 166.001 153.404C165.693 152.872 165.539 152.279 165.539 151.626C165.539 150.973 165.693 150.385 166.001 149.862C166.318 149.339 166.743 148.924 167.275 148.616C167.807 148.299 168.4 148.14 169.053 148.14C169.716 148.14 170.313 148.294 170.845 148.602C171.377 148.91 171.797 149.33 172.105 149.862C172.422 150.385 172.581 150.973 172.581 151.626C172.581 152.279 172.422 152.872 172.105 153.404C171.797 153.936 171.377 154.361 170.845 154.678C170.313 154.986 169.716 155.14 169.053 155.14ZM169.053 153.656C169.436 153.656 169.772 153.572 170.061 153.404C170.36 153.227 170.588 152.984 170.747 152.676C170.915 152.368 170.999 152.018 170.999 151.626C170.999 151.234 170.915 150.889 170.747 150.59C170.579 150.291 170.35 150.058 170.061 149.89C169.772 149.713 169.436 149.624 169.053 149.624C168.68 149.624 168.344 149.713 168.045 149.89C167.756 150.058 167.527 150.291 167.359 150.59C167.2 150.889 167.121 151.234 167.121 151.626C167.121 152.018 167.2 152.368 167.359 152.676C167.527 152.984 167.756 153.227 168.045 153.404C168.344 153.572 168.68 153.656 169.053 153.656ZM173.862 155V148.28H175.402V155H173.862ZM175.402 151.262L174.87 150.996C174.87 150.147 175.056 149.461 175.43 148.938C175.812 148.406 176.386 148.14 177.152 148.14C177.488 148.14 177.791 148.201 178.062 148.322C178.332 148.443 178.584 148.639 178.818 148.91L177.81 149.946C177.688 149.815 177.553 149.722 177.404 149.666C177.254 149.61 177.082 149.582 176.886 149.582C176.456 149.582 176.102 149.717 175.822 149.988C175.542 150.259 175.402 150.683 175.402 151.262ZM180.599 155V145.48H182.139V155H180.599ZM178.989 149.68V148.28H183.749V149.68H178.989ZM188.846 155.14C188.548 155.14 188.3 155.042 188.104 154.846C187.918 154.641 187.824 154.393 187.824 154.104C187.824 153.805 187.918 153.558 188.104 153.362C188.3 153.166 188.548 153.068 188.846 153.068C189.145 153.068 189.388 153.166 189.574 153.362C189.77 153.558 189.868 153.805 189.868 154.104C189.868 154.393 189.77 154.641 189.574 154.846C189.388 155.042 189.145 155.14 188.846 155.14ZM191.565 157.94C191.089 157.94 190.701 157.865 190.403 157.716C190.095 157.567 189.815 157.347 189.563 157.058L190.557 156.064C190.669 156.213 190.795 156.321 190.935 156.386C191.075 156.461 191.247 156.498 191.453 156.498C191.705 156.498 191.919 156.419 192.097 156.26C192.283 156.111 192.377 155.887 192.377 155.588V148.28H193.917V155.574C193.917 156.087 193.805 156.517 193.581 156.862C193.366 157.217 193.081 157.483 192.727 157.66C192.372 157.847 191.985 157.94 191.565 157.94ZM193.175 147.048C192.913 147.048 192.694 146.959 192.517 146.782C192.349 146.605 192.265 146.385 192.265 146.124C192.265 145.863 192.349 145.643 192.517 145.466C192.694 145.289 192.913 145.2 193.175 145.2C193.445 145.2 193.665 145.289 193.833 145.466C194.001 145.643 194.085 145.863 194.085 146.124C194.085 146.385 194.001 146.605 193.833 146.782C193.665 146.959 193.445 147.048 193.175 147.048ZM199.225 155.14C198.712 155.14 198.255 155.033 197.853 154.818C197.452 154.594 197.135 154.291 196.901 153.908C196.677 153.525 196.565 153.091 196.565 152.606V150.674C196.565 150.189 196.682 149.755 196.915 149.372C197.149 148.989 197.466 148.691 197.867 148.476C198.269 148.252 198.721 148.14 199.225 148.14C199.832 148.14 200.378 148.299 200.863 148.616C201.358 148.924 201.745 149.344 202.025 149.876C202.315 150.399 202.459 150.991 202.459 151.654C202.459 152.307 202.315 152.9 202.025 153.432C201.745 153.955 201.358 154.37 200.863 154.678C200.378 154.986 199.832 155.14 199.225 155.14ZM195.627 157.8V148.28H197.167V150.086L196.901 151.724L197.167 153.348V157.8H195.627ZM198.973 153.684C199.347 153.684 199.673 153.6 199.953 153.432C200.243 153.255 200.467 153.012 200.625 152.704C200.793 152.396 200.877 152.041 200.877 151.64C200.877 151.239 200.793 150.884 200.625 150.576C200.467 150.268 200.243 150.03 199.953 149.862C199.673 149.685 199.347 149.596 198.973 149.596C198.6 149.596 198.269 149.685 197.979 149.862C197.69 150.03 197.466 150.268 197.307 150.576C197.149 150.884 197.069 151.239 197.069 151.64C197.069 152.041 197.149 152.396 197.307 152.704C197.466 153.012 197.69 153.255 197.979 153.432C198.269 153.6 198.6 153.684 198.973 153.684ZM206.549 157.94C205.839 157.94 205.219 157.809 204.687 157.548C204.155 157.296 203.725 156.937 203.399 156.47L204.407 155.462C204.677 155.798 204.985 156.05 205.331 156.218C205.676 156.386 206.091 156.47 206.577 156.47C207.183 156.47 207.664 156.311 208.019 155.994C208.373 155.686 208.551 155.261 208.551 154.72V153.068L208.817 151.584L208.551 150.086V148.28H210.091V154.72C210.091 155.364 209.941 155.924 209.643 156.4C209.344 156.885 208.929 157.263 208.397 157.534C207.865 157.805 207.249 157.94 206.549 157.94ZM206.479 154.86C205.881 154.86 205.34 154.715 204.855 154.426C204.379 154.127 204.001 153.721 203.721 153.208C203.45 152.695 203.315 152.121 203.315 151.486C203.315 150.851 203.45 150.282 203.721 149.778C204.001 149.274 204.379 148.877 204.855 148.588C205.34 148.289 205.881 148.14 206.479 148.14C207.011 148.14 207.477 148.247 207.879 148.462C208.28 148.677 208.593 148.975 208.817 149.358C209.041 149.731 209.153 150.17 209.153 150.674V152.326C209.153 152.821 209.036 153.259 208.803 153.642C208.579 154.025 208.266 154.323 207.865 154.538C207.463 154.753 207.001 154.86 206.479 154.86ZM206.787 153.404C207.16 153.404 207.487 153.325 207.767 153.166C208.047 153.007 208.261 152.788 208.411 152.508C208.569 152.219 208.649 151.883 208.649 151.5C208.649 151.117 208.569 150.786 208.411 150.506C208.261 150.217 208.047 149.993 207.767 149.834C207.487 149.675 207.16 149.596 206.787 149.596C206.413 149.596 206.082 149.675 205.793 149.834C205.513 149.993 205.293 150.217 205.135 150.506C204.976 150.786 204.897 151.117 204.897 151.5C204.897 151.873 204.976 152.205 205.135 152.494C205.293 152.783 205.513 153.007 205.793 153.166C206.082 153.325 206.413 153.404 206.787 153.404ZM211.801 156.638L212.753 154.86L213.271 154.72C213.215 154.832 213.15 154.925 213.075 155C213.001 155.075 212.912 155.112 212.809 155.112C212.595 155.112 212.394 155.023 212.207 154.846C212.03 154.659 211.941 154.426 211.941 154.146C211.941 153.847 212.039 153.595 212.235 153.39C212.441 153.175 212.693 153.068 212.991 153.068C213.271 153.068 213.514 153.175 213.719 153.39C213.934 153.595 214.041 153.847 214.041 154.146C214.041 154.267 214.013 154.412 213.957 154.58C213.911 154.739 213.822 154.944 213.691 155.196L212.655 157.1L211.801 156.638ZM219.649 155.14C219.35 155.14 219.103 155.042 218.907 154.846C218.72 154.641 218.627 154.393 218.627 154.104C218.627 153.805 218.72 153.558 218.907 153.362C219.103 153.166 219.35 153.068 219.649 153.068C219.948 153.068 220.19 153.166 220.377 153.362C220.573 153.558 220.671 153.805 220.671 154.104C220.671 154.393 220.573 154.641 220.377 154.846C220.19 155.042 219.948 155.14 219.649 155.14ZM222.368 157.94C221.892 157.94 221.504 157.865 221.206 157.716C220.898 157.567 220.618 157.347 220.366 157.058L221.36 156.064C221.472 156.213 221.598 156.321 221.738 156.386C221.878 156.461 222.05 156.498 222.256 156.498C222.508 156.498 222.722 156.419 222.9 156.26C223.086 156.111 223.18 155.887 223.18 155.588V148.28H224.72V155.574C224.72 156.087 224.608 156.517 224.384 156.862C224.169 157.217 223.884 157.483 223.53 157.66C223.175 157.847 222.788 157.94 222.368 157.94ZM223.978 147.048C223.716 147.048 223.497 146.959 223.32 146.782C223.152 146.605 223.068 146.385 223.068 146.124C223.068 145.863 223.152 145.643 223.32 145.466C223.497 145.289 223.716 145.2 223.978 145.2C224.248 145.2 224.468 145.289 224.636 145.466C224.804 145.643 224.888 145.863 224.888 146.124C224.888 146.385 224.804 146.605 224.636 146.782C224.468 146.959 224.248 147.048 223.978 147.048ZM230.028 155.14C229.515 155.14 229.058 155.033 228.656 154.818C228.255 154.594 227.938 154.291 227.704 153.908C227.48 153.525 227.368 153.091 227.368 152.606V150.674C227.368 150.189 227.485 149.755 227.718 149.372C227.952 148.989 228.269 148.691 228.67 148.476C229.072 148.252 229.524 148.14 230.028 148.14C230.635 148.14 231.181 148.299 231.666 148.616C232.161 148.924 232.548 149.344 232.828 149.876C233.118 150.399 233.262 150.991 233.262 151.654C233.262 152.307 233.118 152.9 232.828 153.432C232.548 153.955 232.161 154.37 231.666 154.678C231.181 154.986 230.635 155.14 230.028 155.14ZM226.43 157.8V148.28H227.97V150.086L227.704 151.724L227.97 153.348V157.8H226.43ZM229.776 153.684C230.15 153.684 230.476 153.6 230.756 153.432C231.046 153.255 231.27 153.012 231.428 152.704C231.596 152.396 231.68 152.041 231.68 151.64C231.68 151.239 231.596 150.884 231.428 150.576C231.27 150.268 231.046 150.03 230.756 149.862C230.476 149.685 230.15 149.596 229.776 149.596C229.403 149.596 229.072 149.685 228.782 149.862C228.493 150.03 228.269 150.268 228.11 150.576C227.952 150.884 227.872 151.239 227.872 151.64C227.872 152.041 227.952 152.396 228.11 152.704C228.269 153.012 228.493 153.255 228.782 153.432C229.072 153.6 229.403 153.684 229.776 153.684ZM237.673 155.14C237.001 155.14 236.395 154.991 235.853 154.692C235.321 154.384 234.897 153.964 234.579 153.432C234.271 152.9 234.117 152.303 234.117 151.64C234.117 150.977 234.271 150.385 234.579 149.862C234.887 149.33 235.303 148.91 235.825 148.602C236.357 148.294 236.945 148.14 237.589 148.14C238.215 148.14 238.765 148.285 239.241 148.574C239.727 148.863 240.105 149.26 240.375 149.764C240.655 150.268 240.795 150.842 240.795 151.486C240.795 151.598 240.786 151.715 240.767 151.836C240.758 151.948 240.739 152.074 240.711 152.214H235.195V150.954H239.913L239.339 151.458C239.321 151.047 239.241 150.702 239.101 150.422C238.961 150.142 238.761 149.927 238.499 149.778C238.247 149.629 237.935 149.554 237.561 149.554C237.169 149.554 236.829 149.638 236.539 149.806C236.25 149.974 236.026 150.212 235.867 150.52C235.709 150.819 235.629 151.178 235.629 151.598C235.629 152.018 235.713 152.387 235.881 152.704C236.049 153.021 236.287 153.269 236.595 153.446C236.903 153.614 237.258 153.698 237.659 153.698C238.005 153.698 238.322 153.637 238.611 153.516C238.91 153.395 239.162 153.217 239.367 152.984L240.347 153.978C240.021 154.361 239.624 154.65 239.157 154.846C238.691 155.042 238.196 155.14 237.673 155.14ZM244.83 157.94C244.12 157.94 243.5 157.809 242.968 157.548C242.436 157.296 242.006 156.937 241.68 156.47L242.688 155.462C242.958 155.798 243.266 156.05 243.612 156.218C243.957 156.386 244.372 156.47 244.858 156.47C245.464 156.47 245.945 156.311 246.3 155.994C246.654 155.686 246.832 155.261 246.832 154.72V153.068L247.098 151.584L246.832 150.086V148.28H248.372V154.72C248.372 155.364 248.222 155.924 247.924 156.4C247.625 156.885 247.21 157.263 246.678 157.534C246.146 157.805 245.53 157.94 244.83 157.94ZM244.76 154.86C244.162 154.86 243.621 154.715 243.136 154.426C242.66 154.127 242.282 153.721 242.002 153.208C241.731 152.695 241.596 152.121 241.596 151.486C241.596 150.851 241.731 150.282 242.002 149.778C242.282 149.274 242.66 148.877 243.136 148.588C243.621 148.289 244.162 148.14 244.76 148.14C245.292 148.14 245.758 148.247 246.16 148.462C246.561 148.677 246.874 148.975 247.098 149.358C247.322 149.731 247.434 150.17 247.434 150.674V152.326C247.434 152.821 247.317 153.259 247.084 153.642C246.86 154.025 246.547 154.323 246.146 154.538C245.744 154.753 245.282 154.86 244.76 154.86ZM245.068 153.404C245.441 153.404 245.768 153.325 246.048 153.166C246.328 153.007 246.542 152.788 246.692 152.508C246.85 152.219 246.93 151.883 246.93 151.5C246.93 151.117 246.85 150.786 246.692 150.506C246.542 150.217 246.328 149.993 246.048 149.834C245.768 149.675 245.441 149.596 245.068 149.596C244.694 149.596 244.363 149.675 244.074 149.834C243.794 149.993 243.574 150.217 243.416 150.506C243.257 150.786 243.178 151.117 243.178 151.5C243.178 151.873 243.257 152.205 243.416 152.494C243.574 152.783 243.794 153.007 244.074 153.166C244.363 153.325 244.694 153.404 245.068 153.404ZM253.809 155V147.398C253.809 146.885 253.921 146.432 254.145 146.04C254.379 145.648 254.696 145.34 255.097 145.116C255.508 144.892 255.979 144.78 256.511 144.78C256.922 144.78 257.272 144.85 257.561 144.99C257.851 145.13 258.121 145.331 258.373 145.592L257.379 146.586C257.267 146.474 257.146 146.385 257.015 146.32C256.885 146.255 256.717 146.222 256.511 146.222C256.138 146.222 255.849 146.325 255.643 146.53C255.447 146.726 255.349 147.011 255.349 147.384V155H253.809ZM252.199 149.68V148.28H257.379V149.68H252.199ZM261.27 155.14C260.617 155.14 260.024 154.986 259.492 154.678C258.96 154.361 258.535 153.936 258.218 153.404C257.91 152.872 257.756 152.279 257.756 151.626C257.756 150.973 257.91 150.385 258.218 149.862C258.535 149.339 258.96 148.924 259.492 148.616C260.024 148.299 260.617 148.14 261.27 148.14C261.933 148.14 262.53 148.294 263.062 148.602C263.594 148.91 264.014 149.33 264.322 149.862C264.639 150.385 264.798 150.973 264.798 151.626C264.798 152.279 264.639 152.872 264.322 153.404C264.014 153.936 263.594 154.361 263.062 154.678C262.53 154.986 261.933 155.14 261.27 155.14ZM261.27 153.656C261.653 153.656 261.989 153.572 262.278 153.404C262.577 153.227 262.805 152.984 262.964 152.676C263.132 152.368 263.216 152.018 263.216 151.626C263.216 151.234 263.132 150.889 262.964 150.59C262.796 150.291 262.567 150.058 262.278 149.89C261.989 149.713 261.653 149.624 261.27 149.624C260.897 149.624 260.561 149.713 260.262 149.89C259.973 150.058 259.744 150.291 259.576 150.59C259.417 150.889 259.338 151.234 259.338 151.626C259.338 152.018 259.417 152.368 259.576 152.676C259.744 152.984 259.973 153.227 260.262 153.404C260.561 153.572 260.897 153.656 261.27 153.656ZM266.079 155V148.28H267.619V155H266.079ZM267.619 151.262L267.087 150.996C267.087 150.147 267.273 149.461 267.647 148.938C268.029 148.406 268.603 148.14 269.369 148.14C269.705 148.14 270.008 148.201 270.279 148.322C270.549 148.443 270.801 148.639 271.035 148.91L270.027 149.946C269.905 149.815 269.77 149.722 269.621 149.666C269.471 149.61 269.299 149.582 269.103 149.582C268.673 149.582 268.319 149.717 268.039 149.988C267.759 150.259 267.619 150.683 267.619 151.262ZM271.78 155V148.28H273.32V155H271.78ZM276.246 155V150.996C276.246 150.548 276.106 150.203 275.826 149.96C275.546 149.708 275.2 149.582 274.79 149.582C274.51 149.582 274.258 149.638 274.034 149.75C273.819 149.862 273.646 150.025 273.516 150.24C273.385 150.445 273.32 150.697 273.32 150.996L272.718 150.66C272.718 150.147 272.83 149.703 273.054 149.33C273.278 148.957 273.581 148.667 273.964 148.462C274.346 148.247 274.776 148.14 275.252 148.14C275.728 148.14 276.157 148.243 276.54 148.448C276.922 148.653 277.226 148.943 277.45 149.316C277.674 149.689 277.786 150.137 277.786 150.66V155H276.246ZM280.712 155V150.996C280.712 150.548 280.572 150.203 280.292 149.96C280.012 149.708 279.666 149.582 279.256 149.582C278.985 149.582 278.738 149.638 278.514 149.75C278.29 149.862 278.112 150.025 277.982 150.24C277.851 150.445 277.786 150.697 277.786 150.996L276.918 150.66C276.964 150.147 277.114 149.703 277.366 149.33C277.618 148.957 277.94 148.667 278.332 148.462C278.733 148.247 279.172 148.14 279.648 148.14C280.133 148.14 280.572 148.243 280.964 148.448C281.356 148.653 281.668 148.943 281.902 149.316C282.135 149.689 282.252 150.137 282.252 150.66V155H280.712ZM286.652 155.14C286.046 155.14 285.495 154.986 285 154.678C284.515 154.37 284.128 153.955 283.838 153.432C283.558 152.9 283.418 152.307 283.418 151.654C283.418 150.991 283.558 150.399 283.838 149.876C284.128 149.344 284.515 148.924 285 148.616C285.495 148.299 286.046 148.14 286.652 148.14C287.166 148.14 287.618 148.252 288.01 148.476C288.412 148.691 288.729 148.989 288.962 149.372C289.196 149.755 289.312 150.189 289.312 150.674V152.606C289.312 153.091 289.196 153.525 288.962 153.908C288.738 154.291 288.426 154.594 288.024 154.818C287.623 155.033 287.166 155.14 286.652 155.14ZM286.904 153.684C287.474 153.684 287.931 153.493 288.276 153.11C288.631 152.727 288.808 152.237 288.808 151.64C288.808 151.239 288.729 150.884 288.57 150.576C288.412 150.268 288.188 150.03 287.898 149.862C287.618 149.685 287.287 149.596 286.904 149.596C286.531 149.596 286.2 149.685 285.91 149.862C285.63 150.03 285.406 150.268 285.238 150.576C285.08 150.884 285 151.239 285 151.64C285 152.041 285.08 152.396 285.238 152.704C285.406 153.012 285.63 153.255 285.91 153.432C286.2 153.6 286.531 153.684 286.904 153.684ZM288.71 155V153.194L288.976 151.556L288.71 149.932V148.28H290.25V155H288.71ZM292.981 155V145.48H294.521V155H292.981ZM291.371 149.68V148.28H296.131V149.68H291.371Z" fill="#7A7A7A"/>
<path d="M157.752 198V196.224H160.68C161.203 196.224 161.608 196.064 161.896 195.744C162.195 195.424 162.344 195.045 162.344 194.608C162.344 194.309 162.28 194.037 162.152 193.792C162.024 193.547 161.832 193.355 161.576 193.216C161.331 193.067 161.032 192.992 160.68 192.992H157.752V191.232H160.44C160.888 191.232 161.245 191.12 161.512 190.896C161.789 190.672 161.928 190.336 161.928 189.888C161.928 189.429 161.789 189.088 161.512 188.864C161.245 188.64 160.888 188.528 160.44 188.528H157.752V186.752H160.696C161.443 186.752 162.067 186.891 162.568 187.168C163.08 187.435 163.464 187.792 163.72 188.24C163.976 188.677 164.104 189.157 164.104 189.68C164.104 190.32 163.907 190.875 163.512 191.344C163.128 191.803 162.563 192.144 161.816 192.368L161.912 191.664C162.744 191.899 163.384 192.288 163.832 192.832C164.291 193.365 164.52 194.011 164.52 194.768C164.52 195.365 164.371 195.909 164.072 196.4C163.784 196.88 163.357 197.269 162.792 197.568C162.237 197.856 161.56 198 160.76 198H157.752ZM156.152 198V186.752H158.312V198H156.152ZM166.022 198V190.272H168.118V198H166.022ZM168.118 193.728L167.302 193.184C167.398 192.235 167.675 191.488 168.134 190.944C168.592 190.389 169.254 190.112 170.118 190.112C170.491 190.112 170.827 190.176 171.126 190.304C171.424 190.421 171.696 190.619 171.942 190.896L170.63 192.4C170.512 192.272 170.368 192.176 170.198 192.112C170.038 192.048 169.851 192.016 169.638 192.016C169.19 192.016 168.822 192.16 168.534 192.448C168.256 192.725 168.118 193.152 168.118 193.728ZM176.091 198.16C175.313 198.16 174.609 197.984 173.979 197.632C173.361 197.269 172.865 196.784 172.491 196.176C172.129 195.557 171.947 194.869 171.947 194.112C171.947 193.355 172.129 192.677 172.491 192.08C172.854 191.472 173.35 190.992 173.979 190.64C174.609 190.277 175.307 190.096 176.075 190.096C176.865 190.096 177.569 190.277 178.187 190.64C178.817 190.992 179.313 191.472 179.675 192.08C180.038 192.677 180.219 193.355 180.219 194.112C180.219 194.869 180.038 195.557 179.675 196.176C179.313 196.784 178.817 197.269 178.187 197.632C177.569 197.984 176.87 198.16 176.091 198.16ZM176.075 196.208C176.47 196.208 176.817 196.123 177.115 195.952C177.425 195.771 177.659 195.525 177.819 195.216C177.99 194.896 178.075 194.533 178.075 194.128C178.075 193.723 177.99 193.365 177.819 193.056C177.649 192.747 177.414 192.507 177.115 192.336C176.817 192.155 176.47 192.064 176.075 192.064C175.691 192.064 175.35 192.155 175.051 192.336C174.753 192.507 174.518 192.747 174.347 193.056C174.177 193.365 174.091 193.723 174.091 194.128C174.091 194.533 174.177 194.896 174.347 195.216C174.518 195.525 174.753 195.771 175.051 195.952C175.35 196.123 175.691 196.208 176.075 196.208ZM183.461 198L180.565 190.272H182.677L184.565 195.888L183.925 195.904L185.861 190.272H187.381L189.317 195.904L188.677 195.888L190.565 190.272H192.677L189.797 198H188.277L186.325 192.656H186.917L184.965 198H183.461ZM196.162 198.176C195.725 198.176 195.293 198.117 194.866 198C194.45 197.883 194.066 197.723 193.714 197.52C193.362 197.307 193.058 197.051 192.802 196.752L194.05 195.488C194.317 195.787 194.626 196.011 194.978 196.16C195.33 196.309 195.719 196.384 196.146 196.384C196.487 196.384 196.743 196.336 196.914 196.24C197.095 196.144 197.186 196 197.186 195.808C197.186 195.595 197.09 195.429 196.898 195.312C196.717 195.195 196.477 195.099 196.178 195.024C195.879 194.939 195.565 194.848 195.234 194.752C194.914 194.645 194.605 194.512 194.306 194.352C194.007 194.181 193.762 193.952 193.57 193.664C193.389 193.365 193.298 192.981 193.298 192.512C193.298 192.021 193.415 191.595 193.65 191.232C193.895 190.869 194.242 190.587 194.69 190.384C195.138 190.181 195.666 190.08 196.274 190.08C196.914 190.08 197.49 190.192 198.002 190.416C198.525 190.64 198.957 190.976 199.298 191.424L198.034 192.688C197.799 192.4 197.533 192.192 197.234 192.064C196.946 191.936 196.631 191.872 196.29 191.872C195.981 191.872 195.741 191.92 195.57 192.016C195.41 192.112 195.33 192.245 195.33 192.416C195.33 192.608 195.421 192.757 195.602 192.864C195.794 192.971 196.039 193.067 196.338 193.152C196.637 193.227 196.946 193.317 197.266 193.424C197.597 193.52 197.906 193.659 198.194 193.84C198.493 194.021 198.733 194.261 198.914 194.56C199.106 194.859 199.202 195.243 199.202 195.712C199.202 196.469 198.93 197.072 198.386 197.52C197.842 197.957 197.101 198.176 196.162 198.176ZM204.312 198.16C203.501 198.16 202.781 197.989 202.152 197.648C201.522 197.296 201.021 196.816 200.648 196.208C200.285 195.6 200.104 194.907 200.104 194.128C200.104 193.36 200.28 192.677 200.632 192.08C200.994 191.472 201.485 190.992 202.104 190.64C202.722 190.277 203.41 190.096 204.168 190.096C204.914 190.096 205.57 190.267 206.136 190.608C206.712 190.939 207.16 191.397 207.48 191.984C207.81 192.56 207.976 193.216 207.976 193.952C207.976 194.091 207.965 194.235 207.944 194.384C207.933 194.523 207.906 194.683 207.864 194.864L201.368 194.88V193.312L206.888 193.296L206.04 193.952C206.018 193.493 205.933 193.109 205.784 192.8C205.645 192.491 205.437 192.256 205.16 192.096C204.893 191.925 204.562 191.84 204.168 191.84C203.752 191.84 203.389 191.936 203.08 192.128C202.77 192.309 202.53 192.571 202.36 192.912C202.2 193.243 202.12 193.637 202.12 194.096C202.12 194.565 202.205 194.976 202.376 195.328C202.557 195.669 202.813 195.936 203.144 196.128C203.474 196.309 203.858 196.4 204.296 196.4C204.69 196.4 205.048 196.336 205.368 196.208C205.688 196.069 205.965 195.867 206.2 195.6L207.432 196.832C207.058 197.269 206.6 197.6 206.056 197.824C205.522 198.048 204.941 198.16 204.312 198.16ZM212.621 198V186.752H214.797V198H212.621ZM214.221 193.392V191.456H219.885V193.392H214.221ZM214.221 188.672V186.752H220.157V188.672H214.221ZM221.647 198V190.272H223.759V198H221.647ZM222.703 189.024C222.361 189.024 222.079 188.912 221.855 188.688C221.631 188.453 221.519 188.165 221.519 187.824C221.519 187.493 221.631 187.211 221.855 186.976C222.079 186.741 222.361 186.624 222.703 186.624C223.055 186.624 223.337 186.741 223.551 186.976C223.775 187.211 223.887 187.493 223.887 187.824C223.887 188.165 223.775 188.453 223.551 188.688C223.337 188.912 223.055 189.024 222.703 189.024ZM225.616 198V186.432H227.712V198H225.616ZM233.265 198.16C232.454 198.16 231.734 197.989 231.105 197.648C230.475 197.296 229.974 196.816 229.601 196.208C229.238 195.6 229.057 194.907 229.057 194.128C229.057 193.36 229.233 192.677 229.585 192.08C229.947 191.472 230.438 190.992 231.057 190.64C231.675 190.277 232.363 190.096 233.121 190.096C233.867 190.096 234.523 190.267 235.089 190.608C235.665 190.939 236.113 191.397 236.433 191.984C236.763 192.56 236.929 193.216 236.929 193.952C236.929 194.091 236.918 194.235 236.897 194.384C236.886 194.523 236.859 194.683 236.817 194.864L230.321 194.88V193.312L235.841 193.296L234.993 193.952C234.971 193.493 234.886 193.109 234.737 192.8C234.598 192.491 234.39 192.256 234.113 192.096C233.846 191.925 233.515 191.84 233.121 191.84C232.705 191.84 232.342 191.936 232.033 192.128C231.723 192.309 231.483 192.571 231.313 192.912C231.153 193.243 231.073 193.637 231.073 194.096C231.073 194.565 231.158 194.976 231.329 195.328C231.51 195.669 231.766 195.936 232.097 196.128C232.427 196.309 232.811 196.4 233.249 196.4C233.643 196.4 234.001 196.336 234.321 196.208C234.641 196.069 234.918 195.867 235.153 195.6L236.385 196.832C236.011 197.269 235.553 197.6 235.009 197.824C234.475 198.048 233.894 198.16 233.265 198.16ZM240.881 198.176C240.444 198.176 240.012 198.117 239.585 198C239.169 197.883 238.785 197.723 238.433 197.52C238.081 197.307 237.777 197.051 237.521 196.752L238.769 195.488C239.036 195.787 239.345 196.011 239.697 196.16C240.049 196.309 240.438 196.384 240.865 196.384C241.206 196.384 241.462 196.336 241.633 196.24C241.814 196.144 241.905 196 241.905 195.808C241.905 195.595 241.809 195.429 241.617 195.312C241.436 195.195 241.196 195.099 240.897 195.024C240.598 194.939 240.284 194.848 239.953 194.752C239.633 194.645 239.324 194.512 239.025 194.352C238.726 194.181 238.481 193.952 238.289 193.664C238.108 193.365 238.017 192.981 238.017 192.512C238.017 192.021 238.134 191.595 238.369 191.232C238.614 190.869 238.961 190.587 239.409 190.384C239.857 190.181 240.385 190.08 240.993 190.08C241.633 190.08 242.209 190.192 242.721 190.416C243.244 190.64 243.676 190.976 244.017 191.424L242.753 192.688C242.518 192.4 242.252 192.192 241.953 192.064C241.665 191.936 241.35 191.872 241.009 191.872C240.7 191.872 240.46 191.92 240.289 192.016C240.129 192.112 240.049 192.245 240.049 192.416C240.049 192.608 240.14 192.757 240.321 192.864C240.513 192.971 240.758 193.067 241.057 193.152C241.356 193.227 241.665 193.317 241.985 193.424C242.316 193.52 242.625 193.659 242.913 193.84C243.212 194.021 243.452 194.261 243.633 194.56C243.825 194.859 243.921 195.243 243.921 195.712C243.921 196.469 243.649 197.072 243.105 197.52C242.561 197.957 241.82 198.176 240.881 198.176Z" fill="#FD6C02"/>
<path d="M155 200H244.401V200.8H155V200Z" fill="#FD6C02"/>
</svg>
