<svg width="40" height="40" viewBox="0 0 40 40" fill="none" xmlns="http://www.w3.org/2000/svg">
<rect width="40" height="40" rx="20" fill="white"/>
<g clip-path="url(#clip0_724_2194)">
<mask id="mask0_724_2194" style="mask-type:luminance" maskUnits="userSpaceOnUse" x="8" y="8" width="24" height="24">
<path d="M32 8H8V32H32V8Z" fill="white"/>
</mask>
<g mask="url(#mask0_724_2194)">
<path opacity="0.4" d="M18.9598 10.1094L13.4598 12.1694C12.4098 12.5694 11.5498 13.8094 11.5498 14.9394V23.0394C11.5498 23.8494 12.0798 24.9194 12.7298 25.3994L18.2298 29.5094C19.1998 30.2394 20.7898 30.2394 21.7598 29.5094L27.2598 25.3994C27.9098 24.9094 28.4398 23.8494 28.4398 23.0394V14.9394C28.4398 13.8194 27.5798 12.5694 26.5298 12.1794L21.0298 10.1194C20.4698 9.8994 19.5298 9.8994 18.9598 10.1094Z" fill="#FD6C02"/>
<path d="M22.5 18.5C22.5 17.12 21.38 16 20 16C18.62 16 17.5 17.12 17.5 18.5C17.5 19.62 18.24 20.55 19.25 20.87V23.5C19.25 23.91 19.59 24.25 20 24.25C20.41 24.25 20.75 23.91 20.75 23.5V20.87C21.76 20.55 22.5 19.62 22.5 18.5Z" fill="#FD6C02"/>
</g>
</g>
<defs>
<clipPath id="clip0_724_2194">
<rect width="24" height="24" fill="white" transform="translate(8 8)"/>
</clipPath>
</defs>
</svg>
