<svg width="19" height="19" viewBox="0 0 19 19" fill="none" xmlns="http://www.w3.org/2000/svg">
<path d="M16.713 4.46087L11.3796 0.729389C9.92593 -0.289129 7.69445 -0.233574 6.2963 0.84976L1.65741 4.47013C0.731481 5.19235 0 6.67383 0 7.84051V14.2294C0 16.5905 1.91667 18.5164 4.27778 18.5164H14.2593C16.6204 18.5164 18.537 16.5998 18.537 14.2387V7.96088C18.537 6.71087 17.7315 5.17383 16.713 4.46087ZM9.96297 14.8127C9.96297 15.1924 9.64816 15.5072 9.26853 15.5072C8.8889 15.5072 8.57408 15.1924 8.57408 14.8127V12.035C8.57408 11.6553 8.8889 11.3405 9.26853 11.3405C9.64816 11.3405 9.96297 11.6553 9.96297 12.035V14.8127Z" fill="white"/>
</svg>
