<svg width="18" height="18" viewBox="0 0 18 18" fill="none" xmlns="http://www.w3.org/2000/svg">
<path d="M8.12499 16.25C3.64167 16.25 0 12.6083 0 8.12498C0 3.64167 3.64167 0 8.12499 0C12.6083 0 16.25 3.64167 16.25 8.12498C16.25 12.6083 12.6083 16.25 8.12499 16.25ZM8.12499 1.25C4.33333 1.25 1.25 4.33333 1.25 8.12498C1.25 11.9166 4.33333 15 8.12499 15C11.9167 15 15 11.9166 15 8.12498C15 4.33333 11.9167 1.25 8.12499 1.25Z" fill="#7A7A7A"/>
<path d="M15.7502 17.8915C15.5918 17.8915 15.4502 17.8665 15.3418 17.8332C14.9668 17.7248 14.3002 17.3498 14.0918 16.1165C13.9835 15.4582 14.1502 14.8498 14.5668 14.4332C14.9752 14.0165 15.5752 13.8415 16.2252 13.9498C17.0585 14.0748 17.6668 14.4998 17.8835 15.1082C18.1002 15.7165 17.9002 16.4332 17.3252 17.0582C16.7252 17.7248 16.1585 17.8915 15.7502 17.8915ZM15.3168 15.9082C15.3918 16.3582 15.5585 16.5998 15.6918 16.6332C15.8168 16.6665 16.0835 16.5582 16.3918 16.2165C16.6835 15.8998 16.7418 15.6498 16.6918 15.5248C16.6502 15.3998 16.4502 15.2415 16.0168 15.1832C15.7668 15.1498 15.5668 15.1832 15.4418 15.3165C15.3168 15.4415 15.2668 15.6582 15.3168 15.9082Z" fill="#7A7A7A"/>
</svg>
