<svg width="17" height="19" viewBox="0 0 17 19" fill="none" xmlns="http://www.w3.org/2000/svg">
<path d="M15.5588 6.44661C14.9384 5.76143 14.0032 5.36328 12.7069 5.22439V4.52069C12.7069 3.25217 12.1699 2.02995 11.2255 1.17809C10.2718 0.307724 9.03102 -0.0996836 7.74399 0.0206868C5.53101 0.23365 3.6699 2.37254 3.6699 4.68735V5.22439C2.37361 5.36328 1.43842 5.76143 0.818052 6.44661C-0.0800966 7.44662 -0.0523187 8.77996 0.0495332 9.70588L0.697681 14.8633C0.892126 16.6688 1.62361 18.5207 5.60509 18.5207H10.7718C14.7532 18.5207 15.4847 16.6688 15.6792 14.8725L16.3273 9.69662C16.4292 8.77995 16.4477 7.44662 15.5588 6.44661ZM7.87362 1.30772C8.79954 1.22439 9.67917 1.51143 10.3644 2.1318C11.0403 2.74291 11.4199 3.61328 11.4199 4.52069V5.16883H4.95694V4.68735C4.95694 3.03921 6.31805 1.45587 7.87362 1.30772ZM4.87361 10.3263H4.86435C4.35509 10.3263 3.93842 9.90958 3.93842 9.40033C3.93842 8.89107 4.35509 8.4744 4.86435 8.4744C5.38287 8.4744 5.79953 8.89107 5.79953 9.40033C5.79953 9.90958 5.38287 10.3263 4.87361 10.3263ZM11.3551 10.3263H11.3458C10.8366 10.3263 10.4199 9.90958 10.4199 9.40033C10.4199 8.89107 10.8366 8.4744 11.3458 8.4744C11.8644 8.4744 12.281 8.89107 12.281 9.40033C12.281 9.90958 11.8644 10.3263 11.3551 10.3263Z" fill="white"/>
</svg>
