<svg width="20" height="19" viewBox="0 0 20 19" fill="none" xmlns="http://www.w3.org/2000/svg">
<path d="M16.2778 12.704C15.7315 9.43547 12.5926 6.77808 9.27777 6.77808C5.67595 6.77808 2.50928 9.69473 2.20372 13.2873C2.08335 14.6762 2.5278 15.991 3.44447 16.9818C4.35187 17.9725 5.62965 18.5188 7.01854 18.5188H11.3518C12.9167 18.5188 14.287 17.9077 15.2222 16.8058C16.1574 15.704 16.5278 14.241 16.2778 12.704Z" fill="white"/>
<path d="M8.12973 5.42593C9.62806 5.42593 10.8427 4.21129 10.8427 2.71296C10.8427 1.21464 9.62806 0 8.12973 0C6.63139 0 5.41676 1.21464 5.41676 2.71296C5.41676 4.21129 6.63139 5.42593 8.12973 5.42593Z" fill="white"/>
<path d="M14.2963 6.50973C15.5441 6.50973 16.5556 5.49823 16.5556 4.25047C16.5556 3.00272 15.5441 1.99121 14.2963 1.99121C13.0485 1.99121 12.037 3.00272 12.037 4.25047C12.037 5.49823 13.0485 6.50973 14.2963 6.50973Z" fill="white"/>
<path d="M17.639 10.1197C18.6362 10.1197 19.4445 9.31132 19.4445 8.3141C19.4445 7.31692 18.6362 6.50854 17.639 6.50854C16.6418 6.50854 15.8334 7.31692 15.8334 8.3141C15.8334 9.31132 16.6418 10.1197 17.639 10.1197Z" fill="white"/>
<path d="M2.25926 8.31441C3.50701 8.31441 4.51852 7.30291 4.51852 6.05516C4.51852 4.8074 3.50701 3.7959 2.25926 3.7959C1.01151 3.7959 0 4.8074 0 6.05516C0 7.30291 1.01151 8.31441 2.25926 8.31441Z" fill="white"/>
</svg>
