<svg width="400" height="234" viewBox="0 0 400 234" fill="none" xmlns="http://www.w3.org/2000/svg">
<path d="M235.156 8.78906C227.017 8.78906 219.554 11.3684 212.976 16.4555C206.67 21.3325 202.472 27.5443 200 32.0613C197.528 27.544 193.33 21.3325 187.024 16.4555C180.446 11.3684 172.983 8.78906 164.844 8.78906C142.129 8.78906 125 27.3683 125 52.0061C125 78.6234 146.37 96.8347 178.721 124.404C184.215 129.086 190.442 134.393 196.914 140.053C197.768 140.8 198.863 141.211 200 141.211C201.137 141.211 202.232 140.8 203.086 140.053C209.558 134.392 215.785 129.086 221.282 124.401C253.63 96.8347 275 78.6234 275 52.0061C275 27.3683 257.871 8.78906 235.156 8.78906Z" fill="#FD6C02"/>
<path d="M227.663 64.125C225.825 63.2625 223.65 63.45 221.55 64.65C219.6 65.775 217.913 67.6875 216.8 70.0125C215.7 72.35 215.288 74.8625 215.65 77.0875C216.05 79.475 217.275 81.275 219.113 82.15C219.888 82.5125 220.7 82.6875 221.55 82.6875C222.75 82.6875 224 82.3375 225.238 81.625C227.188 80.5 228.875 78.6 229.975 76.2625C231.088 73.9375 231.5 71.425 231.125 69.2C230.738 66.8 229.5 65 227.663 64.125ZM207.513 67.7C208 67.8375 208.513 67.9 209.013 67.9C210.65 67.9 212.325 67.225 213.825 65.925C215.675 64.35 217.075 61.9875 217.775 59.3C218.475 56.6125 218.4 53.875 217.563 51.5875C216.675 49.15 215.025 47.5 212.913 46.95C208.763 45.875 204.15 49.6375 202.65 55.3625C201.138 61.175 203.275 66.6 207.513 67.7ZM184.938 102.175C188.075 103.638 191.688 103.575 194.85 102.013C198.138 100.388 201.888 100.388 205.163 102.013C206.8 102.825 208.563 103.225 210.325 103.225C211.95 103.225 213.575 102.875 215.088 102.175C216.675 101.437 218.061 100.326 219.127 98.938C220.194 97.5496 220.909 95.9242 221.213 94.2C221.662 91.7585 221.279 89.2368 220.126 87.0385C218.972 84.8402 217.115 83.0925 214.85 82.075C212.825 81.175 211.213 79.5 210.325 77.375C208.963 74.1 206.075 70.225 200.125 70.225H200C195.588 70.2625 192.125 72.7125 189.975 77.3C188.963 79.4875 187.3 81.1625 185.3 82.025C180.563 84.075 177.888 89.075 178.8 94.2C179.425 97.7125 181.725 100.688 184.938 102.175ZM184.363 77.0875C184.725 74.8625 184.325 72.35 183.213 70.0125C180.813 64.9625 176.05 62.375 172.35 64.125C168.663 65.8875 167.638 71.2125 170.038 76.2625C171.15 78.6 172.825 80.5 174.788 81.625C176.013 82.3375 177.275 82.6875 178.463 82.6875C179.313 82.6875 180.138 82.5125 180.9 82.15C182.738 81.275 183.975 79.475 184.363 77.0875ZM191.05 67.8875C191.538 67.8875 192.025 67.8375 192.513 67.7C196.675 66.625 198.85 61.0875 197.363 55.3625C195.875 49.6375 191.275 45.875 187.1 46.95C183.825 47.8 181.775 51.4125 181.775 55.6875C181.775 56.8625 181.925 58.075 182.25 59.3C183.563 64.3625 187.313 67.8875 191.05 67.8875Z" fill="white"/>
<path d="M123.145 178.15V172.05H130.745C131.712 172.05 132.595 171.85 133.395 171.45C134.195 171.05 134.828 170.467 135.295 169.7C135.762 168.933 135.995 168 135.995 166.9C135.995 165.833 135.762 164.917 135.295 164.15C134.828 163.383 134.195 162.8 133.395 162.4C132.595 162 131.712 161.8 130.745 161.8H123.145V155.7H131.895C134.128 155.7 136.145 156.15 137.945 157.05C139.745 157.95 141.162 159.25 142.195 160.95C143.262 162.617 143.795 164.6 143.795 166.9C143.795 169.2 143.262 171.2 142.195 172.9C141.162 174.567 139.745 175.867 137.945 176.8C136.145 177.7 134.128 178.15 131.895 178.15H123.145ZM117.145 191V155.7H124.995V191H117.145ZM156.966 191.5C154.733 191.5 152.733 190.95 150.966 189.85C149.233 188.75 147.85 187.25 146.816 185.35C145.816 183.45 145.316 181.283 145.316 178.85C145.316 176.417 145.816 174.25 146.816 172.35C147.85 170.45 149.233 168.95 150.966 167.85C152.733 166.75 154.733 166.2 156.966 166.2C158.6 166.2 160.066 166.517 161.366 167.15C162.7 167.783 163.783 168.667 164.616 169.8C165.45 170.9 165.916 172.167 166.016 173.6V184.1C165.916 185.533 165.45 186.817 164.616 187.95C163.816 189.05 162.75 189.917 161.416 190.55C160.083 191.183 158.6 191.5 156.966 191.5ZM158.516 184.6C160.15 184.6 161.466 184.067 162.466 183C163.466 181.9 163.966 180.517 163.966 178.85C163.966 177.717 163.733 176.717 163.266 175.85C162.833 174.983 162.2 174.317 161.366 173.85C160.566 173.35 159.633 173.1 158.566 173.1C157.5 173.1 156.55 173.35 155.716 173.85C154.916 174.317 154.266 174.983 153.766 175.85C153.3 176.717 153.066 177.717 153.066 178.85C153.066 179.95 153.3 180.933 153.766 181.8C154.233 182.667 154.883 183.35 155.716 183.85C156.55 184.35 157.483 184.6 158.516 184.6ZM163.666 191V184.45L164.816 178.55L163.666 172.65V166.7H171.166V191H163.666ZM182.503 191L174.103 166.7H181.603L186.803 184.35L184.603 184.4L190.353 166.7H196.553L202.353 184.4L200.103 184.35L205.353 166.7H212.853L204.453 191H198.203L192.553 174.2H194.453L188.703 191H182.503Z" fill="#FD6C02"/>
<path d="M222.51 178.15V172.05H230.11C231.077 172.05 231.96 171.85 232.76 171.45C233.56 171.05 234.194 170.467 234.66 169.7C235.127 168.933 235.36 168 235.36 166.9C235.36 165.833 235.127 164.917 234.66 164.15C234.194 163.383 233.56 162.8 232.76 162.4C231.96 162 231.077 161.8 230.11 161.8H222.51V155.7H231.26C233.494 155.7 235.51 156.15 237.31 157.05C239.11 157.95 240.527 159.25 241.56 160.95C242.627 162.617 243.16 164.6 243.16 166.9C243.16 169.2 242.627 171.2 241.56 172.9C240.527 174.567 239.11 175.867 237.31 176.8C235.51 177.7 233.494 178.15 231.26 178.15H222.51ZM216.51 191V155.7H224.36V191H216.51ZM256.331 191.5C254.098 191.5 252.098 190.95 250.331 189.85C248.598 188.75 247.215 187.25 246.181 185.35C245.181 183.45 244.681 181.283 244.681 178.85C244.681 176.417 245.181 174.25 246.181 172.35C247.215 170.45 248.598 168.95 250.331 167.85C252.098 166.75 254.098 166.2 256.331 166.2C257.965 166.2 259.431 166.517 260.731 167.15C262.065 167.783 263.148 168.667 263.981 169.8C264.815 170.9 265.281 172.167 265.381 173.6V184.1C265.281 185.533 264.815 186.817 263.981 187.95C263.181 189.05 262.115 189.917 260.781 190.55C259.448 191.183 257.965 191.5 256.331 191.5ZM257.881 184.6C259.515 184.6 260.831 184.067 261.831 183C262.831 181.9 263.331 180.517 263.331 178.85C263.331 177.717 263.098 176.717 262.631 175.85C262.198 174.983 261.565 174.317 260.731 173.85C259.931 173.35 258.998 173.1 257.931 173.1C256.865 173.1 255.915 173.35 255.081 173.85C254.281 174.317 253.631 174.983 253.131 175.85C252.665 176.717 252.431 177.717 252.431 178.85C252.431 179.95 252.665 180.933 253.131 181.8C253.598 182.667 254.248 183.35 255.081 183.85C255.915 184.35 256.848 184.6 257.881 184.6ZM263.031 191V184.45L264.181 178.55L263.031 172.65V166.7H270.531V191H263.031ZM275.918 191V154.7H283.568V191H275.918Z" fill="#120B06"/>
<path d="M71.22 223.52L66.852 216.8H68.98L72.388 222.16H71.396L74.804 216.8H76.9L72.5 223.52H71.22ZM70.964 228V222.368H72.804V228H70.964ZM79.4023 228.16C78.6556 228.16 77.9783 227.984 77.3703 227.632C76.7623 227.269 76.2769 226.784 75.9143 226.176C75.5623 225.568 75.3863 224.891 75.3863 224.144C75.3863 223.397 75.5623 222.725 75.9143 222.128C76.2769 221.531 76.7623 221.056 77.3703 220.704C77.9783 220.341 78.6556 220.16 79.4023 220.16C80.1596 220.16 80.8423 220.336 81.4503 220.688C82.0583 221.04 82.5383 221.52 82.8903 222.128C83.2529 222.725 83.4343 223.397 83.4343 224.144C83.4343 224.891 83.2529 225.568 82.8903 226.176C82.5383 226.784 82.0583 227.269 81.4503 227.632C80.8423 227.984 80.1596 228.16 79.4023 228.16ZM79.4023 226.464C79.8396 226.464 80.2236 226.368 80.5543 226.176C80.8956 225.973 81.1569 225.696 81.3383 225.344C81.5303 224.992 81.6263 224.592 81.6263 224.144C81.6263 223.696 81.5303 223.301 81.3383 222.96C81.1463 222.619 80.8849 222.352 80.5543 222.16C80.2236 221.957 79.8396 221.856 79.4023 221.856C78.9756 221.856 78.5916 221.957 78.2503 222.16C77.9196 222.352 77.6583 222.619 77.4663 222.96C77.2849 223.301 77.1943 223.696 77.1943 224.144C77.1943 224.592 77.2849 224.992 77.4663 225.344C77.6583 225.696 77.9196 225.973 78.2503 226.176C78.5916 226.368 78.9756 226.464 79.4023 226.464ZM88.0499 228.16C87.3992 228.16 86.8179 228.016 86.3059 227.728C85.8045 227.44 85.4099 227.045 85.1219 226.544C84.8445 226.032 84.7059 225.445 84.7059 224.784V220.32H86.4659V224.704C86.4659 225.077 86.5245 225.397 86.6419 225.664C86.7699 225.92 86.9512 226.117 87.1859 226.256C87.4312 226.395 87.7192 226.464 88.0499 226.464C88.5619 226.464 88.9512 226.315 89.2179 226.016C89.4952 225.707 89.6339 225.269 89.6339 224.704V220.32H91.3939V224.784C91.3939 225.456 91.2499 226.048 90.9619 226.56C90.6845 227.061 90.2952 227.456 89.7939 227.744C89.2925 228.021 88.7112 228.16 88.0499 228.16ZM93.1635 228V220.32H94.9235V228H93.1635ZM94.9235 223.728L94.3155 223.424C94.3155 222.453 94.5288 221.669 94.9555 221.072C95.3928 220.464 96.0488 220.16 96.9235 220.16C97.3075 220.16 97.6542 220.229 97.9635 220.368C98.2728 220.507 98.5608 220.731 98.8275 221.04L97.6755 222.224C97.5368 222.075 97.3822 221.968 97.2115 221.904C97.0408 221.84 96.8435 221.808 96.6195 221.808C96.1288 221.808 95.7235 221.963 95.4035 222.272C95.0835 222.581 94.9235 223.067 94.9235 223.728ZM104.668 223.776V222.176H107.468C107.852 222.176 108.188 222.101 108.476 221.952C108.774 221.792 109.009 221.573 109.18 221.296C109.35 221.008 109.436 220.672 109.436 220.288C109.436 219.904 109.35 219.573 109.18 219.296C109.009 219.008 108.774 218.789 108.476 218.64C108.188 218.48 107.852 218.4 107.468 218.4H104.668V216.8H107.564C108.268 216.8 108.897 216.944 109.452 217.232C110.017 217.52 110.46 217.925 110.78 218.448C111.11 218.971 111.276 219.584 111.276 220.288C111.276 220.992 111.11 221.605 110.78 222.128C110.46 222.651 110.017 223.056 109.452 223.344C108.897 223.632 108.268 223.776 107.564 223.776H104.668ZM103.404 228V216.8H105.244V228H103.404ZM115.997 228.16C115.229 228.16 114.536 227.989 113.917 227.648C113.309 227.296 112.824 226.816 112.461 226.208C112.109 225.6 111.933 224.917 111.933 224.16C111.933 223.403 112.109 222.725 112.461 222.128C112.813 221.52 113.288 221.04 113.885 220.688C114.493 220.336 115.165 220.16 115.901 220.16C116.616 220.16 117.245 220.325 117.789 220.656C118.344 220.987 118.776 221.44 119.085 222.016C119.405 222.592 119.565 223.248 119.565 223.984C119.565 224.112 119.554 224.245 119.533 224.384C119.522 224.512 119.501 224.656 119.469 224.816H113.165V223.376H118.557L117.901 223.952C117.88 223.483 117.789 223.088 117.629 222.768C117.469 222.448 117.24 222.203 116.941 222.032C116.653 221.861 116.296 221.776 115.869 221.776C115.421 221.776 115.032 221.872 114.701 222.064C114.37 222.256 114.114 222.528 113.933 222.88C113.752 223.221 113.661 223.632 113.661 224.112C113.661 224.592 113.757 225.013 113.949 225.376C114.141 225.739 114.413 226.021 114.765 226.224C115.117 226.416 115.522 226.512 115.981 226.512C116.376 226.512 116.738 226.443 117.069 226.304C117.41 226.165 117.698 225.963 117.933 225.696L119.053 226.832C118.68 227.269 118.226 227.6 117.693 227.824C117.16 228.048 116.594 228.16 115.997 228.16ZM121.941 228V217.12H123.701V228H121.941ZM120.101 221.92V220.32H125.541V221.92H120.101ZM126.909 220.72L127.997 218.688L128.589 218.528C128.525 218.656 128.45 218.763 128.365 218.848C128.28 218.933 128.178 218.976 128.061 218.976C127.816 218.976 127.586 218.875 127.373 218.672C127.17 218.459 127.069 218.192 127.069 217.872C127.069 217.531 127.186 217.243 127.421 217.008C127.656 216.763 127.938 216.64 128.269 216.64C128.589 216.64 128.866 216.763 129.101 217.008C129.346 217.243 129.469 217.531 129.469 217.872C129.469 218.011 129.437 218.176 129.373 218.368C129.32 218.549 129.218 218.784 129.069 219.072L127.885 221.248L126.909 220.72ZM132.582 228.16C132.155 228.16 131.744 228.107 131.35 228C130.955 227.883 130.592 227.723 130.262 227.52C129.931 227.307 129.643 227.051 129.398 226.752L130.518 225.632C130.784 225.941 131.088 226.176 131.43 226.336C131.782 226.485 132.176 226.56 132.614 226.56C133.008 226.56 133.307 226.501 133.51 226.384C133.712 226.267 133.814 226.096 133.814 225.872C133.814 225.637 133.718 225.456 133.526 225.328C133.334 225.2 133.083 225.093 132.774 225.008C132.475 224.912 132.155 224.816 131.814 224.72C131.483 224.624 131.163 224.496 130.854 224.336C130.555 224.165 130.31 223.936 130.118 223.648C129.926 223.36 129.83 222.987 129.83 222.528C129.83 222.037 129.942 221.616 130.166 221.264C130.4 220.912 130.726 220.64 131.142 220.448C131.568 220.256 132.075 220.16 132.662 220.16C133.28 220.16 133.824 220.272 134.294 220.496C134.774 220.709 135.174 221.035 135.494 221.472L134.374 222.592C134.15 222.315 133.894 222.107 133.606 221.968C133.318 221.829 132.987 221.76 132.614 221.76C132.262 221.76 131.99 221.813 131.798 221.92C131.606 222.027 131.51 222.181 131.51 222.384C131.51 222.597 131.606 222.763 131.798 222.88C131.99 222.997 132.235 223.099 132.534 223.184C132.843 223.269 133.163 223.365 133.494 223.472C133.835 223.568 134.155 223.707 134.454 223.888C134.763 224.059 135.014 224.293 135.206 224.592C135.398 224.88 135.494 225.259 135.494 225.728C135.494 226.475 135.232 227.067 134.71 227.504C134.187 227.941 133.478 228.16 132.582 228.16ZM227.023 228V220.32H228.783V228H227.023ZM227.903 218.912C227.605 218.912 227.354 218.811 227.151 218.608C226.959 218.405 226.863 218.155 226.863 217.856C226.863 217.557 226.959 217.307 227.151 217.104C227.354 216.901 227.605 216.8 227.903 216.8C228.213 216.8 228.463 216.901 228.655 217.104C228.847 217.307 228.943 217.557 228.943 217.856C228.943 218.155 228.847 218.405 228.655 218.608C228.463 218.811 228.213 218.912 227.903 218.912ZM236.021 228V223.568C236.021 223.056 235.856 222.635 235.525 222.304C235.205 221.973 234.789 221.808 234.277 221.808C233.936 221.808 233.632 221.883 233.365 222.032C233.099 222.181 232.891 222.389 232.741 222.656C232.592 222.923 232.517 223.227 232.517 223.568L231.829 223.184C231.829 222.597 231.957 222.08 232.213 221.632C232.469 221.173 232.821 220.816 233.269 220.56C233.728 220.293 234.24 220.16 234.805 220.16C235.381 220.16 235.893 220.309 236.341 220.608C236.789 220.896 237.141 221.275 237.397 221.744C237.653 222.203 237.781 222.683 237.781 223.184V228H236.021ZM230.757 228V220.32H232.517V228H230.757ZM331.07 228.16C330.729 228.16 330.446 228.048 330.222 227.824C330.009 227.589 329.902 227.307 329.902 226.976C329.902 226.635 330.009 226.352 330.222 226.128C330.446 225.904 330.729 225.792 331.07 225.792C331.411 225.792 331.689 225.904 331.902 226.128C332.126 226.352 332.238 226.635 332.238 226.976C332.238 227.307 332.126 227.589 331.902 227.824C331.689 228.048 331.411 228.16 331.07 228.16Z" fill="black"/>
<path d="M142.18 228V226.048H144.836C145.327 226.048 145.711 225.904 145.988 225.616C146.265 225.328 146.404 224.976 146.404 224.56C146.404 224.272 146.34 224.016 146.212 223.792C146.084 223.568 145.903 223.392 145.668 223.264C145.444 223.136 145.167 223.072 144.836 223.072H142.18V221.168H144.628C145.044 221.168 145.38 221.067 145.636 220.864C145.892 220.651 146.02 220.331 146.02 219.904C146.02 219.488 145.892 219.179 145.636 218.976C145.38 218.763 145.044 218.656 144.628 218.656H142.18V216.704H145.108C145.833 216.704 146.447 216.837 146.948 217.104C147.46 217.371 147.849 217.728 148.116 218.176C148.383 218.624 148.516 219.12 148.516 219.664C148.516 220.357 148.292 220.944 147.844 221.424C147.396 221.904 146.735 222.235 145.86 222.416L145.924 221.568C146.873 221.749 147.604 222.117 148.116 222.672C148.639 223.227 148.9 223.909 148.9 224.72C148.9 225.339 148.745 225.899 148.436 226.4C148.137 226.891 147.7 227.28 147.124 227.568C146.559 227.856 145.876 228 145.076 228H142.18ZM140.26 228V216.704H142.74V228H140.26ZM154.126 228.176C153.283 228.176 152.531 228.005 151.87 227.664C151.219 227.312 150.707 226.827 150.334 226.208C149.961 225.589 149.774 224.891 149.774 224.112C149.774 223.333 149.955 222.64 150.318 222.032C150.691 221.413 151.193 220.928 151.822 220.576C152.451 220.224 153.161 220.048 153.95 220.048C154.718 220.048 155.395 220.213 155.982 220.544C156.569 220.875 157.027 221.333 157.358 221.92C157.699 222.507 157.87 223.179 157.87 223.936C157.87 224.075 157.859 224.224 157.838 224.384C157.827 224.533 157.801 224.709 157.758 224.912L151.054 224.928V223.248L156.718 223.232L155.662 223.936C155.651 223.488 155.582 223.12 155.454 222.832C155.326 222.533 155.134 222.309 154.878 222.16C154.633 222 154.329 221.92 153.966 221.92C153.582 221.92 153.246 222.011 152.958 222.192C152.681 222.363 152.462 222.608 152.302 222.928C152.153 223.248 152.078 223.637 152.078 224.096C152.078 224.555 152.158 224.949 152.318 225.28C152.489 225.6 152.723 225.851 153.022 226.032C153.331 226.203 153.694 226.288 154.11 226.288C154.494 226.288 154.841 226.224 155.15 226.096C155.459 225.957 155.731 225.755 155.966 225.488L157.31 226.832C156.926 227.28 156.462 227.616 155.918 227.84C155.374 228.064 154.777 228.176 154.126 228.176ZM161.884 228.192C161.425 228.192 160.972 228.133 160.524 228.016C160.086 227.899 159.676 227.733 159.292 227.52C158.918 227.296 158.598 227.04 158.332 226.752L159.724 225.344C159.98 225.621 160.284 225.84 160.636 226C160.988 226.149 161.372 226.224 161.788 226.224C162.076 226.224 162.294 226.181 162.444 226.096C162.604 226.011 162.684 225.893 162.684 225.744C162.684 225.552 162.588 225.408 162.396 225.312C162.214 225.205 161.98 225.115 161.692 225.04C161.404 224.955 161.1 224.864 160.78 224.768C160.459 224.672 160.156 224.539 159.868 224.368C159.58 224.197 159.345 223.963 159.164 223.664C158.982 223.355 158.892 222.965 158.892 222.496C158.892 221.995 159.02 221.563 159.276 221.2C159.532 220.827 159.894 220.533 160.364 220.32C160.833 220.107 161.382 220 162.012 220C162.673 220 163.281 220.117 163.836 220.352C164.401 220.576 164.86 220.912 165.212 221.36L163.82 222.768C163.574 222.48 163.297 222.277 162.988 222.16C162.689 222.043 162.396 221.984 162.108 221.984C161.83 221.984 161.622 222.027 161.484 222.112C161.345 222.187 161.276 222.299 161.276 222.448C161.276 222.608 161.366 222.736 161.548 222.832C161.729 222.928 161.964 223.013 162.252 223.088C162.54 223.163 162.844 223.253 163.164 223.36C163.484 223.467 163.788 223.611 164.076 223.792C164.364 223.973 164.598 224.219 164.78 224.528C164.961 224.827 165.052 225.221 165.052 225.712C165.052 226.469 164.764 227.072 164.188 227.52C163.622 227.968 162.854 228.192 161.884 228.192ZM167.484 228V217.008H169.932V228H167.484ZM165.724 222.304V220.224H171.692V222.304H165.724ZM176.041 228V216.704H178.553V228H176.041ZM177.961 223.568V221.408H183.609V223.568H177.961ZM177.961 218.864V216.704H183.865V218.864H177.961ZM185.255 228V220.224H187.703V228H185.255ZM187.703 223.728L186.679 222.928C186.881 222.021 187.223 221.317 187.703 220.816C188.183 220.315 188.849 220.064 189.703 220.064C190.076 220.064 190.401 220.123 190.679 220.24C190.967 220.347 191.217 220.517 191.431 220.752L189.975 222.592C189.868 222.475 189.735 222.384 189.575 222.32C189.415 222.256 189.233 222.224 189.031 222.224C188.625 222.224 188.3 222.352 188.055 222.608C187.82 222.853 187.703 223.227 187.703 223.728ZM192.083 228V220.224H194.531V228H192.083ZM193.315 219.152C192.931 219.152 192.611 219.024 192.355 218.768C192.109 218.501 191.987 218.181 191.987 217.808C191.987 217.424 192.109 217.104 192.355 216.848C192.611 216.592 192.931 216.464 193.315 216.464C193.699 216.464 194.013 216.592 194.259 216.848C194.504 217.104 194.627 217.424 194.627 217.808C194.627 218.181 194.504 218.501 194.259 218.768C194.013 219.024 193.699 219.152 193.315 219.152ZM200.095 228.176C199.252 228.176 198.5 228.005 197.839 227.664C197.188 227.312 196.676 226.827 196.303 226.208C195.929 225.589 195.743 224.891 195.743 224.112C195.743 223.333 195.924 222.64 196.287 222.032C196.66 221.413 197.161 220.928 197.791 220.576C198.42 220.224 199.129 220.048 199.919 220.048C200.687 220.048 201.364 220.213 201.951 220.544C202.537 220.875 202.996 221.333 203.327 221.92C203.668 222.507 203.839 223.179 203.839 223.936C203.839 224.075 203.828 224.224 203.807 224.384C203.796 224.533 203.769 224.709 203.727 224.912L197.023 224.928V223.248L202.687 223.232L201.631 223.936C201.62 223.488 201.551 223.12 201.423 222.832C201.295 222.533 201.103 222.309 200.847 222.16C200.601 222 200.297 221.92 199.935 221.92C199.551 221.92 199.215 222.011 198.927 222.192C198.649 222.363 198.431 222.608 198.271 222.928C198.121 223.248 198.047 223.637 198.047 224.096C198.047 224.555 198.127 224.949 198.287 225.28C198.457 225.6 198.692 225.851 198.991 226.032C199.3 226.203 199.663 226.288 200.079 226.288C200.463 226.288 200.809 226.224 201.119 226.096C201.428 225.957 201.7 225.755 201.935 225.488L203.279 226.832C202.895 227.28 202.431 227.616 201.887 227.84C201.343 228.064 200.745 228.176 200.095 228.176ZM210.156 228V223.568C210.156 223.163 210.028 222.837 209.772 222.592C209.527 222.336 209.212 222.208 208.828 222.208C208.562 222.208 208.327 222.267 208.124 222.384C207.922 222.491 207.762 222.651 207.644 222.864C207.527 223.067 207.468 223.301 207.468 223.568L206.524 223.104C206.524 222.496 206.658 221.963 206.924 221.504C207.191 221.045 207.559 220.693 208.028 220.448C208.508 220.192 209.047 220.064 209.644 220.064C210.22 220.064 210.727 220.203 211.164 220.48C211.612 220.747 211.964 221.104 212.22 221.552C212.476 222 212.604 222.491 212.604 223.024V228H210.156ZM205.02 228V220.224H207.468V228H205.02ZM217.489 228.16C216.753 228.16 216.097 227.984 215.521 227.632C214.955 227.28 214.507 226.8 214.177 226.192C213.857 225.584 213.697 224.891 213.697 224.112C213.697 223.333 213.857 222.64 214.177 222.032C214.507 221.424 214.955 220.944 215.521 220.592C216.097 220.24 216.753 220.064 217.489 220.064C218.022 220.064 218.502 220.165 218.929 220.368C219.366 220.571 219.723 220.853 220.001 221.216C220.289 221.568 220.449 221.973 220.481 222.432V225.712C220.449 226.171 220.294 226.587 220.017 226.96C219.739 227.323 219.382 227.616 218.945 227.84C218.507 228.053 218.022 228.16 217.489 228.16ZM217.921 225.952C218.273 225.952 218.577 225.877 218.833 225.728C219.089 225.568 219.291 225.349 219.441 225.072C219.59 224.795 219.665 224.475 219.665 224.112C219.665 223.749 219.59 223.435 219.441 223.168C219.302 222.891 219.099 222.672 218.833 222.512C218.577 222.352 218.278 222.272 217.937 222.272C217.595 222.272 217.291 222.352 217.025 222.512C216.769 222.672 216.561 222.891 216.401 223.168C216.251 223.445 216.177 223.76 216.177 224.112C216.177 224.464 216.251 224.779 216.401 225.056C216.55 225.333 216.758 225.552 217.025 225.712C217.291 225.872 217.59 225.952 217.921 225.952ZM221.969 228H219.569V225.904L219.937 224.016L219.521 222.128V216.384H221.969V228ZM246.357 223.792L242.005 216.704H244.917L248.261 222.432H246.389L249.733 216.704H252.581L248.197 223.792H246.357ZM246.053 228V222.64H248.565V228H246.053ZM255.108 228.176C254.308 228.176 253.583 228 252.932 227.648C252.292 227.285 251.785 226.795 251.412 226.176C251.039 225.557 250.852 224.864 250.852 224.096C250.852 223.328 251.039 222.64 251.412 222.032C251.785 221.424 252.292 220.944 252.932 220.592C253.572 220.229 254.297 220.048 255.108 220.048C255.919 220.048 256.644 220.224 257.284 220.576C257.924 220.928 258.431 221.413 258.804 222.032C259.177 222.64 259.364 223.328 259.364 224.096C259.364 224.864 259.177 225.557 258.804 226.176C258.431 226.795 257.924 227.285 257.284 227.648C256.644 228 255.919 228.176 255.108 228.176ZM255.108 225.952C255.46 225.952 255.769 225.877 256.036 225.728C256.303 225.568 256.505 225.349 256.644 225.072C256.793 224.784 256.868 224.459 256.868 224.096C256.868 223.733 256.793 223.419 256.644 223.152C256.495 222.875 256.287 222.661 256.02 222.512C255.764 222.352 255.46 222.272 255.108 222.272C254.767 222.272 254.463 222.352 254.196 222.512C253.929 222.661 253.721 222.875 253.572 223.152C253.423 223.429 253.348 223.749 253.348 224.112C253.348 224.464 253.423 224.784 253.572 225.072C253.721 225.349 253.929 225.568 254.196 225.728C254.463 225.877 254.767 225.952 255.108 225.952ZM264.039 228.176C263.324 228.176 262.689 228.032 262.135 227.744C261.591 227.445 261.164 227.04 260.855 226.528C260.545 226.005 260.391 225.408 260.391 224.736V220.224H262.839V224.704C262.839 224.971 262.881 225.2 262.967 225.392C263.063 225.584 263.201 225.733 263.383 225.84C263.564 225.947 263.783 226 264.039 226C264.401 226 264.689 225.888 264.903 225.664C265.116 225.429 265.223 225.109 265.223 224.704V220.224H267.671V224.72C267.671 225.403 267.516 226.005 267.207 226.528C266.897 227.04 266.471 227.445 265.927 227.744C265.383 228.032 264.753 228.176 264.039 228.176ZM269.208 228V220.224H271.656V228H269.208ZM271.656 223.728L270.632 222.928C270.834 222.021 271.176 221.317 271.656 220.816C272.136 220.315 272.802 220.064 273.656 220.064C274.029 220.064 274.354 220.123 274.632 220.24C274.92 220.347 275.17 220.517 275.384 220.752L273.928 222.592C273.821 222.475 273.688 222.384 273.528 222.32C273.368 222.256 273.186 222.224 272.984 222.224C272.578 222.224 272.253 222.352 272.008 222.608C271.773 222.853 271.656 223.227 271.656 223.728ZM281.508 223.888V221.936H283.94C284.249 221.936 284.532 221.872 284.788 221.744C285.044 221.616 285.247 221.429 285.396 221.184C285.545 220.939 285.62 220.64 285.62 220.288C285.62 219.947 285.545 219.653 285.396 219.408C285.247 219.163 285.044 218.976 284.788 218.848C284.532 218.72 284.249 218.656 283.94 218.656H281.508V216.704H284.308C285.023 216.704 285.668 216.848 286.244 217.136C286.82 217.424 287.273 217.84 287.604 218.384C287.945 218.917 288.116 219.552 288.116 220.288C288.116 221.024 287.945 221.664 287.604 222.208C287.273 222.741 286.82 223.157 286.244 223.456C285.668 223.744 285.023 223.888 284.308 223.888H281.508ZM279.588 228V216.704H282.1V228H279.588ZM292.827 228.176C292.027 228.176 291.301 228 290.651 227.648C290.011 227.285 289.504 226.795 289.131 226.176C288.757 225.557 288.571 224.864 288.571 224.096C288.571 223.328 288.757 222.64 289.131 222.032C289.504 221.424 290.011 220.944 290.651 220.592C291.291 220.229 292.016 220.048 292.827 220.048C293.637 220.048 294.363 220.224 295.003 220.576C295.643 220.928 296.149 221.413 296.523 222.032C296.896 222.64 297.083 223.328 297.083 224.096C297.083 224.864 296.896 225.557 296.523 226.176C296.149 226.795 295.643 227.285 295.003 227.648C294.363 228 293.637 228.176 292.827 228.176ZM292.827 225.952C293.179 225.952 293.488 225.877 293.755 225.728C294.021 225.568 294.224 225.349 294.363 225.072C294.512 224.784 294.587 224.459 294.587 224.096C294.587 223.733 294.512 223.419 294.363 223.152C294.213 222.875 294.005 222.661 293.739 222.512C293.483 222.352 293.179 222.272 292.827 222.272C292.485 222.272 292.181 222.352 291.915 222.512C291.648 222.661 291.44 222.875 291.291 223.152C291.141 223.429 291.067 223.749 291.067 224.112C291.067 224.464 291.141 224.784 291.291 225.072C291.44 225.349 291.648 225.568 291.915 225.728C292.181 225.877 292.485 225.952 292.827 225.952ZM302.062 228.176C301.262 228.176 300.536 228 299.886 227.648C299.235 227.296 298.723 226.811 298.35 226.192C297.976 225.573 297.79 224.88 297.79 224.112C297.79 223.333 297.976 222.64 298.35 222.032C298.734 221.413 299.251 220.928 299.902 220.576C300.552 220.224 301.283 220.048 302.094 220.048C302.702 220.048 303.256 220.155 303.758 220.368C304.27 220.571 304.723 220.88 305.118 221.296L303.55 222.864C303.368 222.661 303.155 222.512 302.91 222.416C302.675 222.32 302.403 222.272 302.094 222.272C301.742 222.272 301.427 222.352 301.15 222.512C300.883 222.661 300.67 222.875 300.51 223.152C300.36 223.419 300.286 223.733 300.286 224.096C300.286 224.459 300.36 224.779 300.51 225.056C300.67 225.333 300.888 225.552 301.166 225.712C301.443 225.872 301.752 225.952 302.094 225.952C302.414 225.952 302.696 225.899 302.942 225.792C303.198 225.675 303.416 225.515 303.598 225.312L305.15 226.88C304.744 227.307 304.286 227.632 303.774 227.856C303.262 228.069 302.691 228.176 302.062 228.176ZM311.215 228L308.495 223.968L311.199 220.224H313.935L310.671 224.432L310.751 223.424L314.095 228H311.215ZM306.239 228V216.384H308.687V228H306.239ZM318.47 228.176C317.627 228.176 316.875 228.005 316.214 227.664C315.563 227.312 315.051 226.827 314.678 226.208C314.304 225.589 314.118 224.891 314.118 224.112C314.118 223.333 314.299 222.64 314.662 222.032C315.035 221.413 315.536 220.928 316.166 220.576C316.795 220.224 317.504 220.048 318.294 220.048C319.062 220.048 319.739 220.213 320.326 220.544C320.912 220.875 321.371 221.333 321.702 221.92C322.043 222.507 322.214 223.179 322.214 223.936C322.214 224.075 322.203 224.224 322.182 224.384C322.171 224.533 322.144 224.709 322.102 224.912L315.398 224.928V223.248L321.062 223.232L320.006 223.936C319.995 223.488 319.926 223.12 319.798 222.832C319.67 222.533 319.478 222.309 319.222 222.16C318.976 222 318.672 221.92 318.31 221.92C317.926 221.92 317.59 222.011 317.302 222.192C317.024 222.363 316.806 222.608 316.646 222.928C316.496 223.248 316.422 223.637 316.422 224.096C316.422 224.555 316.502 224.949 316.662 225.28C316.832 225.6 317.067 225.851 317.366 226.032C317.675 226.203 318.038 226.288 318.454 226.288C318.838 226.288 319.184 226.224 319.494 226.096C319.803 225.957 320.075 225.755 320.31 225.488L321.654 226.832C321.27 227.28 320.806 227.616 320.262 227.84C319.718 228.064 319.12 228.176 318.47 228.176ZM324.327 228V217.008H326.775V228H324.327ZM322.567 222.304V220.224H328.535V222.304H322.567Z" fill="#FD6C02"/>
</svg>
