<svg width="37" height="37" viewBox="0 0 37 37" fill="none" xmlns="http://www.w3.org/2000/svg">
<circle cx="18.5" cy="18.5" r="17.5" fill="#F2F2F2"/>
<g filter="url(#filter0_f_551_244)">
<rect x="5" y="5" width="27" height="27" rx="13.5" fill="#FD6C02"/>
</g>
<rect x="5" y="5" width="27" height="27" rx="13.5" fill="#FD6C02"/>
<g clip-path="url(#clip0_551_244)">
<mask id="mask0_551_244" style="mask-type:luminance" maskUnits="userSpaceOnUse" x="11" y="11" width="15" height="15">
<path d="M26 11H11V26H26V11Z" fill="white"/>
</mask>
<g mask="url(#mask0_551_244)">
<path d="M18.2286 12.573C19.0112 12.4998 19.7614 12.748 20.339 13.2751L20.3409 13.2761C20.9119 13.7912 21.2374 14.5319 21.2374 15.3005V16.0564L21.5167 16.0857C22.2435 16.1636 22.7528 16.3645 23.1027 16.6716L23.2433 16.8103C23.7457 17.3776 23.7501 18.1529 23.6827 18.7595L23.2462 22.2488L23.2452 22.2537C23.1822 22.8363 23.0376 23.3624 22.6407 23.7498C22.2458 24.1349 21.5436 24.4382 20.2433 24.4382H16.756C15.4559 24.4382 14.7543 24.1355 14.3595 23.7498C13.9624 23.3617 13.8171 22.8339 13.754 22.2478V22.2429L13.3165 18.7615C13.2493 18.1461 13.2504 17.3751 13.757 16.8103C14.1061 16.4247 14.6527 16.1747 15.4835 16.0857L15.7628 16.0564V15.4128C15.7628 13.9999 16.9075 12.7014 18.2296 12.574L18.2286 12.573ZM16.256 17.657C15.7397 17.6571 15.3185 18.0782 15.3185 18.5945C15.3187 19.1105 15.7399 19.5319 16.256 19.532H16.2628C16.7788 19.5318 17.2001 19.1105 17.2003 18.5945C17.2003 18.0761 16.7765 17.657 16.256 17.657ZM20.631 17.657C20.1148 17.6571 19.6935 18.0782 19.6935 18.5945C19.6937 19.1105 20.1149 19.5319 20.631 19.532H20.6378C21.1538 19.5318 21.5751 19.1105 21.5753 18.5945C21.5753 18.0761 21.1515 17.657 20.631 17.657ZM18.2599 12.8201H18.2579C17.6376 12.8792 17.0756 13.2212 16.673 13.6882C16.2698 14.156 16.006 14.7721 16.006 15.4128V16.0505H20.9933V15.3005C20.9933 14.6011 20.7007 13.9285 20.1779 13.4558H20.1788C19.6502 12.9772 18.9695 12.7563 18.2599 12.8201Z" fill="white" stroke="white" stroke-width="0.625"/>
</g>
</g>
<defs>
<filter id="filter0_f_551_244" x="0" y="0" width="37" height="37" filterUnits="userSpaceOnUse" color-interpolation-filters="sRGB">
<feFlood flood-opacity="0" result="BackgroundImageFix"/>
<feBlend mode="normal" in="SourceGraphic" in2="BackgroundImageFix" result="shape"/>
<feGaussianBlur stdDeviation="2.5" result="effect1_foregroundBlur_551_244"/>
</filter>
<clipPath id="clip0_551_244">
<rect width="15" height="15" fill="white" transform="translate(11 11)"/>
</clipPath>
</defs>
</svg>
