<svg width="50" height="50" viewBox="0 0 50 50" fill="none" xmlns="http://www.w3.org/2000/svg">
<rect width="50" height="50" rx="25" fill="#FD6C02"/>
<g clip-path="url(#clip0_401_463)">
<mask id="mask0_401_463" style="mask-type:luminance" maskUnits="userSpaceOnUse" x="13" y="13" width="24" height="24">
<path d="M37 13H13V37H37V13Z" fill="white"/>
</mask>
<g mask="url(#mask0_401_463)">
<path d="M25 28.75C22.93 28.75 21.25 27.07 21.25 25C21.25 22.93 22.93 21.25 25 21.25C27.07 21.25 28.75 22.93 28.75 25C28.75 27.07 27.07 28.75 25 28.75ZM25 22.75C23.76 22.75 22.75 23.76 22.75 25C22.75 26.24 23.76 27.25 25 27.25C26.24 27.25 27.25 26.24 27.25 25C27.25 23.76 26.24 22.75 25 22.75Z" fill="white"/>
<path d="M28.21 35.1903C28 35.1903 27.79 35.1603 27.58 35.1103C26.96 34.9403 26.44 34.5503 26.11 34.0003L25.99 33.8003C25.4 32.7803 24.59 32.7803 24 33.8003L23.89 33.9903C23.56 34.5503 23.04 34.9503 22.42 35.1103C21.79 35.2803 21.14 35.1903 20.59 34.8603L18.87 33.8703C18.26 33.5203 17.82 32.9503 17.63 32.2603C17.45 31.5703 17.54 30.8603 17.89 30.2503C18.18 29.7403 18.26 29.2803 18.09 28.9903C17.92 28.7003 17.49 28.5303 16.9 28.5303C15.44 28.5303 14.25 27.3403 14.25 25.8803V24.1203C14.25 22.6603 15.44 21.4703 16.9 21.4703C17.49 21.4703 17.92 21.3003 18.09 21.0103C18.26 20.7203 18.19 20.2603 17.89 19.7503C17.54 19.1403 17.45 18.4203 17.63 17.7403C17.81 17.0503 18.25 16.4803 18.87 16.1303L20.6 15.1403C21.73 14.4703 23.22 14.8603 23.9 16.0103L24.02 16.2103C24.61 17.2303 25.42 17.2303 26.01 16.2103L26.12 16.0203C26.8 14.8603 28.29 14.4703 29.43 15.1503L31.15 16.1403C31.76 16.4903 32.2 17.0603 32.39 17.7503C32.57 18.4403 32.48 19.1503 32.13 19.7603C31.84 20.2703 31.76 20.7303 31.93 21.0203C32.1 21.3103 32.53 21.4803 33.12 21.4803C34.58 21.4803 35.77 22.6703 35.77 24.1303V25.8903C35.77 27.3503 34.58 28.5403 33.12 28.5403C32.53 28.5403 32.1 28.7103 31.93 29.0003C31.76 29.2903 31.83 29.7503 32.13 30.2603C32.48 30.8703 32.58 31.5903 32.39 32.2703C32.21 32.9603 31.77 33.5303 31.15 33.8803L29.42 34.8703C29.04 35.0803 28.63 35.1903 28.21 35.1903ZM25 31.4903C25.89 31.4903 26.72 32.0503 27.29 33.0403L27.4 33.2303C27.52 33.4403 27.72 33.5903 27.96 33.6503C28.2 33.7103 28.44 33.6803 28.64 33.5603L30.37 32.5603C30.63 32.4103 30.83 32.1603 30.91 31.8603C30.99 31.5603 30.95 31.2503 30.8 30.9903C30.23 30.0103 30.16 29.0003 30.6 28.2303C31.04 27.4603 31.95 27.0203 33.09 27.0203C33.73 27.0203 34.24 26.5103 34.24 25.8703V24.1103C34.24 23.4803 33.73 22.9603 33.09 22.9603C31.95 22.9603 31.04 22.5203 30.6 21.7503C30.16 20.9803 30.23 19.9703 30.8 18.9903C30.95 18.7303 30.99 18.4203 30.91 18.1203C30.83 17.8203 30.64 17.5803 30.38 17.4203L28.65 16.4303C28.22 16.1703 27.65 16.3203 27.39 16.7603L27.28 16.9503C26.71 17.9403 25.88 18.5003 24.99 18.5003C24.1 18.5003 23.27 17.9403 22.7 16.9503L22.59 16.7503C22.34 16.3303 21.78 16.1803 21.35 16.4303L19.62 17.4303C19.36 17.5803 19.16 17.8303 19.08 18.1303C19 18.4303 19.04 18.7403 19.19 19.0003C19.76 19.9803 19.83 20.9903 19.39 21.7603C18.95 22.5303 18.04 22.9703 16.9 22.9703C16.26 22.9703 15.75 23.4803 15.75 24.1203V25.8803C15.75 26.5103 16.26 27.0303 16.9 27.0303C18.04 27.0303 18.95 27.4703 19.39 28.2403C19.83 29.0103 19.76 30.0203 19.19 31.0003C19.04 31.2603 19 31.5703 19.08 31.8703C19.16 32.1703 19.35 32.4103 19.61 32.5703L21.34 33.5603C21.55 33.6903 21.8 33.7203 22.03 33.6603C22.27 33.6003 22.47 33.4403 22.6 33.2303L22.71 33.0403C23.28 32.0603 24.11 31.4903 25 31.4903Z" fill="white"/>
</g>
</g>
<defs>
<clipPath id="clip0_401_463">
<rect width="24" height="24" fill="white" transform="translate(13 13)"/>
</clipPath>
</defs>
</svg>
