<svg width="40" height="40" viewBox="0 0 40 40" fill="none" xmlns="http://www.w3.org/2000/svg">
<rect width="40" height="40" rx="20" fill="white"/>
<g clip-path="url(#clip0_724_2189)">
<mask id="mask0_724_2189" style="mask-type:luminance" maskUnits="userSpaceOnUse" x="8" y="8" width="24" height="24">
<path d="M32 8H8V32H32V8Z" fill="white"/>
</mask>
<g mask="url(#mask0_724_2189)">
<path opacity="0.4" d="M28.5 18.19H25.61C23.24 18.19 21.31 16.26 21.31 13.89V11C21.31 10.45 20.86 10 20.31 10H16.07C12.99 10 10.5 12 10.5 15.57V24.43C10.5 28 12.99 30 16.07 30H23.93C27.01 30 29.5 28 29.5 24.43V19.19C29.5 18.64 29.05 18.19 28.5 18.19Z" fill="#FD6C02"/>
<path d="M23.8002 10.2105C23.3902 9.80048 22.6802 10.0805 22.6802 10.6505V14.1405C22.6802 15.6005 23.9202 16.8105 25.4302 16.8105C26.3802 16.8205 27.7002 16.8205 28.8302 16.8205C29.4002 16.8205 29.7002 16.1505 29.3002 15.7505C27.8602 14.3005 25.2802 11.6905 23.8002 10.2105Z" fill="#FD6C02"/>
<path d="M21.5 21.75H15.5C15.09 21.75 14.75 21.41 14.75 21C14.75 20.59 15.09 20.25 15.5 20.25H21.5C21.91 20.25 22.25 20.59 22.25 21C22.25 21.41 21.91 21.75 21.5 21.75Z" fill="#FD6C02"/>
<path d="M19.5 25.75H15.5C15.09 25.75 14.75 25.41 14.75 25C14.75 24.59 15.09 24.25 15.5 24.25H19.5C19.91 24.25 20.25 24.59 20.25 25C20.25 25.41 19.91 25.75 19.5 25.75Z" fill="#FD6C02"/>
</g>
</g>
<defs>
<clipPath id="clip0_724_2189">
<rect width="24" height="24" fill="white" transform="translate(8 8)"/>
</clipPath>
</defs>
</svg>
