<svg width="36" height="36" viewBox="0 0 36 36" fill="none" xmlns="http://www.w3.org/2000/svg">
<rect x="0.75" y="0.75" width="34.5" height="34.5" rx="17.25" stroke="#EFEFEF" stroke-width="1.5"/>
<g clip-path="url(#clip0_431_1105)">
<mask id="mask0_431_1105" style="mask-type:luminance" maskUnits="userSpaceOnUse" x="8" y="8" width="20" height="20">
<path d="M28 8H8V28H28V8Z" fill="white"/>
</mask>
<g mask="url(#mask0_431_1105)">
<path d="M25.5 13.0001C25.5 11.1584 24.6667 9.66675 22.1667 9.66675H13.8333C11.3333 9.66675 10.5 11.1584 10.5 13.0001V26.3334H25.5V16.3501" stroke="black" stroke-width="1.5" stroke-miterlimit="10" stroke-linecap="round" stroke-linejoin="round"/>
<path d="M9.66663 26.3335H26.3333" stroke="black" stroke-width="1.5" stroke-miterlimit="10" stroke-linecap="round" stroke-linejoin="round"/>
<path d="M19.7168 20.5H16.2751C15.8501 20.5 15.4918 20.85 15.4918 21.2833V26.3333H20.4918V21.2833C20.5001 20.85 20.1501 20.5 19.7168 20.5Z" stroke="black" stroke-width="1.5" stroke-miterlimit="10" stroke-linecap="round" stroke-linejoin="round"/>
<path d="M18 13V17.1667" stroke="black" stroke-width="1.5" stroke-miterlimit="10" stroke-linecap="round" stroke-linejoin="round"/>
<path d="M15.9166 15.0835H20.0833" stroke="black" stroke-width="1.5" stroke-miterlimit="10" stroke-linecap="round" stroke-linejoin="round"/>
</g>
</g>
<defs>
<clipPath id="clip0_431_1105">
<rect width="20" height="20" fill="white" transform="translate(8 8)"/>
</clipPath>
</defs>
</svg>
