<svg width="100" height="100" viewBox="0 0 100 100" fill="none" xmlns="http://www.w3.org/2000/svg">
<rect x="0.9375" y="0.9375" width="98.125" height="98.125" rx="49.0625" fill="#F5F5F5"/>
<rect x="0.9375" y="0.9375" width="98.125" height="98.125" rx="49.0625" stroke="#FD6C02" stroke-width="1.875" stroke-dasharray="6.25 6.25"/>
<g clip-path="url(#clip0_258_735)">
<path d="M66.4062 47.6562H52.3438V33.5938C52.3438 32.2993 51.2944 31.25 50 31.25C48.7056 31.25 47.6562 32.2993 47.6562 33.5938V47.6562H33.5938C32.2993 47.6562 31.25 48.7056 31.25 50C31.25 51.2944 32.2993 52.3438 33.5938 52.3438H47.6562V66.4062C47.6562 67.7007 48.7056 68.75 50 68.75C51.2944 68.75 52.3438 67.7007 52.3438 66.4062V52.3438H66.4062C67.7007 52.3438 68.75 51.2944 68.75 50C68.75 48.7056 67.7007 47.6562 66.4062 47.6562Z" fill="#FD6C02"/>
</g>
<defs>
<clipPath id="clip0_258_735">
<rect width="37.5" height="37.5" fill="white" transform="translate(31.25 31.25)"/>
</clipPath>
</defs>
</svg>
