<svg width="90" height="90" viewBox="0 0 90 90" fill="none" xmlns="http://www.w3.org/2000/svg">
<rect width="90" height="90" rx="45" fill="#E3F9E6"/>
<g clip-path="url(#clip0_1391_2975)">
<path d="M71.9999 45.0001C71.9999 41.3416 70.3934 37.8901 67.6686 35.7211C67.8255 33.9231 67.5865 32.1127 66.9684 30.417C66.3503 28.7214 65.3682 27.1818 64.0911 25.9066C61.5036 23.3213 57.9374 22.0186 54.4679 22.4078C49.9364 16.6568 40.1466 16.5488 35.7209 22.3291C33.923 22.169 32.112 22.4065 30.4162 23.0247C28.7205 23.643 27.1815 24.6269 25.9086 25.9066C23.3234 28.4941 22.0184 32.0716 22.4099 35.5298C16.6589 40.0613 16.5486 49.8511 22.3311 54.2791C22.1743 56.077 22.4133 57.8875 23.0314 59.5831C23.6494 61.2787 24.6316 62.8183 25.9086 64.0936C28.4961 66.6788 32.0669 67.9861 35.5319 67.5923C40.0634 73.3433 49.8531 73.4513 54.2789 67.6711C56.0763 67.8261 57.8859 67.5862 59.5809 66.9682C61.2759 66.3502 62.8153 65.3691 64.0911 64.0936C66.6764 61.5061 67.9814 57.9286 67.5899 54.4703C68.9723 53.3104 70.0835 51.8615 70.8455 50.2257C71.6074 48.5898 72.0014 46.8069 71.9999 45.0023V45.0001ZM57.4649 41.7736L46.8021 52.0516C44.1854 54.6638 39.9036 54.6413 37.2869 52.0223L32.2199 47.3153C31.7959 46.9061 31.5493 46.3468 31.5333 45.7577C31.5172 45.1686 31.7329 44.5967 32.134 44.165C32.5351 43.7332 33.0896 43.4761 33.6783 43.4488C34.2669 43.4215 34.8428 43.6263 35.2821 44.0191L40.4076 48.7823C41.3481 49.7206 42.7701 49.7183 43.6476 48.8386L54.3396 38.5313C54.7693 38.1169 55.346 37.8901 55.9428 37.9009C56.5397 37.9116 57.1078 38.159 57.5223 38.5887C57.9367 39.0184 58.1635 39.595 58.1527 40.1919C58.142 40.7888 57.8945 41.3569 57.4649 41.7713V41.7736Z" fill="#4CAF50"/>
</g>
<defs>
<clipPath id="clip0_1391_2975">
<rect width="54" height="54" fill="white" transform="translate(18 18)"/>
</clipPath>
</defs>
</svg>
