<svg width="20" height="20" viewBox="0 0 20 20" fill="none" xmlns="http://www.w3.org/2000/svg">
<path d="M10.9166 16.2501C10.6693 16.2502 10.4275 16.177 10.2219 16.0396C10.0162 15.9023 9.85592 15.707 9.76126 15.4785C9.6666 15.2501 9.64185 14.9986 9.69013 14.7561C9.73841 14.5135 9.85755 14.2908 10.0325 14.1159L13.8541 10.2951C13.8929 10.2564 13.9237 10.2104 13.9447 10.1598C13.9657 10.1092 13.9766 10.0549 13.9766 10.0001C13.9766 9.9453 13.9657 9.89103 13.9447 9.84041C13.9237 9.78979 13.8929 9.74381 13.8541 9.70511L10.0358 5.88427C9.80131 5.64989 9.66953 5.33195 9.66945 5.0004C9.66938 4.66885 9.80101 4.35085 10.0354 4.11636C10.2698 3.88186 10.5877 3.75008 10.9193 3.75C11.2508 3.74992 11.5688 3.88155 11.8033 4.11594L15.625 7.93761C16.171 8.48514 16.4776 9.22684 16.4776 10.0001C16.4776 10.7734 16.171 11.5151 15.625 12.0626L11.8033 15.8843C11.6869 16.0006 11.5486 16.0928 11.3965 16.1556C11.2443 16.2184 11.0812 16.2505 10.9166 16.2501Z" fill="#FD6C02"/>
<path d="M5.08333 16.2501C4.83602 16.2502 4.59424 16.177 4.38857 16.0396C4.18291 15.9023 4.0226 15.707 3.92795 15.4785C3.83329 15.2501 3.80854 14.9986 3.85681 14.7561C3.90509 14.5135 4.02423 14.2908 4.19916 14.1159L8.31833 10.0001L4.2025 5.88427C3.968 5.64989 3.83622 5.33195 3.83614 5.0004C3.83606 4.66885 3.9677 4.35085 4.20208 4.11636C4.43647 3.88186 4.7544 3.75008 5.08595 3.75C5.4175 3.74992 5.7355 3.88155 5.97 4.11594L10.97 9.11594C11.0862 9.23202 11.1783 9.36986 11.2412 9.52157C11.304 9.67328 11.3364 9.83589 11.3364 10.0001C11.3364 10.1643 11.304 10.3269 11.2412 10.4786C11.1783 10.6304 11.0862 10.7682 10.97 10.8843L5.97 15.8843C5.85357 16.0006 5.71531 16.0928 5.56315 16.1556C5.41099 16.2184 5.24793 16.2505 5.08333 16.2501Z" fill="#FD6C02" fill-opacity="0.3"/>
</svg>
